<svg xmlns="http://www.w3.org/2000/svg" width="399.277" height="403.934" viewBox="0 0 399.277 403.934">
  <g id="Group_701" data-name="Group 701" transform="translate(-1310.63 -77.529)">
    <g id="Group_654" data-name="Group 654" transform="translate(1524.195 79.966)">
      <path id="Path_1466" data-name="Path 1466" d="M1904.789,808.521a3.915,3.915,0,0,1-3.2-6.15h0a3.911,3.911,0,1,1,3.2,6.15Zm-2.005-5.316a2.453,2.453,0,1,0,3.415-.612A2.439,2.439,0,0,0,1902.784,803.205Z" transform="translate(-1827.037 -451.001)"/>
      <path id="Path_1467" data-name="Path 1467" d="M1798.79,90.521a3.915,3.915,0,0,1-3.2-6.15h0a3.914,3.914,0,1,1,3.9,6.089A3.99,3.99,0,0,1,1798.79,90.521Zm-2.005-5.316a2.453,2.453,0,1,0,3.415-.611A2.439,2.439,0,0,0,1796.784,85.2Z" transform="translate(-1772.652 -82.616)"/>
      <g id="Group_652" data-name="Group 652" transform="translate(54.452 359.336)">
        <path id="Path_1468" data-name="Path 1468" d="M1874.636,825.056a.73.73,0,0,1-.729-.7l-.117-3.1a.731.731,0,0,1,.7-.757.718.718,0,0,1,.757.7l.117,3.1a.731.731,0,0,1-.7.757Z" transform="translate(-1867.589 -820.497)"/>
        <path id="Path_1469" data-name="Path 1469" d="M1875.394,845.161a.731.731,0,0,1-.729-.7l-.117-3.1a.73.73,0,0,1,1.46-.055l.117,3.1a.73.73,0,0,1-.7.758Z" transform="translate(-1867.977 -830.813)"/>
        <path id="Path_1470" data-name="Path 1470" d="M1861.785,835.568a.73.73,0,0,1-.027-1.46l3.1-.117a.73.73,0,0,1,.055,1.46l-3.1.117Z" transform="translate(-1861.055 -827.42)"/>
        <path id="Path_1471" data-name="Path 1471" d="M1881.889,834.809a.73.73,0,0,1-.026-1.46l3.1-.116a.73.73,0,1,1,.055,1.459l-3.1.117Z" transform="translate(-1871.37 -827.031)"/>
      </g>
      <g id="Group_653" data-name="Group 653" transform="translate(0)">
        <path id="Path_1472" data-name="Path 1472" d="M1764.614,86.965a.743.743,0,0,1-.209-.031.73.73,0,0,1-.491-.909l.887-2.97a.73.73,0,0,1,1.4.418l-.887,2.97A.731.731,0,0,1,1764.614,86.965Z" transform="translate(-1756.747 -82.534)"/>
        <path id="Path_1473" data-name="Path 1473" d="M1758.859,106.242a.731.731,0,0,1-.7-.939l.887-2.971a.731.731,0,0,1,1.4.418l-.887,2.97A.731.731,0,0,1,1758.859,106.242Z" transform="translate(-1753.794 -92.424)"/>
        <path id="Path_1474" data-name="Path 1474" d="M1752.929,93.782a.719.719,0,0,1-.209-.031l-2.971-.887a.73.73,0,1,1,.417-1.4l2.971.887a.73.73,0,0,1-.209,1.43Z" transform="translate(-1749.228 -87.101)"/>
        <path id="Path_1475" data-name="Path 1475" d="M1772.207,99.537a.723.723,0,0,1-.209-.031l-2.971-.887a.73.73,0,0,1,.418-1.4l2.97.887a.731.731,0,0,1-.208,1.431Z" transform="translate(-1759.118 -90.053)"/>
      </g>
    </g>
    <path id="Path_1476" data-name="Path 1476" d="M1611.073,647.981l-1.806-6.6-7.462.339a28.372,28.372,0,0,0-2.4-4.12l3.951-6.332-4.862-4.813-6.294,4.028a28.729,28.729,0,0,0-4.134-2.359l.258-7.472-6.615-1.735-3.433,6.628a28.344,28.344,0,0,0-4.765.035l-3.509-6.6-6.6,1.807.339,7.467a28.364,28.364,0,0,0-4.117,2.4L1553.3,626.7l-4.809,4.866,4.025,6.3A28.768,28.768,0,0,0,1550.16,642l-7.467-.258-1.734,6.62,6.624,3.436a28.371,28.371,0,0,0,.034,4.768l-6.594,3.512,1.806,6.6,7.462-.339a28.332,28.332,0,0,0,2.4,4.12l-3.951,6.333,4.862,4.813,6.294-4.028a28.708,28.708,0,0,0,4.134,2.358l-.258,7.472,6.616,1.735,3.432-6.628a28.322,28.322,0,0,0,4.765-.034l3.51,6.6,6.6-1.807-.34-7.467a28.352,28.352,0,0,0,4.118-2.4l6.328,3.953,4.81-4.866-4.026-6.3a28.674,28.674,0,0,0,2.357-4.137l7.467.258,1.734-6.62-6.623-3.436a28.333,28.333,0,0,0-.034-4.768ZM1580.7,671.023a17.617,17.617,0,1,1,12.331-21.644A17.6,17.6,0,0,1,1580.7,671.023Z" transform="translate(-118.175 -277.771)" fill="#5479f7"/>
    <g id="Group_659" data-name="Group 659" transform="translate(1407.145 137.954)">
      <path id="Path_1477" data-name="Path 1477" d="M1732.866,769.6c3.057-3.045,4.789-6.511,4.789-10.189,0-12.118-18.772-21.941-41.927-21.941s-41.928,9.823-41.928,21.941c0,3.678,1.732,7.144,4.789,10.189-3.056,3.045-4.789,6.51-4.789,10.188,0,5.749,4.227,10.98,11.14,14.892a8.72,8.72,0,0,0-.24,1.99c0,8.967,13.891,16.237,31.028,16.237s31.027-7.269,31.027-16.237a8.693,8.693,0,0,0-.24-1.99c6.914-3.912,11.141-9.143,11.141-14.892C1737.655,776.11,1735.923,772.644,1732.866,769.6Z" transform="translate(-1583.216 -476.55)"/>
      <g id="Group_658" data-name="Group 658" transform="translate(0 0)">
        <path id="Path_1478" data-name="Path 1478" d="M1733.865,315.274a112.511,112.511,0,1,0-191.655,79.96,117.11,117.11,0,0,1,31.209,53.661l.256.986a44.93,44.93,0,0,0,43.485,33.624h8.389a44.93,44.93,0,0,0,43.485-33.624l.155-.6a114.982,114.982,0,0,1,30.73-53.48A112.159,112.159,0,0,0,1733.865,315.274Z" transform="translate(-1508.843 -202.208)" fill="#fff"/>
        <g id="Group_655" data-name="Group 655" transform="translate(79.982 90.131)">
          <path id="Path_1479" data-name="Path 1479" d="M1754.44,575.585a.73.73,0,0,1-.726-.663c-5.656-61.118,23.708-157.974,24.006-158.945a.73.73,0,0,1,1.4.428c-.3.968-29.577,97.552-23.949,158.382a.73.73,0,0,1-.659.795Z" transform="translate(-1714.09 -401.468)"/>
          <path id="Path_1480" data-name="Path 1480" d="M1699.546,577.609a.731.731,0,0,1-.73-.717c-1.12-61.5-8.04-99.4-13.647-120.365-6.053-22.627-11.871-30.819-11.929-30.9a.73.73,0,1,1,1.183-.857c.244.336,6.035,8.492,12.158,31.379,5.628,21.042,12.573,59.065,13.7,120.715a.731.731,0,0,1-.717.744Z" transform="translate(-1673.101 -406.09)"/>
          <path id="Path_1481" data-name="Path 1481" d="M1710.4,420.053q-.177,0-.355-.008c-2.869-.133-5.356-1.882-7.325-4.356a10.218,10.218,0,0,1-6.493,2.58c-5.578.1-10.968-4.385-13.1-10.933a.73.73,0,1,1,1.389-.453c1.907,5.848,6.839,10.02,11.686,9.927a8.824,8.824,0,0,0,5.655-2.3,25.166,25.166,0,0,1-3.958-10.672c-.517-4.574.519-9.961,2.361-12.264a2.913,2.913,0,0,1,1.923-1.211,3,3,0,0,1,2.218.818c2.095,1.723,3.91,5.8,4.223,9.479A19.4,19.4,0,0,1,1704,414.44q-.106.118-.213.231c1.8,2.267,3.989,3.805,6.328,3.913,3.293.154,6.288-2.495,8.556-6.112a24.29,24.29,0,0,1-3.9-11.921c-.238-5.331,1.794-11.027,3.841-13a2.428,2.428,0,0,1,1.847-.821,2.247,2.247,0,0,1,1.532.919c1.8,2.187,2.846,8.287,2.279,13.32a31.238,31.238,0,0,1-3.824,11.494c1.391,1.736,3.073,2.865,4.933,2.833,3.248-.049,6.747-3.688,8.705-9.057a.73.73,0,1,1,1.372.5c-2.2,6.026-6.145,9.958-10.055,10.017a7.589,7.589,0,0,1-5.744-3.008C1717.261,417.392,1714.083,420.053,1710.4,420.053Zm-7.987-28.246a.74.74,0,0,0-.075,0,1.643,1.643,0,0,0-.94.671c-1.6,2-2.522,7.022-2.051,11.188a23.088,23.088,0,0,0,3.563,9.8v0a18.114,18.114,0,0,0,4.254-12.684c-.307-3.609-2.158-7.209-3.7-8.474A1.832,1.832,0,0,0,1702.414,391.807Zm17.909-3.622a1.237,1.237,0,0,0-.7.417c-1.78,1.717-3.613,7.021-3.4,11.885a23.509,23.509,0,0,0,3.249,10.6,29.573,29.573,0,0,0,3.34-10.283c.558-4.963-.571-10.549-1.955-12.228a.975.975,0,0,0-.521-.392Z" transform="translate(-1678.225 -386.724)"/>
        </g>
        <g id="Group_656" data-name="Group 656" transform="translate(140.677 31.062)">
          <path id="Path_1482" data-name="Path 1482" d="M1804.043,285.851c3.564,3.458,7.588,6.421,11.005,10.034a93.357,93.357,0,0,1,9.776,12.924,80.067,80.067,0,0,1,7.465,13.717,66.084,66.084,0,0,1,2.044,6.9c.99,3.5,2.622,11.417,7.362,11.714,2.625.165,4.52-2.515,5.728-4.468a25.694,25.694,0,0,0,3.423-11.584c.652-8.469-1.542-16.964-4.874-24.686a72.391,72.391,0,0,0-14.4-21.734,55.126,55.126,0,0,0-8.41-7.175c-.092-.07-.183-.144-.275-.213-3.558-2.678-7.464-5.457-12.032-5.819a14.045,14.045,0,0,0-9.9,2.939C1794.355,273.858,1799.244,281.194,1804.043,285.851Z" transform="translate(-1797.75 -265.415)" fill="#caddff"/>
        </g>
        <g id="Group_657" data-name="Group 657" transform="translate(119.604 17.667)">
          <path id="Path_1483" data-name="Path 1483" d="M1772.075,253.639a11.924,11.924,0,0,0-1.366-11.233.832.832,0,0,0-.107-.282c-4.11-6.747-14.514-5.1-16.012,2.791C1753.021,253.181,1767.549,263.007,1772.075,253.639Z" transform="translate(-1754.472 -237.904)" fill="#caddff"/>
        </g>
        <path id="Path_1484" data-name="Path 1484" d="M1808.036,545.231a.731.731,0,0,1-.291-1.4,89.125,89.125,0,0,0,47.917-50.543.73.73,0,1,1,1.369.508,90.6,90.6,0,0,1-48.7,51.375A.73.73,0,0,1,1808.036,545.231Z" transform="translate(-1661.975 -351.023)"/>
        <path id="Path_1485" data-name="Path 1485" d="M1577.948,513.717a.728.728,0,0,1-.539-.237,90.173,90.173,0,0,1-21.009-39.006.73.73,0,0,1,1.417-.353,88.715,88.715,0,0,0,20.668,38.372.731.731,0,0,1-.538,1.224Z" transform="translate(-1533.232 -341.149)"/>
        <path id="Path_1486" data-name="Path 1486" d="M1602.327,505.759a.724.724,0,0,1-.42-.134,75.055,75.055,0,0,1-30.149-45.494c-.359-1.652-.668-3.335-.916-5a.731.731,0,0,1,1.445-.215c.244,1.636.545,3.286.9,4.906a73.6,73.6,0,0,0,29.564,44.611.731.731,0,0,1-.422,1.327Z" transform="translate(-1540.648 -331.259)"/>
        <path id="Path_1487" data-name="Path 1487" d="M1833.421,244.82a.73.73,0,0,1-.569-.272,111.932,111.932,0,0,0-80.745-41.465.731.731,0,0,1-.689-.77.722.722,0,0,1,.77-.689,113.4,113.4,0,0,1,81.8,42.007.73.73,0,0,1-.568,1.189Z" transform="translate(-1633.301 -201.622)"/>
        <path id="Path_1488" data-name="Path 1488" d="M1625.75,617.26h-8.389a45.667,45.667,0,0,1-44.191-34.171l-.256-.986a116.523,116.523,0,0,0-31.016-53.325,113.558,113.558,0,0,1-32.656-65.919.73.73,0,1,1,1.448-.186,112.09,112.09,0,0,0,32.235,65.067,117.979,117.979,0,0,1,31.4,54l.256.986a44.206,44.206,0,0,0,42.778,33.078h8.389a44.206,44.206,0,0,0,42.778-33.078l.155-.6a115.676,115.676,0,0,1,30.927-53.819,111.687,111.687,0,0,0,22.9-31.965.73.73,0,1,1,1.319.629,113.148,113.148,0,0,1-23.2,32.382,114.21,114.21,0,0,0-30.534,53.141l-.155.6A45.669,45.669,0,0,1,1625.75,617.26Z" transform="translate(-1509.044 -335.233)"/>
        <path id="Path_1489" data-name="Path 1489" d="M1512.473,371.657a.671.671,0,0,1-.125-.011.73.73,0,0,1-.6-.844,113.253,113.253,0,0,1,4.465-17.44.73.73,0,0,1,1.382.474,111.769,111.769,0,0,0-4.408,17.214A.73.73,0,0,1,1512.473,371.657Z" transform="translate(-1510.33 -279.222)"/>
      </g>
      <path id="Path_1490" data-name="Path 1490" d="M1687.865,804.315a128.184,128.184,0,0,1-17.992-1.14.73.73,0,0,1,.232-1.442c.365.058,36.861,5.685,66.907-8.78a.73.73,0,1,1,.633,1.316C1720.556,802.5,1701.43,804.315,1687.865,804.315Z" transform="translate(-1591.147 -504.98)" fill="#fff"/>
      <path id="Path_1491" data-name="Path 1491" d="M1701.85,847.618a93.37,93.37,0,0,1-13.111-.831.731.731,0,0,1,.232-1.443c.265.043,26.746,4.123,48.534-6.367a.73.73,0,0,1,.634,1.316C1725.68,846.292,1711.738,847.618,1701.85,847.618Z" transform="translate(-1600.827 -528.594)" fill="#fff"/>
    </g>
    <g id="Group_677" data-name="Group 677" transform="translate(1575.852 77.529)">
      <g id="Group_660" data-name="Group 660">
        <path id="Path_1492" data-name="Path 1492" d="M1956,136.308v-8.967l-9.555-2.155a37.106,37.106,0,0,0-1.606-6.038l7.188-6.635-4.484-7.766-9.354,2.911a37.683,37.683,0,0,0-4.413-4.412l2.911-9.354-7.766-4.484-6.635,7.188a37.166,37.166,0,0,0-6.038-1.606l-2.154-9.555h-8.968l-2.155,9.555a37.162,37.162,0,0,0-6.037,1.606l-6.635-7.188-7.765,4.484,2.911,9.354a37.64,37.64,0,0,0-4.412,4.412l-9.354-2.911-4.484,7.766,7.187,6.635a37.182,37.182,0,0,0-1.607,6.038l-9.554,2.155v8.967l9.554,2.155a37.2,37.2,0,0,0,1.607,6.038l-7.187,6.635,4.484,7.766,9.354-2.911a37.6,37.6,0,0,0,4.412,4.412l-2.911,9.354,7.765,4.484,6.635-7.188a37.109,37.109,0,0,0,6.037,1.606l2.155,9.555h8.968l2.154-9.555a37.113,37.113,0,0,0,6.038-1.606l6.635,7.188,7.766-4.484-2.911-9.354a37.644,37.644,0,0,0,4.413-4.412l9.354,2.911,4.484-7.766-7.188-6.635a37.12,37.12,0,0,0,1.606-6.038Zm-46.39,18.6a23.085,23.085,0,1,1,23.084-23.085A23.085,23.085,0,0,1,1909.609,154.909Z" transform="translate(-1859.371 -81.585)" fill="#5479f7"/>
        <path id="Path_1493" data-name="Path 1493" d="M1906.917,171.768h-8.967a.731.731,0,0,1-.712-.57l-2.05-9.084a38.055,38.055,0,0,1-5.219-1.389l-6.309,6.835a.731.731,0,0,1-.9.137l-7.766-4.483a.73.73,0,0,1-.332-.85l2.769-8.9a38.459,38.459,0,0,1-3.813-3.814l-8.9,2.768a.732.732,0,0,1-.849-.332l-4.484-7.766a.73.73,0,0,1,.137-.9l6.834-6.31a38.076,38.076,0,0,1-1.388-5.22l-9.084-2.049a.731.731,0,0,1-.57-.712v-8.967a.731.731,0,0,1,.57-.712l9.084-2.049a38.1,38.1,0,0,1,1.388-5.22l-6.834-6.309a.73.73,0,0,1-.137-.9l4.484-7.766a.73.73,0,0,1,.849-.332l8.9,2.768a38.556,38.556,0,0,1,3.814-3.814l-2.769-8.9a.73.73,0,0,1,.332-.85l7.766-4.484a.731.731,0,0,1,.9.137l6.309,6.835a38.109,38.109,0,0,1,5.219-1.389l2.05-9.084a.731.731,0,0,1,.712-.57h8.967a.731.731,0,0,1,.713.57l2.049,9.084a38.128,38.128,0,0,1,5.22,1.389l6.309-6.835a.73.73,0,0,1,.9-.137l7.766,4.484a.731.731,0,0,1,.332.85l-2.768,8.9a38.568,38.568,0,0,1,3.814,3.814l8.9-2.768a.73.73,0,0,1,.849.332l4.484,7.766a.73.73,0,0,1-.137.9l-6.835,6.309a38.018,38.018,0,0,1,1.389,5.22l9.084,2.049a.731.731,0,0,1,.57.712v8.967a.731.731,0,0,1-.57.712l-9.084,2.049a38,38,0,0,1-1.389,5.221l6.835,6.309a.73.73,0,0,1,.137.9L1941,152.091a.73.73,0,0,1-.849.332l-8.9-2.768a38.527,38.527,0,0,1-3.814,3.814l2.768,8.9a.731.731,0,0,1-.332.85l-7.766,4.483a.731.731,0,0,1-.9-.137l-6.309-6.835a37.988,37.988,0,0,1-5.22,1.388l-2.049,9.085A.731.731,0,0,1,1906.917,171.768Zm-8.384-1.461h7.8l2.026-8.984a.731.731,0,0,1,.583-.558,36.569,36.569,0,0,0,5.919-1.575.73.73,0,0,1,.784.192l6.239,6.759,6.754-3.9-2.737-8.8a.73.73,0,0,1,.225-.775,37.031,37.031,0,0,0,4.327-4.327.729.729,0,0,1,.774-.225l8.8,2.738,3.9-6.754-6.759-6.24a.731.731,0,0,1-.192-.784,36.5,36.5,0,0,0,1.575-5.919.731.731,0,0,1,.558-.584l8.984-2.027v-7.8l-8.984-2.027a.731.731,0,0,1-.558-.584,36.5,36.5,0,0,0-1.575-5.919.732.732,0,0,1,.192-.784l6.759-6.239-3.9-6.754-8.8,2.738a.73.73,0,0,1-.774-.225,37.038,37.038,0,0,0-4.327-4.327.729.729,0,0,1-.225-.774l2.737-8.8-6.754-3.9-6.239,6.759a.73.73,0,0,1-.784.192,36.577,36.577,0,0,0-5.919-1.575.73.73,0,0,1-.583-.558l-2.026-8.984h-7.8l-2.027,8.984a.729.729,0,0,1-.583.558,36.544,36.544,0,0,0-5.919,1.575.73.73,0,0,1-.784-.192l-6.24-6.759-6.754,3.9,2.737,8.8a.729.729,0,0,1-.226.774,37.129,37.129,0,0,0-4.326,4.327.73.73,0,0,1-.774.225l-8.8-2.738-3.9,6.754,6.759,6.239a.731.731,0,0,1,.192.784,36.586,36.586,0,0,0-1.575,5.919.729.729,0,0,1-.558.583l-8.984,2.027v7.8l8.984,2.027a.729.729,0,0,1,.558.583,36.586,36.586,0,0,0,1.575,5.919.731.731,0,0,1-.192.784l-6.759,6.24,3.9,6.754,8.8-2.738a.73.73,0,0,1,.774.225,37.056,37.056,0,0,0,4.326,4.327.73.73,0,0,1,.226.775l-2.737,8.8,6.754,3.9,6.24-6.759a.73.73,0,0,1,.784-.192,36.549,36.549,0,0,0,5.919,1.575.729.729,0,0,1,.583.558Zm50.289-41.175h0Zm-46.389,19.331a23.815,23.815,0,1,1,23.814-23.815A23.842,23.842,0,0,1,1902.434,148.463Zm0-46.169a22.354,22.354,0,1,0,22.354,22.354A22.38,22.38,0,0,0,1902.434,102.295Z" transform="translate(-1855.314 -77.529)"/>
      </g>
      <g id="Group_667" data-name="Group 667" transform="translate(38.181 230.446)">
        <g id="Group_661" data-name="Group 661" transform="translate(69.359 120.804)">
          <path id="Path_1494" data-name="Path 1494" d="M2077.667,801.522l7.582,23.249,5.747-.393-1.714-23.992Z" transform="translate(-2076.936 -799.656)" fill="#fff"/>
          <path id="Path_1495" data-name="Path 1495" d="M2084.479,824.732a.73.73,0,0,1-.694-.5l-7.583-23.249a.73.73,0,0,1,.623-.953l11.614-1.137a.737.737,0,0,1,.543.169.729.729,0,0,1,.257.506l1.714,23.992a.731.731,0,0,1-.678.781l-5.747.393Zm-6.606-23.341L2085,823.234l4.448-.3-1.609-22.513Z" transform="translate(-2076.167 -798.886)"/>
        </g>
        <g id="Group_663" data-name="Group 663" transform="translate(71.6 133.349)">
          <g id="Group_662" data-name="Group 662">
            <path id="Path_1496" data-name="Path 1496" d="M2082.269,841.154v-15l4.249,6.721.581-5.813,5.644-.731s8.994,11.967,12.285,31.69a3.964,3.964,0,0,1-3.906,4.62H2095.3a6.063,6.063,0,0,1-5.348-3.206l-6.208-12.145A13.466,13.466,0,0,1,2082.269,841.154Z" transform="translate(-2081.539 -825.419)" fill="#fff"/>
            <path id="Path_1497" data-name="Path 1497" d="M2100.353,862.6h-5.822A6.78,6.78,0,0,1,2088.54,859l-6.215-12.156a14.27,14.27,0,0,1-1.556-6.463v-15a.73.73,0,0,1,1.347-.39l3.116,4.929.371-3.7a.73.73,0,0,1,.633-.652l5.644-.731a.728.728,0,0,1,.678.285c.09.121,9.139,12.337,12.421,32.009a4.695,4.695,0,0,1-4.626,5.47ZM2082.23,827.9v12.482a12.792,12.792,0,0,0,1.4,5.8l6.208,12.144a5.317,5.317,0,0,0,4.7,2.809h5.822a3.235,3.235,0,0,0,3.185-3.769c-2.921-17.51-10.451-28.948-11.9-31.029l-4.635.6-.524,5.236a.73.73,0,0,1-1.344.318Z" transform="translate(-2080.769 -824.649)"/>
          </g>
          <path id="Path_1498" data-name="Path 1498" d="M2102.186,861.307a.972.972,0,0,1-.832-.467l-8.9-14.576a.974.974,0,0,1,1.663-1.015l8.9,14.576a.975.975,0,0,1-.83,1.482Z" transform="translate(-2086.691 -834.979)"/>
          <path id="Path_1499" data-name="Path 1499" d="M2095.642,872.311a3.723,3.723,0,0,1-3.366-1.96c-2.192-4.083-7.188-13.406-10.007-18.8v2.636a13.461,13.461,0,0,0,1.477,6.131l6.208,12.144a6.063,6.063,0,0,0,5.348,3.207h5.821a3.96,3.96,0,0,0,3.936-3.572Z" transform="translate(-2081.539 -838.451)"/>
        </g>
        <g id="Group_664" data-name="Group 664" transform="translate(15.032 124.184)">
          <path id="Path_1500" data-name="Path 1500" d="M1967.87,807.95l-1.775,27.653s9.44-1.272,13.032-9.237l.993-19.038Z" transform="translate(-1965.365 -806.598)" fill="#fff"/>
          <path id="Path_1501" data-name="Path 1501" d="M1965.326,835.564a.731.731,0,0,1-.729-.777l1.775-27.654a.731.731,0,0,1,.692-.683l12.25-.621a.73.73,0,0,1,.766.767l-.993,19.038a.735.735,0,0,1-.064.262c-3.715,8.239-13.2,9.606-13.6,9.66A.7.7,0,0,1,1965.326,835.564Zm2.463-27.687-1.673,26.058c2.351-.54,8.743-2.521,11.52-8.515l.944-18.091Z" transform="translate(-1964.595 -805.829)"/>
        </g>
        <g id="Group_666" data-name="Group 666" transform="translate(0 138.297)">
          <g id="Group_665" data-name="Group 665">
            <path id="Path_1502" data-name="Path 1502" d="M1949.693,836.966a28.677,28.677,0,0,1,3.652-.034,3.527,3.527,0,0,1,3.272,3.754l-.122,1.928s5.651-5.7,6.791-6.278c.635-.319,2.213,2.542,3.487,5.142a7.657,7.657,0,0,1-.419,7.5l-11.578,18.091a6.449,6.449,0,0,1-5.432,2.973h-10.081a4.038,4.038,0,0,1-3.667-5.728,13.844,13.844,0,0,1,3.961-5.056,11.205,11.205,0,0,0,3.79-5.6l4.388-15.108A2.2,2.2,0,0,1,1949.693,836.966Z" transform="translate(-1934.492 -835.582)" fill="#fff"/>
            <path id="Path_1503" data-name="Path 1503" d="M1948.576,870h-10.081a4.769,4.769,0,0,1-4.331-6.763,14.556,14.556,0,0,1,4.168-5.321,10.439,10.439,0,0,0,3.545-5.233l4.388-15.108a2.939,2.939,0,0,1,2.61-2.109,29.631,29.631,0,0,1,3.748-.035,4.258,4.258,0,0,1,3.955,4.529,48.683,48.683,0,0,1,5.611-5.049,1,1,0,0,1,.774-.045c.386.13,1.188.4,3.7,5.518a8.437,8.437,0,0,1-.46,8.215l-11.578,18.09A7.148,7.148,0,0,1,1948.576,870Zm.4-33.078a1.474,1.474,0,0,0-1.307,1.06l-4.388,15.108a11.884,11.884,0,0,1-4.034,5.965,13.113,13.113,0,0,0-3.754,4.791,3.308,3.308,0,0,0,3,4.693h10.081a5.694,5.694,0,0,0,4.817-2.636l11.578-18.091a6.967,6.967,0,0,0,.379-6.785c-1.638-3.341-2.43-4.36-2.732-4.665-1.094.787-4.388,3.991-6.372,5.993A.731.731,0,0,1,1955,841.8l.122-1.928a2.8,2.8,0,0,0-2.589-2.979A28,28,0,0,0,1948.976,836.926Z" transform="translate(-1933.725 -834.813)"/>
          </g>
          <path id="Path_1504" data-name="Path 1504" d="M1951.795,870.65a4.08,4.08,0,0,1-3.375,1.789h-13.162a4.038,4.038,0,0,0,4.024,3.681h10.081a6.449,6.449,0,0,0,5.432-2.973l11.578-18.091a7.65,7.65,0,0,0,.679-6.9Z" transform="translate(-1934.511 -841.66)"/>
          <path id="Path_1505" data-name="Path 1505" d="M1957.314,867.786a.975.975,0,0,1-.824-1.491l8.754-13.979a.974.974,0,0,1,1.651,1.034l-8.755,13.979A.973.973,0,0,1,1957.314,867.786Z" transform="translate(-1945.329 -843.558)"/>
        </g>
        <path id="Path_1506" data-name="Path 1506" d="M1962.86,550.793,1959.7,556.3s-5.041,72.7,2.51,128.8c0,0,4.773,1.978,14.559-.055,0,0,14.125-62.831,11.81-93.81,0,0,11.62,54.052,26.078,86.667,0,0,11.489,1.016,16.013-.556,0,0-.767-39.682-2.326-49.549-2.96-18.748-19.7-75.043-19.7-75.043Z" transform="translate(-1946.205 -550.793)"/>
        <path id="Path_1507" data-name="Path 1507" d="M2007.595,615.776a.73.73,0,0,1-.7-.534l-2.647-9.471-6.36-2.661a.73.73,0,1,1,.564-1.347l6.687,2.8a.732.732,0,0,1,.422.477l2.742,9.812a.73.73,0,0,1-.507.9A.719.719,0,0,1,2007.595,615.776Z" transform="translate(-1966.413 -576.915)" fill="#fff"/>
      </g>
      <g id="Group_674" data-name="Group 674" transform="translate(33.225 56.349)">
        <g id="Group_668" data-name="Group 668" transform="translate(16.706 93.37)">
          <path id="Path_1508" data-name="Path 1508" d="M1968.606,396.754s-7.489,47.792-8.044,57.424-1.2,20.19-1.2,20.19c1.848,9.406,51.422,5.242,52.966-.893,0,0-3.13-23.375-.962-40.8s-9.788-46.167-9.788-46.167l-30.416,1.858Z" transform="translate(-1958.627 -385.775)" fill="#99b9ff"/>
          <path id="Path_1509" data-name="Path 1509" d="M1979.109,479.856q-1.295,0-2.516-.032c-8.037-.211-17.809-1.439-18.722-6.085a.743.743,0,0,1-.012-.186c.006-.105.657-10.667,1.205-20.187.55-9.558,7.745-55.543,8.051-57.5a.814.814,0,0,1,.023-.1l2.551-8.391a.729.729,0,0,1,.654-.517l30.416-1.858a.732.732,0,0,1,.719.448c.491,1.181,12.006,29.119,9.839,46.538-2.132,17.135.93,40.383.961,40.615a.717.717,0,0,1-.016.275C2011.149,477.3,1992.488,479.856,1979.109,479.856Zm-19.787-6.314c.664,2.753,7.114,4.553,17.309,4.821,16.226.428,33.046-2.887,34.177-5.723-.271-2.117-3-24.267-.942-40.828,1.968-15.818-8.01-41.492-9.543-45.316l-29.386,1.8-2.388,7.856c-.281,1.8-7.49,47.954-8.028,57.3C1960,462.475,1959.391,472.434,1959.323,473.543Z" transform="translate(-1957.857 -385.006)"/>
        </g>
        <g id="Group_669" data-name="Group 669" transform="translate(56.891)">
          <path id="Path_1510" data-name="Path 1510" d="M2045.092,196.438a5.423,5.423,0,0,0,.419,2.838c.243.812,1.978,4.27,1.978,4.27a21.961,21.961,0,0,0-1.273,3.279c-1.369-1.4-4.332-1.321-4.332-1.321l4.1,7.648c1.5,3.69,5.916,2.5,5.916,2.5l-.157-13.705-5.423-7.2A3.852,3.852,0,0,0,2045.092,196.438Z" transform="translate(-2041.154 -194.023)" fill="#fff"/>
          <path id="Path_1511" data-name="Path 1511" d="M2049.575,215.809a5.112,5.112,0,0,1-5.023-3.115l-4.081-7.615A.73.73,0,0,1,2041.1,204a8.89,8.89,0,0,1,3.968.865c.327-.936.654-1.68.842-2.086-.456-.916-1.648-3.342-1.864-4.066-.034-.11-.07-.225-.108-.344a5.133,5.133,0,0,1-.316-2.9h0a4.493,4.493,0,0,1,1.484-2.068.731.731,0,0,1,1.03.139l5.422,7.2a.723.723,0,0,1,.147.431l.157,13.705a.73.73,0,0,1-.541.714A6.892,6.892,0,0,1,2049.575,215.809Zm-7.2-10.261,3.477,6.489a.707.707,0,0,1,.033.07c.966,2.383,3.4,2.336,4.5,2.179l-.147-12.857-4.777-6.34a2.226,2.226,0,0,0-.441.775,4.026,4.026,0,0,0,.3,2.068c.04.127.079.25.115.367.163.546,1.271,2.836,1.931,4.151a.731.731,0,0,1,0,.657,21.605,21.605,0,0,0-1.224,3.158.73.73,0,0,1-1.221.3A4.616,4.616,0,0,0,2042.379,205.548Z" transform="translate(-2040.384 -193.253)"/>
        </g>
        <g id="Group_670" data-name="Group 670" transform="translate(1.16 11.065)">
          <path id="Path_1512" data-name="Path 1512" d="M1929.911,218.2a5.423,5.423,0,0,1,1.224,2.595c.247.81.718,4.651.718,4.651a21.923,21.923,0,0,1,2.876,2.025c.366-1.92,2.875-3.5,2.875-3.5l.824,8.637c.8,3.9-3.538,5.362-3.538,5.362l-7.461-11.5.528-9A3.848,3.848,0,0,1,1929.911,218.2Z" transform="translate(-1926.699 -216.747)" fill="#fff"/>
          <path id="Path_1513" data-name="Path 1513" d="M1934.12,237.931a.73.73,0,0,1-.612-.333l-7.461-11.5a.721.721,0,0,1-.116-.44l.528-9a.73.73,0,0,1,.78-.686,4.5,4.5,0,0,1,2.382.9,5.134,5.134,0,0,1,1.343,2.588c.035.12.068.236.1.346.22.724.571,3.4.7,4.419.382.233,1.066.672,1.857,1.27a8.893,8.893,0,0,1,2.825-2.918.73.73,0,0,1,1.116.549l.82,8.6c.7,3.562-2.324,5.587-4.029,6.161A.727.727,0,0,1,1934.12,237.931Zm-6.718-12.424,7,10.784c1-.483,3.054-1.8,2.542-4.305a.678.678,0,0,1-.011-.077l-.7-7.327a4.624,4.624,0,0,0-1.555,2.256.731.731,0,0,1-1.185.425,21.331,21.331,0,0,0-2.767-1.951.73.73,0,0,1-.366-.547c-.179-1.46-.525-3.981-.691-4.526-.036-.116-.072-.24-.109-.369a4.024,4.024,0,0,0-.895-1.887,2.232,2.232,0,0,0-.8-.4Z" transform="translate(-1925.929 -215.977)"/>
        </g>
        <g id="Group_671" data-name="Group 671" transform="translate(35.323 79.757)">
          <path id="Path_1514" data-name="Path 1514" d="M2001,361.452l-3.409,11.468s4.472,3.361,16.342,0l-2.678-14.37Z" transform="translate(-1996.86 -357.819)" fill="#fff"/>
          <path id="Path_1515" data-name="Path 1515" d="M2003.647,374.375c-5,0-7.136-1.544-7.265-1.641a.73.73,0,0,1-.261-.792l3.408-11.468a.731.731,0,0,1,.5-.495l10.256-2.9a.73.73,0,0,1,.917.569l2.678,14.37a.73.73,0,0,1-.518.837A35.856,35.856,0,0,1,2003.647,374.375Zm-5.962-2.57c1.311.643,5.741,2.208,14.637-.18l-2.408-12.924-9.1,2.575Z" transform="translate(-1996.091 -357.05)"/>
        </g>
        <g id="Group_672" data-name="Group 672" transform="translate(50.837 21.084)">
          <path id="Path_1516" data-name="Path 1516" d="M2039.765,238.91l8.087-.856s34.975,40.721,3.9,89.37l9.78,39.546a2.986,2.986,0,0,1-1.961,3.555c-5.547,1.83-18.7,5.7-27.538,4.495l-2.578-68.369,4.02,1.942S2052.339,290.694,2039.765,238.91Z" transform="translate(-2028.72 -237.322)" fill="#5479f7"/>
          <path id="Path_1517" data-name="Path 1517" d="M2034.888,375.206a27.7,27.7,0,0,1-3.728-.233.731.731,0,0,1-.631-.7l-2.579-68.369a.731.731,0,0,1,1.048-.686l3.539,1.709c1.125-1.257,4.8-5.869,7.363-14.869,2.815-9.891,4.821-27.245-1.615-53.751a.731.731,0,0,1,.633-.9l8.087-.857a.731.731,0,0,1,.631.251,80.17,80.17,0,0,1,13.749,26.709c4.462,14.931,6.4,38.006-9.622,63.266l9.7,39.243a3.733,3.733,0,0,1-2.44,4.424C2054.356,371.989,2043.564,375.206,2034.888,375.206Zm-2.922-1.606c8.723.939,21.45-2.839,26.6-4.538a2.266,2.266,0,0,0,1.48-2.686l-9.779-39.546a.731.731,0,0,1,.094-.569c15.89-24.874,14.012-47.592,9.639-62.269a79.729,79.729,0,0,0-13.234-25.94l-6.868.727c6.3,26.45,4.231,43.852,1.366,53.824-3.163,11.012-7.862,15.562-8.061,15.751a.73.73,0,0,1-.82.128l-2.928-1.414Z" transform="translate(-2027.95 -236.552)"/>
        </g>
        <g id="Group_673" data-name="Group 673" transform="translate(0 30.222)">
          <path id="Path_1518" data-name="Path 1518" d="M1956.854,318.764c-15.918-25.236-19.722-60.608-19.722-60.608l-7.051-1.336c-15.5,59.459,9.3,77.776,9.3,77.776l-6,42.395a5.773,5.773,0,0,0,3.711,6.211,38.574,38.574,0,0,0,16.423,1.817c1.015-34.257,8.076-67.977,8.076-67.977Z" transform="translate(-1924.285 -256.09)" fill="#5479f7"/>
          <path id="Path_1519" data-name="Path 1519" d="M1948.675,385.2a36.694,36.694,0,0,1-12.571-2.083,6.468,6.468,0,0,1-4.179-7l5.942-41.983c-1.4-1.168-6.609-6.054-10.372-16.656-3.925-11.056-6.913-30.719,1.143-61.614a.732.732,0,0,1,.843-.534l7.051,1.336a.73.73,0,0,1,.59.64c.037.35,3.918,35.029,19.3,59.8l4.188-1.521a.731.731,0,0,1,.964.837c-.071.336-7.059,34.052-8.061,67.849a.73.73,0,0,1-.634.7A34.582,34.582,0,0,1,1948.675,385.2ZM1929.88,256.9c-7.75,30.156-4.838,49.311-1.009,60.1,4.142,11.666,10.151,16.2,10.211,16.247a.73.73,0,0,1,.29.69l-6,42.394a5.016,5.016,0,0,0,3.245,5.424,37.76,37.76,0,0,0,15.457,1.84c.955-29.987,6.541-59.738,7.814-66.186l-3.521,1.279a.731.731,0,0,1-.867-.3c-14.755-23.393-19.2-55.813-19.766-60.379Z" transform="translate(-1923.548 -255.32)"/>
        </g>
        <path id="Path_1520" data-name="Path 1520" d="M2039.253,449.5a.73.73,0,0,1-.729-.693l-3.2-60.862a.73.73,0,1,1,1.459-.076l3.2,60.862a.731.731,0,0,1-.691.768Z" transform="translate(-1980.898 -292.75)"/>
        <path id="Path_1521" data-name="Path 1521" d="M1975.15,451.846h-.041a.73.73,0,0,1-.688-.77,485.718,485.718,0,0,1,6.894-59.471.73.73,0,0,1,1.433.282,484.167,484.167,0,0,0-6.869,59.271A.731.731,0,0,1,1975.15,451.846Z" transform="translate(-1949.648 -294.719)"/>
      </g>
      <g id="Group_676" data-name="Group 676" transform="translate(63.658 116.335)">
        <path id="Path_1522" data-name="Path 1522" d="M2002.235,316.729c3.667,1.02,3.458,4.1,8.924,6.581,2.4,1.091,3.672,1.053,4.76,2.541,1.9,2.6.676,6.348.561,6.687-.736,2.147-1.7,2.152-4.867,5.91-3.131,3.715-3.7,5.512-5.175,5.437-1.733-.088-2-2.561-3.884-2.8-2.439-.309-3.589,3.632-6.37,4.3-1.911.458-5.672-.6-10.135-6.266.78-.931,2.235-2.918,3.818-4.6,4.956-5.25,7.78-5.721,7.65-7.675-.2-2.994-5.5-3.553-5.425-5.912C1992.167,318.548,1997.788,315.493,2002.235,316.729Z" transform="translate(-1986.048 -316.445)"/>
        <g id="Group_675" data-name="Group 675" transform="translate(3.143 6.73)">
          <path id="Path_1523" data-name="Path 1523" d="M2010.383,338.326l-2.1.477a78.976,78.976,0,0,1-5.986,7.218c-1.836,1.655-7.392-3.645-7.392-3.645l.137-1.441-1.511-1.5s6.089-3.6,9.15-7.659A10.533,10.533,0,0,1,2010.383,338.326Z" transform="translate(-1993.031 -331.039)" fill="#fff"/>
          <path id="Path_1524" data-name="Path 1524" d="M2010.5,337.894a14.946,14.946,0,0,1-2.582.848l.424-.275c-.912,1.216-1.838,2.409-2.788,3.6a43.841,43.841,0,0,1-3.03,3.476l-.22.21a1.418,1.418,0,0,1-.152.126l-.187.134a2.125,2.125,0,0,1-.823.269,3.434,3.434,0,0,1-1.417-.173,9.621,9.621,0,0,1-2.193-1.086,26.67,26.67,0,0,1-3.657-2.887.706.706,0,0,1-.224-.583l0-.015.137-1.44.212.586-1.354-1.66-.026-.032a.52.52,0,0,1,.074-.731.556.556,0,0,1,.051-.037c.823-.519,1.644-1.088,2.44-1.668s1.575-1.191,2.331-1.821a25.092,25.092,0,0,0,4.053-4.17l.02-.025a.7.7,0,0,1,.671-.259,9.224,9.224,0,0,1,1.4.375,12.026,12.026,0,0,1,1.3.544,10.928,10.928,0,0,1,2.348,1.542,10.571,10.571,0,0,1,1.893,2.081,10.707,10.707,0,0,1,.739,1.2,3.858,3.858,0,0,1,.371.875A5.783,5.783,0,0,1,2010.5,337.894Zm-1.291-.683c-.146-.1-.276-.147-.353-.2-.092-.063-.071-.09-.2-.311a9.3,9.3,0,0,0-.645-1.044,9.138,9.138,0,0,0-1.643-1.807,9.466,9.466,0,0,0-2.047-1.345,10.634,10.634,0,0,0-1.132-.475,8.054,8.054,0,0,0-1.138-.31l.689-.283a26.4,26.4,0,0,1-4.441,4.256q-1.205.931-2.462,1.78c-.84.566-1.684,1.106-2.57,1.621l.1-.8,1.667,1.347a.591.591,0,0,1,.219.513l-.006.074-.138,1.441-.223-.6a25.366,25.366,0,0,0,3.434,2.712,8.246,8.246,0,0,0,1.844.924,2.05,2.05,0,0,0,.808.117.691.691,0,0,0,.245-.071.247.247,0,0,1,.041-.034.251.251,0,0,0,.066-.053l.189-.181a42.952,42.952,0,0,0,2.907-3.342c.936-1.168,1.859-2.357,2.756-3.553a.732.732,0,0,1,.41-.272l.014,0A6.035,6.035,0,0,1,2009.209,337.212Z" transform="translate(-1992.503 -330.266)"/>
        </g>
        <path id="Path_1525" data-name="Path 1525" d="M2020.812,353.876s3.688-2.982,4.689-1.017S2022.361,358,2020.812,353.876Z" transform="translate(-2003.884 -334.784)" fill="#fff"/>
      </g>
    </g>
    <g id="Group_682" data-name="Group 682" transform="translate(1328.87 101.908)">
      <path id="Path_1526" data-name="Path 1526" d="M1535.669,236.106H1353.7a3.8,3.8,0,0,1-3.789-3.783l-.323-99.445a3.765,3.765,0,0,1,3.764-3.782h181.967a3.8,3.8,0,0,1,3.789,3.782l.324,99.445A3.765,3.765,0,0,1,1535.669,236.106Z" transform="translate(-1348.859 -128.366)" fill="#fff"/>
      <g id="Group_678" data-name="Group 678" transform="translate(9.137 26.034)">
        <path id="Path_1527" data-name="Path 1527" d="M1428.066,300.051h-17.053l-.115-35.226h17.053Z" transform="translate(-1389.452 -224.039)" fill="#99b9ff"/>
        <path id="Path_1528" data-name="Path 1528" d="M1383.991,309.734h-17.053l-.085-26.037h17.053Z" transform="translate(-1366.854 -233.721)" fill="#99b9ff"/>
        <path id="Path_1529" data-name="Path 1529" d="M1472.266,281.4h-17.053l-.172-52.922h17.053Z" transform="translate(-1412.1 -205.392)" fill="#99b9ff"/>
        <path id="Path_1530" data-name="Path 1530" d="M1518.512,292.4h-17.053l-.138-42.485h17.053Z" transform="translate(-1435.844 -216.391)" fill="#99b9ff"/>
        <path id="Path_1531" data-name="Path 1531" d="M1564.659,273.739h-17.053l-.2-60.2h17.053Z" transform="translate(-1459.492 -197.727)" fill="#99b9ff"/>
        <path id="Path_1532" data-name="Path 1532" d="M1610.917,289.359h-17.053l-.143-43.987h17.053Z" transform="translate(-1483.253 -214.058)" fill="#99b9ff"/>
        <path id="Path_1533" data-name="Path 1533" d="M1658.04,271.361h-17.053l-.2-61.067h17.053Z" transform="translate(-1507.402 -196.06)" fill="#99b9ff"/>
        <path id="Path_1534" data-name="Path 1534" d="M1703.228,256.364h-17.053l-.245-75.3h17.053Z" transform="translate(-1530.562 -181.063)" fill="#99b9ff"/>
      </g>
      <g id="Group_681" data-name="Group 681" transform="translate(15.076 4.233)">
        <path id="Path_1535" data-name="Path 1535" d="M1389.887,196.081a.73.73,0,0,1-.411-1.335l38.6-26.223a.73.73,0,0,1,.91.072l16.443,15.432,30.2-20.535a.73.73,0,0,1,.918.079l17.874,17.307,50.188-34.028a.731.731,0,0,1,.82,1.21l-50.68,34.36a.73.73,0,0,1-.918-.079l-17.873-17.307-30.189,20.53a.73.73,0,0,1-.911-.072l-16.443-15.432L1390.3,195.955A.727.727,0,0,1,1389.887,196.081Z" transform="translate(-1384.235 -141.644)"/>
        <ellipse id="Ellipse_53" data-name="Ellipse 53" cx="5.198" cy="4.946" rx="5.198" ry="4.946" transform="matrix(0.685, -0.729, 0.729, 0.685, 37.147, 28.031)" fill="#99b9ff"/>
        <ellipse id="Ellipse_54" data-name="Ellipse 54" cx="5.198" cy="4.946" rx="5.198" ry="4.946" transform="translate(84.581 22.799) rotate(-46.795)" fill="#5479f7"/>
        <path id="Path_1536" data-name="Path 1536" d="M1505.234,219.119a5.387,5.387,0,0,1-5.049,5.342,4.779,4.779,0,0,1-5.082-4.806,5.388,5.388,0,0,1,5.049-5.343A4.778,4.778,0,0,1,1505.234,219.119Z" transform="translate(-1438.594 -176.317)" fill="#99b9ff"/>
        <g id="Group_679" data-name="Group 679" transform="translate(0 47.987)">
          <path id="Path_1537" data-name="Path 1537" d="M1390.681,241.153a5.387,5.387,0,0,1-5.049,5.343,4.778,4.778,0,0,1-5.082-4.806,5.387,5.387,0,0,1,5.049-5.342A4.779,4.779,0,0,1,1390.681,241.153Z" transform="translate(-1379.82 -235.61)" fill="#caddff"/>
          <path id="Path_1538" data-name="Path 1538" d="M1384.587,246.464a5.5,5.5,0,0,1-5.537-5.541,6.132,6.132,0,0,1,5.741-6.074,5.509,5.509,0,0,1,5.851,5.533,6.131,6.131,0,0,1-5.741,6.074C1384.8,246.461,1384.691,246.464,1384.587,246.464Zm.514-10.163c-.077,0-.155,0-.234.006a4.654,4.654,0,0,0-4.357,4.611,4.048,4.048,0,0,0,4.313,4.079,4.654,4.654,0,0,0,4.357-4.611,4.044,4.044,0,0,0-4.079-4.085Z" transform="translate(-1379.05 -234.84)"/>
        </g>
        <path id="Path_1539" data-name="Path 1539" d="M1605.052,212.357A5.387,5.387,0,0,1,1600,217.7a4.778,4.778,0,0,1-5.082-4.806,5.386,5.386,0,0,1,5.049-5.342A4.778,4.778,0,0,1,1605.052,212.357Z" transform="translate(-1489.808 -172.848)" fill="#99b9ff"/>
        <g id="Group_680" data-name="Group 680" transform="translate(154.986)">
          <path id="Path_1540" data-name="Path 1540" d="M1708.973,142.6a5.386,5.386,0,0,1-5.049,5.343,4.779,4.779,0,0,1-5.082-4.806,5.387,5.387,0,0,1,5.049-5.343A4.778,4.778,0,0,1,1708.973,142.6Z" transform="translate(-1698.112 -137.06)" fill="#5479f7"/>
          <path id="Path_1541" data-name="Path 1541" d="M1702.88,147.914a5.5,5.5,0,0,1-5.537-5.541,6.132,6.132,0,0,1,5.74-6.074,5.509,5.509,0,0,1,5.851,5.533,6.131,6.131,0,0,1-5.741,6.074C1703.089,147.911,1702.984,147.914,1702.88,147.914Zm.514-10.163q-.116,0-.234.006a4.654,4.654,0,0,0-4.357,4.611,4.048,4.048,0,0,0,4.313,4.079,4.654,4.654,0,0,0,4.357-4.61,4.044,4.044,0,0,0-4.079-4.085Z" transform="translate(-1697.343 -136.29)"/>
        </g>
      </g>
      <path id="Path_1542" data-name="Path 1542" d="M1504.315,348.822h-44.8a.73.73,0,1,1,0-1.461h44.8a.73.73,0,0,1,0,1.461Z" transform="translate(-1404.885 -240.351)"/>
      <path id="Path_1543" data-name="Path 1543" d="M1534.9,236.067h-59.138a.73.73,0,1,1,0-1.461H1534.9a3.035,3.035,0,0,0,3.035-3.05l-.324-99.444a3.067,3.067,0,0,0-3.058-3.055H1352.584a3.034,3.034,0,0,0-3.034,3.05l.313,96.217a.731.731,0,0,1-.728.733.721.721,0,0,1-.733-.728l-.313-96.217a4.494,4.494,0,0,1,4.495-4.515h181.968a4.53,4.53,0,0,1,4.519,4.51l.324,99.444a4.495,4.495,0,0,1-4.5,4.516Z" transform="translate(-1348.089 -127.596)"/>
    </g>
    <g id="Group_700" data-name="Group 700" transform="translate(1310.63 183.006)">
      <path id="Path_1544" data-name="Path 1544" d="M1375.589,309.467c.976-.4,4.516-1.48,6.689-4.778,1.536-2.331,2.7-6.232.955-8.6-.434-.592-1.859-2.188-8.6-1.911a41.359,41.359,0,0,0-14.547,3.176c-13.919,6.55-7.1,10.337-16.1,17.154-13.26,10.035-11.943,4.27-18.26,11.2-10.266,11.26-8.759,27.585,11.443,40.172,13.644,8.5,32.7,3.6,42.363-7.06C1395.309,341.42,1363.813,314.285,1375.589,309.467Z" transform="translate(-1315.178 -294.147)"/>
      <g id="Group_687" data-name="Group 687" transform="translate(32.721 108.206)">
        <g id="Group_683" data-name="Group 683" transform="translate(22.362 143.014)">
          <path id="Path_1545" data-name="Path 1545" d="M1435.468,812.273l-.5,18.411-6.5.7-3.217-19.813Z" transform="translate(-1424.523 -810.843)" fill="#fff"/>
          <path id="Path_1546" data-name="Path 1546" d="M1427.7,831.347a.73.73,0,0,1-.72-.614l-3.217-19.813a.73.73,0,0,1,.771-.846l10.214.7a.731.731,0,0,1,.68.748l-.495,18.41a.73.73,0,0,1-.652.706l-6.5.7A.759.759,0,0,1,1427.7,831.347Zm-2.348-19.752,2.959,18.221,5.179-.56.459-17.073Z" transform="translate(-1423.753 -810.074)"/>
        </g>
        <g id="Group_684" data-name="Group 684" transform="translate(58.851 149.758)">
          <path id="Path_1547" data-name="Path 1547" d="M1510.813,825.423l1.037,14.664-8.593.7-3.068-15.367Z" transform="translate(-1499.46 -824.692)" fill="#fff"/>
          <path id="Path_1548" data-name="Path 1548" d="M1502.488,840.751a.73.73,0,0,1-.716-.588L1498.7,824.8a.73.73,0,0,1,.717-.873h10.623a.73.73,0,0,1,.729.679l1.037,14.664a.731.731,0,0,1-.669.78l-8.593.7Zm-2.176-15.367,2.765,13.856,7.225-.591-.938-13.264Z" transform="translate(-1498.691 -823.923)"/>
        </g>
        <g id="Group_685" data-name="Group 685" transform="translate(58.622 157.427)">
          <path id="Path_1549" data-name="Path 1549" d="M1500.722,855.162a2.208,2.208,0,0,1-.977-1.78c-.056-2.151-.063-6.735.8-8.457,1.152-2.285,5.9.9,5.9.9s2.781-3.854,4.409-4.664c.843-.42,5.774,2.863,10.744,7.338,5.447,4.9,7.907,6.468,9.081,10.7a3.3,3.3,0,0,1-2.96,4.126C1522.722,863.679,1512.625,863.08,1500.722,855.162Z" transform="translate(-1498.991 -840.418)" fill="#5479f7"/>
          <path id="Path_1550" data-name="Path 1550" d="M1524.753,863.383c-5.541,0-14.7-1.365-25.207-8.358a2.94,2.94,0,0,1-1.3-2.37c-.08-3.06.009-7.071.883-8.805a2.143,2.143,0,0,1,1.408-1.135c1.6-.42,3.875.745,4.961,1.387.871-1.149,2.864-3.642,4.268-4.341,2.09-1.041,11.464,7.364,11.558,7.449.858.772,1.641,1.461,2.357,2.09,3.923,3.45,5.892,5.182,6.939,8.953a3.944,3.944,0,0,1-.589,3.339,4.039,4.039,0,0,1-3.022,1.711C1526.342,863.352,1525.589,863.383,1524.753,863.383Zm-23.459-19.3a1.547,1.547,0,0,0-.39.045.685.685,0,0,0-.474.38c-.558,1.108-.831,4.139-.727,8.109a1.476,1.476,0,0,0,.651,1.191c11.737,7.807,21.669,8.387,26.547,8.038a2.587,2.587,0,0,0,1.933-1.1,2.49,2.49,0,0,0,.375-2.106c-.931-3.351-2.675-4.885-6.5-8.247-.719-.633-1.507-1.325-2.369-2.1-5.113-4.6-9.149-7.068-10.014-7.182-1.217.682-3.33,3.385-4.057,4.393a.731.731,0,0,1-1,.179A9.228,9.228,0,0,0,1501.294,844.083Z" transform="translate(-1498.22 -839.673)"/>
        </g>
        <path id="Path_1551" data-name="Path 1551" d="M1524.2,870.613a34.965,34.965,0,0,1-21.937-7.892.73.73,0,1,1,.911-1.142,32.85,32.85,0,0,0,25.974,7.12.731.731,0,0,1,.333,1.423A24.977,24.977,0,0,1,1524.2,870.613Z" transform="translate(-1441.529 -693.404)"/>
        <g id="Group_686" data-name="Group 686" transform="translate(13.066 154.585)">
          <path id="Path_1552" data-name="Path 1552" d="M1428.239,847.352l-.095-10.079s-2.021-3.058-4.792-.573c0,0-2.562-3.593-7.318.886,0,0-6.692,12.474-9.654,19.892a3.067,3.067,0,0,0,2.762,4.213c3.071.072,7.043-.094,8.773-1.263,2.7-1.828,7.332-7.591,9.35-10.188A4.631,4.631,0,0,0,1428.239,847.352Z" transform="translate(-1405.43 -834.606)" fill="#5479f7"/>
          <path id="Path_1553" data-name="Path 1553" d="M1409.6,861.666q-.6,0-1.244-.015a3.732,3.732,0,0,1-3.064-1.7,3.818,3.818,0,0,1-.359-3.518c2.943-7.372,9.622-19.842,9.689-19.967a.729.729,0,0,1,.143-.186c1.888-1.778,3.711-2.594,5.421-2.427a4.364,4.364,0,0,1,2.465,1.088,3.545,3.545,0,0,1,2.521-.693,4.435,4.435,0,0,1,2.813,1.847.735.735,0,0,1,.121.4l.095,10.08a5.386,5.386,0,0,1-1.128,3.343c-2.39,3.076-6.805,8.511-9.517,10.345C1416.179,861.2,1413.506,861.666,1409.6,861.666Zm6.253-24.4c-.656,1.229-6.794,12.777-9.563,19.712a2.324,2.324,0,0,0,.221,2.171,2.29,2.29,0,0,0,1.88,1.041c4.153.1,7.118-.307,8.346-1.138,2.639-1.785,7.3-7.609,9.182-10.031a3.915,3.915,0,0,0,.82-2.432h0l-.092-9.839a2.807,2.807,0,0,0-1.67-1.05,2.451,2.451,0,0,0-1.907.774.73.73,0,0,1-1.082-.12,2.891,2.891,0,0,0-1.969-1.045C1418.78,835.2,1417.378,835.856,1415.855,837.267Z" transform="translate(-1404.663 -833.836)"/>
        </g>
        <path id="Path_1554" data-name="Path 1554" d="M1440.7,843.532a.731.731,0,0,1-.731-.73l0-5.434a.73.73,0,0,1,1.461,0l0,5.434A.73.73,0,0,1,1440.7,843.532Z" transform="translate(-1409.711 -680.688)"/>
        <path id="Path_1555" data-name="Path 1555" d="M1450.642,667.688s2.452-37.016-1.571-70.311-18.987-80.84-18.987-80.84-16.1-.731-27.82.844-16.358-.045-16.358-.045-8.749,10.018-8.035,28.851,21.129,98.276,20.356,116.922a26.744,26.744,0,0,0,15.758,1.736L1410.3,557.778s7.627,22.041,11.207,37.14a72.3,72.3,0,0,0,7.981,20.272s-.215,28.615,6.352,52.365C1435.839,667.555,1443.6,669.982,1450.642,667.688Z" transform="translate(-1377.829 -516.367)"/>
        <path id="Path_1556" data-name="Path 1556" d="M1494.233,735.885a.729.729,0,0,1-.6-.317l-5.622-8.181a.73.73,0,1,1,1.2-.827l5.622,8.181a.73.73,0,0,1-.6,1.144Z" transform="translate(-1434.293 -624.049)" fill="#fff"/>
        <path id="Path_1557" data-name="Path 1557" d="M1415.973,701.74a11.1,11.1,0,0,1-6.642-1.958.73.73,0,0,1,.87-1.173c3.556,2.638,8.751,1.354,8.8,1.34a.73.73,0,1,1,.361,1.416A14.879,14.879,0,0,1,1415.973,701.74Z" transform="translate(-1393.84 -609.796)" fill="#fff"/>
      </g>
      <g id="Group_691" data-name="Group 691" transform="translate(25.979 17.492)">
        <path id="Path_1558" data-name="Path 1558" d="M1370.942,450.94c1.909,2.139,5.776,1.76,13.432.917,11.958-1.318,14.01-4.017,21.738-4.778,13.773-1.357,19.436,6.017,24.365,2.628,3-2.062,5.475-7.933,1.026-26.048q-2.167-10.287-4.253-20.792-2.867-14.454-5.434-28.588a125.025,125.025,0,0,0-23.881.2,116.665,116.665,0,0,0-32.452,8.091c4.574,6.642,2.287,15.664,6.86,22.305C1372.26,409.916,1367.393,446.966,1370.942,450.94Z" transform="translate(-1364.752 -352.508)" fill="#5479f7"/>
        <g id="Group_690" data-name="Group 690" transform="translate(93.756)">
          <g id="Group_688" data-name="Group 688" transform="translate(14.44)">
            <path id="Path_1559" data-name="Path 1559" d="M1588.359,341.374s7.276-6.748,9.347-8.467c2.356-1.956-3.034-2.6-9.94,3.726Z" transform="translate(-1586.995 -330.83)" fill="#fff"/>
            <path id="Path_1560" data-name="Path 1560" d="M1587,342.118l-.816-6.529.278-.255c5.105-4.677,9.344-5.641,10.817-5.15a1.241,1.241,0,0,1,.889.928,1.717,1.717,0,0,1-.806,1.6c-2.032,1.687-9.244,8.373-9.317,8.441Zm.727-5.958.369,2.952c2.1-1.936,6.722-6.19,8.332-7.527l.079-.068C1595.393,331.473,1592.029,332.311,1587.725,336.16Z" transform="translate(-1586.182 -330.069)"/>
          </g>
          <g id="Group_689" data-name="Group 689" transform="translate(0 1.313)">
            <path id="Path_1561" data-name="Path 1561" d="M1573.748,341.4c.042.373.089.747.156,1.116a3.716,3.716,0,0,1-.642,3.1c-.883.937-5.163,3.265-7.183,4.337a5.7,5.7,0,0,0-1.786,1.477c-.674.843,1.156,9.786,1.156,9.786l-7.345-2.626s.881-12.2,2.494-17.162,5.871-7.311,6.972-7.157,1.437,2.265,1.437,2.265,2.387-1.841,3.834-.856c.759.517.391,1.392.509,2.237Z" transform="translate(-1557.337 -333.534)" fill="#fff"/>
            <path id="Path_1562" data-name="Path 1562" d="M1565.616,361.571l-9.089-3.249.04-.554c.036-.5.906-12.35,2.528-17.336,1.692-5.2,6.224-7.87,7.768-7.655a2.487,2.487,0,0,1,1.787,1.828c.979-.544,2.556-1.143,3.794-.3a2.146,2.146,0,0,1,.809,2.1,3.864,3.864,0,0,0,.012.641l.4,3.5c.039.344.084.711.149,1.07a4.435,4.435,0,0,1-.829,3.73c-.886.941-4.5,2.956-7.373,4.481a4.958,4.958,0,0,0-1.514,1.234c-.221.835.473,5.4,1.258,9.237Zm-7.549-4.25,5.6,2c-1.049-5.369-1.3-8.435-.757-9.12a6.408,6.408,0,0,1,2.014-1.667,44.155,44.155,0,0,0,6.994-4.192,3.1,3.1,0,0,0,.455-2.47c-.072-.4-.121-.795-.163-1.163l-.4-3.482a5.057,5.057,0,0,1-.023-.875c.02-.6-.007-.729-.172-.841-.764-.519-2.335.335-2.977.831l-.974.751-.193-1.214c-.119-.729-.5-1.613-.817-1.657-.738-.075-4.654,1.979-6.177,6.66C1559.11,345.109,1558.261,354.892,1558.067,357.321Z" transform="translate(-1556.527 -332.766)"/>
          </g>
          <path id="Path_1563" data-name="Path 1563" d="M1573.8,348.014a2.013,2.013,0,0,1-.537-.074c-.987-.274-2.074-1.4-2.163-3.758-.132-3.453,4.107-6.707,4.287-6.844a.731.731,0,0,1,.884,1.164c-1.061.807-3.8,3.39-3.711,5.625.056,1.468.59,2.266,1.094,2.406a.694.694,0,0,0,.733-.377,3.948,3.948,0,0,0,.629-2.463.73.73,0,0,1,1.444-.217,5.355,5.355,0,0,1-.851,3.48A2.174,2.174,0,0,1,1573.8,348.014Z" transform="translate(-1564.002 -333.722)"/>
        </g>
        <path id="Path_1564" data-name="Path 1564" d="M1516.346,376.539a43.847,43.847,0,0,1,11.164,3.9c.934,4.648.657,12.85-3.137,23.1-1.574,4.252-3.427,9.258-7.554,11.923-7.894,5.1-22.322.472-35.276-11.575q-.185-14.555-.371-29.11a20.111,20.111,0,0,1,8.731,5.881l4.089,4.725c3.67,6.624,8.593,11.175,12.373,10.341,3.087-.681,4.776-5.1,8.154-13.93C1516.262,377.244,1515.6,379.365,1516.346,376.539Z" transform="translate(-1424.109 -353.01)" fill="#5479f7"/>
        <path id="Path_1565" data-name="Path 1565" d="M1375.386,452.491c-2.7,0-4.539-.466-5.759-1.832-2.674-3-1.22-20.508.5-38.19.367-3.779.662-6.81.711-8.15-2.271-3.417-2.853-7.4-3.416-11.262-.575-3.941-1.119-7.663-3.309-10.844a.73.73,0,0,1,.329-1.092,117.377,117.377,0,0,1,32.648-8.14,126.216,126.216,0,0,1,24.02-.2.73.73,0,1,1-.126,1.455,124.737,124.737,0,0,0-23.742.2,120.9,120.9,0,0,0-16.526,2.886,119.351,119.351,0,0,0-14.907,4.829c1.977,3.287,2.527,7.05,3.059,10.7.576,3.941,1.119,7.663,3.309,10.843a.729.729,0,0,1,.129.427c-.021,1.257-.316,4.293-.724,8.494-1.082,11.136-3.334,34.307-.862,37.075,1.625,1.821,5.3,1.5,12.807.677a59.918,59.918,0,0,0,13.151-2.832,38.276,38.276,0,0,1,8.6-1.946,36.307,36.307,0,0,1,16.271,2.266c3.427,1.146,5.692,1.9,7.752.486,3.937-2.707,4.183-11.21.73-25.272-1.039-4.928-2.065-9.905-3.057-14.815a.73.73,0,1,1,1.432-.289c.991,4.906,2.017,9.878,3.049,14.779,3.658,14.9,3.226,23.67-1.327,26.8-2.66,1.829-5.477.888-9.043-.3-3.851-1.287-8.644-2.889-15.665-2.2a36.594,36.594,0,0,0-8.3,1.885,61.211,61.211,0,0,1-13.432,2.892C1380.278,452.19,1377.554,452.491,1375.386,452.491Z" transform="translate(-1363.982 -351.74)"/>
        <path id="Path_1566" data-name="Path 1566" d="M1488.149,415.818a.73.73,0,0,1-.716-.589c-1.1-5.552-2.192-11.186-3.24-16.745a.73.73,0,1,1,1.435-.271c1.047,5.553,2.137,11.183,3.238,16.731a.73.73,0,0,1-.574.858A.757.757,0,0,1,1488.149,415.818Z" transform="translate(-1425.652 -364.727)"/>
        <path id="Path_1567" data-name="Path 1567" d="M1508.685,417.614c-6.347,0-14.1-3.009-21.9-8.73a.73.73,0,1,1,.864-1.178c10.93,8.018,22.063,10.57,28.361,6.5,3.922-2.533,5.7-7.331,7.265-11.564,4.4-11.9,3.629-19.788,3.17-22.373a42.563,42.563,0,0,0-9.984-3.508l-.1.4a8.21,8.21,0,0,1-.5,1.527c-.187.466-.5,1.238-1.067,2.723-3.467,9.067-5.207,13.616-8.679,14.382-3.9.861-9.057-3.311-13.132-10.634l-4.04-4.668a19.432,19.432,0,0,0-8.087-5.552.73.73,0,1,1,.5-1.374,20.9,20.9,0,0,1,8.7,5.971l4.089,4.725a.707.707,0,0,1,.087.124c3.7,6.681,8.352,10.694,11.577,9.982,2.7-.6,4.452-5.17,7.628-13.475.573-1.5.888-2.279,1.077-2.75a7.13,7.13,0,0,0,.441-1.343c.066-.255.153-.6.285-1.1a.731.731,0,0,1,.864-.526,45.637,45.637,0,0,1,11.36,3.976.731.731,0,0,1,.361.495c.457,2.272,1.577,10.679-3.169,23.5-1.565,4.227-3.511,9.487-7.842,12.284A14.759,14.759,0,0,1,1508.685,417.614Z" transform="translate(-1423.698 -352.366)"/>
      </g>
      <g id="Group_693" data-name="Group 693" transform="translate(43.755 9.707)">
        <g id="Group_692" data-name="Group 692">
          <path id="Path_1568" data-name="Path 1568" d="M1424.918,345.159a6.027,6.027,0,0,1-5.045-6.262l.249-4.765c2.876-.224,5.27-1.6,5.263-2.5a51.045,51.045,0,0,0-1.719-6.563,1.478,1.478,0,0,0,.034-2.468c-1.2-.765-3.9-5.636-3.9-5.636-3.327-3.868-4.289,1.582-6.774,2.037-1.72.315-2.655,1.362-2,3.612s-.586,1.121-1.852.48-2.127-.143-1.433,1.9,3.226,3.274,3.226,3.274l1.2,2.356-2.529,11.584a6.5,6.5,0,0,1-4.163,4.732l-3.484,1.243,18.314,9.59,8.846-11.917Z" transform="translate(-1401.259 -314.851)" fill="#fff"/>
          <path id="Path_1569" data-name="Path 1569" d="M1419.534,357.729a.725.725,0,0,1-.338-.083l-18.314-9.59a.73.73,0,0,1,.093-1.335l3.484-1.243a5.732,5.732,0,0,0,3.7-4.2l2.473-11.328-.976-1.917a7.364,7.364,0,0,1-3.372-3.577c-.449-1.323-.37-2.26.236-2.785.306-.266,1-.62,2.218,0,.241.122.48.261.708.392l.14.081c-.008-.031-.017-.064-.027-.1a3.779,3.779,0,0,1,.185-3.105,3.351,3.351,0,0,1,2.389-1.427c.639-.117,1.254-.83,1.847-1.519.771-.895,1.645-1.909,2.881-1.909h0a3.789,3.789,0,0,1,2.73,1.633.731.731,0,0,1,.085.122c1.083,1.955,2.932,4.916,3.651,5.374a1.987,1.987,0,0,1,1,1.593,2.519,2.519,0,0,1-.591,1.676,49.6,49.6,0,0,1,1.611,6.372c.012,1.511-2.664,2.809-5.3,3.169l-.216,4.144a5.29,5.29,0,0,0,4.434,5.5l4.231.693a.731.731,0,0,1,.469,1.156l-8.846,11.917A.73.73,0,0,1,1419.534,357.729Zm-16.5-10.193,16.282,8.526,7.759-10.453-3.048-.5a6.749,6.749,0,0,1-5.656-7.021l.249-4.765a.73.73,0,0,1,.672-.69c2.54-.2,4.4-1.323,4.586-1.789a54.575,54.575,0,0,0-1.67-6.3.73.73,0,0,1,.224-.819,1.192,1.192,0,0,0,.432-.84c0-.067-.015-.246-.329-.447-1.26-.8-3.563-4.854-4.107-5.831-.613-.7-1.157-1.069-1.575-1.07h0c-.567,0-1.153.681-1.774,1.4a5.092,5.092,0,0,1-2.691,2,1.99,1.99,0,0,0-1.411.759,2.445,2.445,0,0,0-.024,1.931c.235.815.376,1.628-.186,2.067-.6.467-1.309.056-2.062-.379-.2-.118-.42-.243-.637-.353a1.338,1.338,0,0,0-.6-.184,2.191,2.191,0,0,0,.186,1.2,6.092,6.092,0,0,0,2.853,2.852.726.726,0,0,1,.332.326l1.2,2.356a.731.731,0,0,1,.063.487l-2.529,11.584a7.181,7.181,0,0,1-4.631,5.264Z" transform="translate(-1400.49 -314.081)"/>
        </g>
        <path id="Path_1570" data-name="Path 1570" d="M1432.626,351.525a4.733,4.733,0,0,1-4.179-2.676.73.73,0,0,1,1.323-.619,3.267,3.267,0,0,0,3.723,1.728.73.73,0,0,1,.338,1.421A5.193,5.193,0,0,1,1432.626,351.525Z" transform="translate(-1414.798 -331.386)"/>
      </g>
      <g id="Group_696" data-name="Group 696" transform="translate(0.963 71.869)">
        <g id="Group_694" data-name="Group 694">
          <path id="Rectangle_1335" data-name="Rectangle 1335" d="M3.635,0H50.086A3.634,3.634,0,0,1,53.72,3.634V38.29a3.634,3.634,0,0,1-3.634,3.634H3.635A3.635,3.635,0,0,1,0,38.29V3.635A3.635,3.635,0,0,1,3.635,0Z" transform="matrix(0.606, -0.795, 0.795, 0.606, 0.02, 42.742)" fill="#fff"/>
          <path id="Path_1571" data-name="Path 1571" d="M1345.631,509.921a2.481,2.481,0,0,1-1.512-.511l-30.527-23.271a2.5,2.5,0,0,1-.472-3.5l30.422-39.907a2.5,2.5,0,0,1,3.5-.472l30.526,23.271a2.5,2.5,0,0,1,.473,3.5l-30.422,39.907A2.5,2.5,0,0,1,1345.631,509.921Zm-.1-66.717a1.068,1.068,0,0,0-.141.01,1.034,1.034,0,0,0-.688.4l-30.422,39.907a1.039,1.039,0,0,0,.2,1.456L1345,508.248a1.04,1.04,0,0,0,1.457-.2l30.423-39.907a1.04,1.04,0,0,0-.2-1.456l-30.527-23.271A1.029,1.029,0,0,0,1345.532,443.2Z" transform="translate(-1312.607 -441.743)"/>
        </g>
        <rect id="Rectangle_1336" data-name="Rectangle 1336" width="47.503" height="31.55" transform="translate(6.415 42.91) rotate(-52.68)" fill="#99b9ff"/>
        <g id="Group_695" data-name="Group 695" transform="translate(38.257 4.394)">
          <path id="Path_1572" data-name="Path 1572" d="M1410.342,463.646,1396.6,453.172a2.163,2.163,0,0,0-3.031.409l-2.4,3.144,17.179,13.1,2.4-3.144A2.163,2.163,0,0,0,1410.342,463.646Z" transform="translate(-1391.175 -451.774)" fill="#fff"/>
          <path id="Path_1573" data-name="Path 1573" d="M1415.509,451.718a4.643,4.643,0,0,0-6.507.877l-2.814,3.692,7.384,5.629,2.815-3.692A4.642,4.642,0,0,0,1415.509,451.718Zm-2.444,3.205a.917.917,0,1,1,1.285-.174A.918.918,0,0,1,1413.065,454.923Z" transform="translate(-1398.877 -450.767)" fill="#fff"/>
        </g>
        <rect id="Rectangle_1337" data-name="Rectangle 1337" width="25.581" height="2.121" transform="matrix(0.795, 0.606, -0.606, 0.795, 33.354, 12.495)" fill="#fff"/>
        <rect id="Rectangle_1338" data-name="Rectangle 1338" width="25.581" height="2.121" transform="matrix(0.795, 0.606, -0.606, 0.795, 30.717, 15.954)" fill="#fff"/>
        <rect id="Rectangle_1339" data-name="Rectangle 1339" width="25.581" height="2.121" transform="translate(28.081 19.412) rotate(37.32)" fill="#fff"/>
      </g>
      <g id="Group_699" data-name="Group 699" transform="translate(0 43.572)">
        <g id="Group_698" data-name="Group 698" transform="translate(28.841 73.258)">
          <g id="Group_697" data-name="Group 697">
            <path id="Path_1574" data-name="Path 1574" d="M1371.359,541.606s9.486,8.077,14.462,6.057a8.173,8.173,0,0,0,1.777-.965,3.147,3.147,0,0,0-.821-5.476l-6.172-2.254s7.464-.016,6.292-2.394c-.6-1.223-1.226-1.068-2.891-.86-4.314.538-12.361,1.219-12.361,1.219Z" transform="translate(-1370.629 -534.846)" fill="#fff"/>
            <path id="Path_1575" data-name="Path 1575" d="M1383.276,547.945c-5.4,0-12.806-6.247-13.16-6.548a.73.73,0,0,1-.255-.6l.286-4.672a.729.729,0,0,1,.667-.683c.08-.007,8.082-.687,12.331-1.216l.264-.034c1.493-.19,2.572-.328,3.373,1.3a1.633,1.633,0,0,1-.038,1.631c-.538.866-2,1.322-3.483,1.56l3,1.094a3.9,3.9,0,0,1,2.521,3.117,3.777,3.777,0,0,1-1.519,3.633,8.97,8.97,0,0,1-1.934,1.053A5.42,5.42,0,0,1,1383.276,547.945Zm-11.935-7.428c2.772,2.287,9.823,7.171,13.436,5.7a7.5,7.5,0,0,0,1.62-.877,2.338,2.338,0,0,0,.937-2.249,2.406,2.406,0,0,0-1.576-1.952l-6.173-2.254a.73.73,0,0,1,.249-1.417c2.4-.006,5.256-.46,5.669-1.126.016-.027.042-.068-.031-.215-.327-.662-.4-.681-1.878-.492l-.268.034c-3.577.446-9.776,1-11.76,1.168Z" transform="translate(-1369.859 -534.08)"/>
          </g>
        </g>
        <path id="Path_1576" data-name="Path 1576" d="M1343.334,386.706a18.428,18.428,0,0,0-12.844,8.6c-7.5,12.272-21.08,36.978-17.883,50.334,4.365,18.238,28.806,20.956,28.806,20.956l1.516-8.367c-23.889-15.8,6.644-46.07,6.644-46.07l-4.534-25.725Z" transform="translate(-1311.398 -385.07)" fill="#5479f7"/>
        <path id="Path_1577" data-name="Path 1577" d="M1340.644,466.376a.659.659,0,0,1-.081,0c-.249-.028-25-2.989-29.435-21.512-3.214-13.431,9.88-37.646,17.971-50.885a19.133,19.133,0,0,1,13.295-8.934l4.2-1.375a.73.73,0,1,1,.455,1.388l-4.256,1.393a.816.816,0,0,1-.113.027,17.678,17.678,0,0,0-12.335,8.262c-6.419,10.5-21,36.38-17.8,49.783,3.793,15.846,23.579,19.694,27.5,20.3l1.305-7.207c-5.379-3.682-8.453-8.347-9.138-13.873-1.521-12.267,9.1-25.415,13.738-30.5a.73.73,0,1,1,1.079.984c-4.5,4.934-14.814,17.67-13.368,29.335.647,5.218,3.64,9.628,8.9,13.1a.73.73,0,0,1,.316.739l-1.516,8.367A.731.731,0,0,1,1340.644,466.376Z" transform="translate(-1310.63 -383.63)"/>
        <path id="Path_1578" data-name="Path 1578" d="M1383.392,412.64a.73.73,0,0,1-.718-.6l-2.641-14.982a.73.73,0,0,1,1.438-.254l2.641,14.982a.731.731,0,0,1-.593.846A.751.751,0,0,1,1383.392,412.64Z" transform="translate(-1346.233 -390.078)"/>
      </g>
    </g>
  </g>
</svg>
