<svg xmlns="http://www.w3.org/2000/svg" width="346.998" height="348.046" viewBox="0 0 346.998 348.046">
  <g id="Group_770" data-name="Group 770" transform="translate(-1100.179 -122.908)">
    <g id="Group_746" data-name="Group 746" transform="translate(1107.156 127.967)">
      <path id="Path_1601" data-name="Path 1601" d="M2736.4,475.768a.629.629,0,0,1-.494-.238A36.1,36.1,0,0,1,2733,471.3a.631.631,0,1,1,1.089-.638,34.9,34.9,0,0,0,2.806,4.085.631.631,0,0,1-.493,1.024Zm-5.083-8.686a.631.631,0,0,1-.585-.4,35.77,35.77,0,0,1-1.572-4.89.631.631,0,0,1,1.227-.3,34.479,34.479,0,0,0,1.516,4.717.632.632,0,0,1-.586.867Zm-2.393-9.777a.632.632,0,0,1-.627-.568,39.27,39.27,0,0,1-.2-3.927q0-.6.018-1.2a.631.631,0,1,1,1.261.037q-.016.583-.016,1.163c0,1.276.064,2.555.189,3.8a.631.631,0,0,1-.565.692C2728.964,457.3,2728.943,457.3,2728.921,457.3Zm.281-10.072a.663.663,0,0,1-.095-.007.632.632,0,0,1-.53-.718,46.881,46.881,0,0,1,1.044-5.01.631.631,0,0,1,1.22.324,45.374,45.374,0,0,0-1.015,4.875A.632.632,0,0,1,2729.2,447.232Zm2.574-9.748a.632.632,0,0,1-.591-.854c.591-1.566,1.273-3.144,2.029-4.689a.631.631,0,1,1,1.135.555c-.739,1.51-1.4,3.051-1.982,4.58A.632.632,0,0,1,2731.777,437.484Zm4.42-9.07a.631.631,0,0,1-.541-.958c.1-.169.2-.338.309-.507.774-1.259,1.6-2.525,2.468-3.762a.632.632,0,0,1,1.036.723c-.85,1.218-1.667,2.463-2.428,3.7q-.152.248-.3.5A.63.63,0,0,1,2736.2,428.414Zm5.769-8.28a.632.632,0,0,1-.494-1.024c1.03-1.3,2.131-2.608,3.271-3.891a.631.631,0,0,1,.944.839c-1.125,1.265-2.21,2.556-3.226,3.836A.629.629,0,0,1,2741.966,420.134Zm6.7-7.55a.631.631,0,0,1-.451-1.074c1.152-1.172,2.377-2.363,3.641-3.54a.631.631,0,1,1,.86.924c-1.251,1.165-2.462,2.343-3.6,3.5A.629.629,0,0,1,2748.665,412.584Zm7.385-6.891a.632.632,0,0,1-.414-1.109c1.231-1.062,2.541-2.155,3.893-3.25a.631.631,0,0,1,.794.982c-1.342,1.086-2.641,2.171-3.861,3.224A.629.629,0,0,1,2756.049,405.693Zm7.846-6.362a.631.631,0,0,1-.385-1.132c1.287-.987,2.612-1.982,4.049-3.041a.631.631,0,0,1,.749,1.017c-1.431,1.053-2.749,2.043-4.029,3.025A.628.628,0,0,1,2763.895,399.331Zm-71.87-5.919h-.012c-1.691-.031-3.4-.121-5.086-.268a.631.631,0,0,1,.11-1.258c1.654.145,3.336.233,5,.263a.631.631,0,0,1-.011,1.263Zm80-.077a.631.631,0,0,1-.367-1.145q2.057-1.472,4.126-2.921a.631.631,0,0,1,.726,1.033q-2.062,1.448-4.119,2.915A.628.628,0,0,1,2772.024,393.334Zm-74.951,0a.631.631,0,0,1-.032-1.262c1.659-.084,3.337-.227,4.989-.425a.631.631,0,1,1,.149,1.254c-1.679.2-3.387.346-5.074.432Zm-15.1-.8a.663.663,0,0,1-.1-.008q-.567-.089-1.137-.188c-1.295-.224-2.594-.484-3.862-.772a.631.631,0,0,1,.28-1.231c1.247.284,2.524.539,3.8.759q.562.1,1.119.184a.631.631,0,0,1-.1,1.255Zm25.125-.4a.631.631,0,0,1-.116-1.252c1.633-.309,3.278-.677,4.887-1.1a.631.631,0,1,1,.317,1.222c-1.637.426-3.309.8-4.97,1.114A.653.653,0,0,1,2707.1,392.133Zm-34.963-1.844a.618.618,0,0,1-.184-.028c-1.631-.495-3.252-1.053-4.817-1.657a.631.631,0,1,1,.455-1.178c1.537.594,3.128,1.141,4.729,1.628a.631.631,0,0,1-.183,1.236Zm44.735-.7a.631.631,0,0,1-.2-1.23c1.6-.534,3.177-1.124,4.69-1.753a.632.632,0,0,1,.485,1.166c-1.541.641-3.148,1.241-4.775,1.785A.638.638,0,0,1,2716.868,389.593Zm63.418-2.071a.631.631,0,0,1-.362-1.149q1.712-1.2,3.415-2.388l.726-.506a.631.631,0,1,1,.721,1.037l-.721.5q-1.7,1.194-3.417,2.389A.628.628,0,0,1,2780.286,387.522Zm-117.566-.872a.631.631,0,0,1-.271-.061c-1.535-.732-3.053-1.53-4.513-2.372a.631.631,0,1,1,.63-1.094c1.432.826,2.922,1.608,4.427,2.326a.631.631,0,0,1-.272,1.2Zm63.465-.949a.631.631,0,0,1-.29-1.192,28.752,28.752,0,0,0,4.218-2.544.631.631,0,1,1,.789.986,29.9,29.9,0,0,1-4.427,2.68A.628.628,0,0,1,2726.185,385.7Zm62.408-3.929a.632.632,0,0,1-.355-1.154l.939-.638q1.6-1.086,3.237-2.2a.632.632,0,0,1,.714,1.042q-1.636,1.12-3.242,2.206l-.939.637A.626.626,0,0,1,2788.593,381.772Zm-134.612-.168a.628.628,0,0,1-.358-.112c-1.406-.97-2.778-2-4.076-3.07a.631.631,0,1,1,.8-.976c1.272,1.045,2.615,2.056,3.992,3.007a.631.631,0,0,1-.359,1.151Zm142.94-5.559a.631.631,0,0,1-.365-1.147c1.481-1.05,2.813-2.019,4.071-2.964a.631.631,0,1,1,.758,1.009c-1.267.952-2.608,1.928-4.1,2.984A.627.627,0,0,1,2796.921,376.045Zm-150.731-.856a.631.631,0,0,1-.443-.181,47.786,47.786,0,0,1-3.46-3.774.631.631,0,0,1,.978-.8,46.5,46.5,0,0,0,3.369,3.674.631.631,0,0,1-.443,1.081Zm158.8-5.228a.631.631,0,0,1-.4-1.12c1.35-1.1,2.63-2.2,3.808-3.267a.631.631,0,1,1,.848.935c-1.193,1.083-2.491,2.2-3.858,3.31A.629.629,0,0,1,2804.989,369.961Zm-165.262-2.533a.629.629,0,0,1-.507-.255c-1-1.351-2-2.74-2.959-4.128a.631.631,0,1,1,1.038-.718c.952,1.376,1.939,2.753,2.935,4.094a.631.631,0,0,1-.507,1.008Zm172.717-4.269a.631.631,0,0,1-.455-1.069c1.193-1.244,2.3-2.5,3.3-3.747a.631.631,0,1,1,.984.79c-1.02,1.271-2.156,2.56-3.375,3.831A.629.629,0,0,1,2812.445,363.159Zm-178.469-4.048a.629.629,0,0,1-.531-.29c-.912-1.418-1.811-2.871-2.672-4.317a.631.631,0,0,1,1.085-.646c.853,1.434,1.745,2.874,2.648,4.28a.631.631,0,0,1-.531.973Zm184.751-3.84a.632.632,0,0,1-.533-.97,37.322,37.322,0,0,0,2.381-4.351.632.632,0,0,1,1.147.529,38.6,38.6,0,0,1-2.462,4.5A.63.63,0,0,1,2818.727,355.271Zm-189.917-4.848a.632.632,0,0,1-.554-.329c-.815-1.489-1.607-3-2.353-4.5a.631.631,0,1,1,1.129-.564c.74,1.482,1.524,2.982,2.332,4.457a.632.632,0,0,1-.554.935Zm194.1-4.3a.632.632,0,0,1-.608-.8q.1-.359.2-.72c.35-1.351.66-2.747.922-4.147a.631.631,0,0,1,1.241.232c-.267,1.429-.583,2.852-.941,4.232q-.1.376-.2.748A.632.632,0,0,1,2822.906,346.121Zm-198.6-4.743a.631.631,0,0,1-.576-.373c-.7-1.554-1.364-3.128-1.98-4.679a.631.631,0,1,1,1.174-.466c.609,1.534,1.268,3.091,1.958,4.628a.632.632,0,0,1-.575.89Zm200.472-5.176a.632.632,0,0,1-.629-.7c.18-1.634.3-3.314.371-4.992a.631.631,0,0,1,1.262.05c-.068,1.708-.2,3.417-.377,5.08A.632.632,0,0,1,2824.777,336.2Zm-204.195-4.217a.632.632,0,0,1-.6-.427c-.555-1.623-1.069-3.255-1.525-4.851a.632.632,0,0,1,1.215-.347c.449,1.576.956,3.187,1.5,4.789a.631.631,0,0,1-.393.8A.618.618,0,0,1,2620.582,331.986Zm204.6-5.869a.631.631,0,0,1-.631-.615c-.042-1.644-.136-3.328-.282-5a.631.631,0,1,1,1.258-.109c.147,1.7.244,3.411.286,5.081a.631.631,0,0,1-.615.647Zm-207.368-3.844a.632.632,0,0,1-.616-.493c-.376-1.673-.7-3.355-.965-5a.632.632,0,0,1,1.247-.2c.259,1.618.579,3.273.95,4.921a.632.632,0,0,1-.617.77Zm206.5-6.215a.632.632,0,0,1-.625-.541c-.235-1.633-.521-3.3-.85-4.947a.631.631,0,1,1,1.238-.247c.334,1.672.624,3.359.862,5.014a.631.631,0,0,1-.534.715A.667.667,0,0,1,2824.319,316.058ZM2616.224,312.3a.632.632,0,0,1-.628-.574c-.156-1.705-.25-3.417-.281-5.086a.631.631,0,0,1,1.263-.023c.029,1.638.122,3.318.276,4.993a.631.631,0,0,1-.572.686A.531.531,0,0,1,2616.224,312.3Zm206.123-6.156a.632.632,0,0,1-.612-.477c-.4-1.6-.859-3.228-1.351-4.837a.631.631,0,1,1,1.208-.369c.5,1.628.958,3.276,1.367,4.9a.631.631,0,0,1-.457.767A.643.643,0,0,1,2822.347,306.148Zm-206.293-3.932h-.039a.631.631,0,0,1-.592-.669c.1-1.7.28-3.41.524-5.075a.631.631,0,0,1,1.25.183c-.238,1.63-.411,3.3-.513,4.969A.631.631,0,0,1,2616.054,302.216Zm203.345-5.731a.631.631,0,0,1-.594-.419c-.561-1.567-1.165-3.146-1.8-4.69a.631.631,0,1,1,1.168-.479c.641,1.562,1.252,3.159,1.819,4.744a.631.631,0,0,1-.382.807A.624.624,0,0,1,2819.4,296.485Zm-201.878-4.249a.621.621,0,0,1-.146-.017.631.631,0,0,1-.468-.76c.292-1.227.628-2.461,1-3.667q.192-.623.4-1.241a.631.631,0,0,1,1.2.4q-.2.6-.391,1.214c-.364,1.179-.693,2.386-.978,3.586A.631.631,0,0,1,2617.521,292.236Zm198.051-5.1a.632.632,0,0,1-.574-.366c-.7-1.51-1.443-3.027-2.211-4.51a.631.631,0,1,1,1.122-.58c.777,1.5,1.529,3.033,2.236,4.56a.632.632,0,0,1-.573.9Zm-194.859-4.461a.632.632,0,0,1-.578-.883c.668-1.538,1.419-3.081,2.229-4.585a.631.631,0,1,1,1.111.6c-.794,1.474-1.528,2.984-2.183,4.49A.631.631,0,0,1,2620.713,282.676Zm190.212-4.505a.63.63,0,0,1-.548-.317c-.833-1.446-1.708-2.891-2.6-4.294a.631.631,0,1,1,1.064-.678c.905,1.418,1.79,2.879,2.632,4.342a.631.631,0,0,1-.546.946Zm-185.437-4.377a.632.632,0,0,1-.53-.974c.906-1.406,1.889-2.81,2.919-4.175a.632.632,0,0,1,1.008.761c-1.012,1.34-1.976,2.719-2.866,4.1A.63.63,0,0,1,2625.488,273.794Zm180.01-4.135a.631.631,0,0,1-.517-.268c-.966-1.373-1.972-2.731-2.988-4.036a.631.631,0,0,1,1-.776c1.028,1.321,2.045,2.695,3.024,4.084a.631.631,0,0,1-.516.995Zm-173.937-3.922a.631.631,0,0,1-.476-1.046c1.093-1.258,2.257-2.514,3.46-3.732a.632.632,0,0,1,.9.887c-1.185,1.2-2.33,2.434-3.406,3.672A.628.628,0,0,1,2631.56,265.737Zm167.731-4.046a.628.628,0,0,1-.478-.219c-1.1-1.277-2.236-2.526-3.375-3.714a.631.631,0,0,1,.911-.874c1.155,1.2,2.3,2.47,3.42,3.763a.632.632,0,0,1-.478,1.043Zm-160.642-3.139a.632.632,0,0,1-.422-1.1c1.242-1.116,2.547-2.223,3.878-3.29a.631.631,0,0,1,.79.985c-1.313,1.053-2.6,2.144-3.824,3.244A.628.628,0,0,1,2638.65,258.551Zm153.648-4.146a.629.629,0,0,1-.431-.169c-1.236-1.151-2.5-2.262-3.769-3.3a.631.631,0,1,1,.8-.975c1.285,1.056,2.573,2.184,3.829,3.353a.631.631,0,0,1-.43,1.094Zm-145.775-2.177a.631.631,0,0,1-.37-1.144c1.358-.977,2.77-1.942,4.2-2.866a.631.631,0,1,1,.687,1.059c-1.41.913-2.8,1.866-4.145,2.831A.633.633,0,0,1,2646.522,252.228ZM2784.5,248a.628.628,0,0,1-.369-.12c-1.344-.971-2.738-1.919-4.145-2.818a.631.631,0,1,1,.679-1.064c1.428.912,2.843,1.874,4.2,2.859a.631.631,0,0,1-.37,1.143Zm-129.5-1.265a.631.631,0,0,1-.318-1.177c1.447-.845,2.942-1.673,4.442-2.463a.631.631,0,0,1,.588,1.117c-1.484.78-2.962,1.6-4.393,2.436A.63.63,0,0,1,2654.995,246.733Zm121-4.172a.627.627,0,0,1-.309-.082c-1.443-.813-2.936-1.6-4.435-2.341a.632.632,0,0,1,.559-1.133c1.519.75,3.032,1.549,4.5,2.373a.632.632,0,0,1-.311,1.182Zm-112.06-.533a.631.631,0,0,1-.27-1.2c1.511-.715,3.07-1.414,4.633-2.078a.631.631,0,1,1,.493,1.163c-1.546.657-3.09,1.349-4.585,2.057A.631.631,0,0,1,2663.932,242.028Zm103.01-3.94a.629.629,0,0,1-.25-.051c-1.522-.655-3.089-1.282-4.659-1.865a.631.631,0,0,1,.44-1.184c1.59.59,3.177,1.226,4.718,1.889a.631.631,0,0,1-.249,1.211Zm-93.714-.009a.631.631,0,0,1-.224-1.222c1.567-.594,3.176-1.168,4.78-1.707a.631.631,0,1,1,.4,1.2c-1.589.534-3.182,1.1-4.735,1.69A.631.631,0,0,1,2673.228,238.079Zm9.576-3.216a.631.631,0,0,1-.178-1.237c1.611-.474,3.255-.926,4.886-1.341a.631.631,0,0,1,.311,1.224c-1.615.412-3.244.859-4.84,1.329A.642.642,0,0,1,2682.8,234.863Zm74.673-.293a.64.64,0,0,1-.191-.029c-1.579-.5-3.2-.972-4.821-1.4a.631.631,0,1,1,.324-1.22c1.639.435,3.281.912,4.878,1.419a.631.631,0,0,1-.191,1.233Zm-64.9-2.2a.632.632,0,0,1-.133-1.249c1.645-.356,3.318-.686,4.974-.982a.631.631,0,1,1,.221,1.243c-1.64.293-3.3.621-4.927.974A.646.646,0,0,1,2692.577,232.371Zm55.142-.4a.618.618,0,0,1-.135-.015c-1.618-.352-3.278-.675-4.931-.959a.631.631,0,0,1,.214-1.245c1.672.288,3.349.614,4.986.97a.631.631,0,0,1-.133,1.248Zm-45.208-1.381a.631.631,0,0,1-.088-1.256c1.668-.236,3.363-.444,5.034-.619a.631.631,0,1,1,.132,1.256c-1.657.173-3.336.38-4.989.614A.712.712,0,0,1,2702.511,230.594Zm35.254-.334a.664.664,0,0,1-.081-.005c-1.644-.212-3.326-.393-5-.538a.631.631,0,0,1,.109-1.258c1.688.147,3.386.33,5.048.543a.631.631,0,0,1-.08,1.258Zm-25.21-.716a.631.631,0,0,1-.042-1.261c1.685-.114,3.391-.2,5.07-.247a.631.631,0,0,1,.038,1.262c-1.663.05-3.353.133-5.023.245Zm15.147-.163h-.03c-1.661-.078-3.352-.125-5.025-.138a.631.631,0,0,1,.005-1.263h.005c1.689.013,3.4.06,5.073.139a.631.631,0,0,1-.029,1.262Z" transform="translate(-2544.403 -226.216)" fill="#fff"/>
      <g id="Group_743" data-name="Group 743" transform="translate(0 34.269)">
        <path id="Path_1602" data-name="Path 1602" d="M2447.468,409.083a.644.644,0,0,1-.075,0,.631.631,0,0,1-.552-.7,139.858,139.858,0,0,1,20.264-57.191,163.513,163.513,0,0,1,42.723-45.859.631.631,0,0,1,.747,1.018c-35.033,25.741-57.806,62.985-62.48,102.181A.631.631,0,0,1,2447.468,409.083Z" transform="translate(-2446.836 -305.205)"/>
        <path id="Path_1603" data-name="Path 1603" d="M2465.114,465.464a.631.631,0,0,1-.628-.572,124.523,124.523,0,0,1,9.044-59.766,142.948,142.948,0,0,1,35.033-50.034.632.632,0,0,1,.863.922c-31.528,29.5-47.45,69.144-43.684,108.758a.63.63,0,0,1-.569.688A.579.579,0,0,1,2465.114,465.464Z" transform="translate(-2456.73 -333.997)"/>
        <path id="Path_1604" data-name="Path 1604" d="M2585.495,342.664a.633.633,0,0,1-.4-.141l-4.417-3.583a.632.632,0,0,1,.215-1.095l5.531-1.67a.631.631,0,0,1,.805.708c-.443,2.652-1.118,5.28-1.125,5.307a.631.631,0,0,1-.414.442A.638.638,0,0,1,2585.495,342.664Zm-3.094-3.954,2.718,2.2c.185-.784.451-1.966.689-3.233Z" transform="translate(-2524.21 -323.124)"/>
      </g>
      <g id="Group_744" data-name="Group 744" transform="translate(279.065)">
        <path id="Path_1605" data-name="Path 1605" d="M3113.7,235.8a.622.622,0,0,1-.126-.013l-3.2-.647a.631.631,0,1,1,.251-1.237l3.2.647a.631.631,0,0,1-.125,1.25Z" transform="translate(-3109.864 -229.635)"/>
        <path id="Path_1606" data-name="Path 1606" d="M3131.409,239.378a.613.613,0,0,1-.126-.013l-3.2-.647a.631.631,0,1,1,.251-1.237l3.2.647a.631.631,0,0,1-.125,1.25Z" transform="translate(-3120.121 -231.709)"/>
        <path id="Path_1607" data-name="Path 1607" d="M3120.594,245.963a.643.643,0,0,1-.126-.013.632.632,0,0,1-.494-.744l.647-3.2a.632.632,0,0,1,1.238.25l-.647,3.2A.633.633,0,0,1,3120.594,245.963Z" transform="translate(-3115.711 -234.044)"/>
        <path id="Path_1608" data-name="Path 1608" d="M3124.177,228.25a.645.645,0,0,1-.126-.013.632.632,0,0,1-.494-.744l.647-3.2a.632.632,0,0,1,1.239.25l-.647,3.2A.633.633,0,0,1,3124.177,228.25Z" transform="translate(-3117.786 -223.787)"/>
      </g>
      <g id="Group_745" data-name="Group 745" transform="translate(308.235 167.616)">
        <path id="Path_1609" data-name="Path 1609" d="M3217.548,677.295h-.013a.631.631,0,0,1-.619-.644c.441-21.606-5.481-39.633-17.6-53.58a.631.631,0,0,1,.953-.828c12.331,14.191,18.357,32.505,17.91,54.434A.631.631,0,0,1,3217.548,677.295Z" transform="translate(-3190.747 -622.025)"/>
        <path id="Path_1610" data-name="Path 1610" d="M3199.5,676.876a.631.631,0,0,1-.631-.621c-.342-21.608-6.911-39.409-19.527-52.908a.631.631,0,0,1,.923-.862c12.836,13.735,19.521,31.819,19.867,53.75a.632.632,0,0,1-.622.641Z" transform="translate(-3179.17 -622.175)"/>
      </g>
    </g>
    <g id="Group_750" data-name="Group 750" transform="translate(1230.481 122.908)">
      <g id="Group_747" data-name="Group 747" transform="translate(71.564 44.937)">
        <path id="Path_1611" data-name="Path 1611" d="M2956.87,346.661a3.245,3.245,0,0,1-1.42-5.514,12.186,12.186,0,1,0-16.586,0,3.245,3.245,0,0,1-1.42,5.513h-26.069v24.665h.02v.6a3.247,3.247,0,0,0,5.617,2.221,12.186,12.186,0,1,1,0,16.586,3.247,3.247,0,0,0-5.617,2.221v.6h-.02v24.665h62.855a8.71,8.71,0,0,0,8.71-8.71V346.661Z" transform="translate(-2910.744 -319.402)" fill="#fff"/>
        <path id="Path_1612" data-name="Path 1612" d="M2973.361,417.988h-62.855a.631.631,0,0,1-.631-.631V392.691a.638.638,0,0,1,.02-.157v-.446a3.878,3.878,0,0,1,6.711-2.651,11.6,11.6,0,0,0,8.466,3.691,11.555,11.555,0,1,0-8.466-19.418,3.878,3.878,0,0,1-6.711-2.65v-.451a.6.6,0,0,1-.02-.152V345.792a.631.631,0,0,1,.631-.631h25.986a2.613,2.613,0,0,0,1.074-4.419,12.858,12.858,0,0,1-4.094-9.391,12.818,12.818,0,1,1,21.54,9.39,2.612,2.612,0,0,0,1.073,4.42h25.986a.631.631,0,0,1,.631.631v62.855A9.352,9.352,0,0,1,2973.361,417.988Zm-62.224-1.263h62.224a8.087,8.087,0,0,0,8.078-8.078V346.423H2956a.638.638,0,0,1-.155-.019,3.875,3.875,0,0,1-1.694-6.588,11.554,11.554,0,1,0-15.727,0,3.875,3.875,0,0,1-1.694,6.587.645.645,0,0,1-.156.019h-25.438V370.3a.6.6,0,0,1,.02.152v.6a2.616,2.616,0,0,0,4.523,1.791,12.817,12.817,0,1,1,0,17.446,2.616,2.616,0,0,0-4.523,1.791v.6a.644.644,0,0,1-.02.157Z" transform="translate(-2909.875 -318.533)" fill="#5479f7"/>
      </g>
      <g id="Group_748" data-name="Group 748" transform="translate(44.89)">
        <path id="Path_1613" data-name="Path 1613" d="M2937.529,213.268h-62.854v25.863a3.245,3.245,0,0,1-5.56,1.626,12.186,12.186,0,1,0,0,16.586,3.245,3.245,0,0,1,5.56,1.626v25.863h26.069a3.244,3.244,0,0,0,1.42-5.513,12.187,12.187,0,1,1,16.586,0,3.244,3.244,0,0,0,1.42,5.514h26.07V221.978A8.71,8.71,0,0,0,2937.529,213.268Z" transform="translate(-2847.368 -212.637)" fill="#fff"/>
        <path id="Path_1614" data-name="Path 1614" d="M2945.37,284.595H2919.3a.646.646,0,0,1-.156-.019,3.876,3.876,0,0,1-1.694-6.588,11.554,11.554,0,1,0-15.726,0,3.875,3.875,0,0,1-1.694,6.587.645.645,0,0,1-.156.019h-26.07a.631.631,0,0,1-.631-.631v-25.8a2.614,2.614,0,0,0-4.466-1.258,12.861,12.861,0,0,1-9.391,4.095,12.818,12.818,0,1,1,9.39-21.54,2.615,2.615,0,0,0,4.468-1.258V212.4a.631.631,0,0,1,.631-.631h62.854a9.351,9.351,0,0,1,9.341,9.341v62.855A.631.631,0,0,1,2945.37,284.595Zm-25.986-1.263h25.355V221.109a8.088,8.088,0,0,0-8.078-8.078h-62.223v25.231a.694.694,0,0,1-.01.115,3.878,3.878,0,0,1-6.645,1.941,11.555,11.555,0,1,0,0,15.726,3.877,3.877,0,0,1,6.644,1.942.7.7,0,0,1,.01.115v25.231h25.355a2.613,2.613,0,0,0,1.074-4.419,12.858,12.858,0,0,1-4.095-9.391,12.817,12.817,0,1,1,21.54,9.39,2.612,2.612,0,0,0,1.073,4.42Z" transform="translate(-2846.5 -211.768)" fill="#5479f7"/>
      </g>
      <g id="Group_749" data-name="Group 749">
        <path id="Path_1615" data-name="Path 1615" d="M2797.57,236.893a12.158,12.158,0,0,1,9.779,3.864,3.246,3.246,0,0,0,5.561-1.626V213.268h-62.855a8.709,8.709,0,0,0-8.709,8.71v62.855h24.665v.016h.6a3.247,3.247,0,0,1,2.221,5.617,12.187,12.187,0,1,0,16.586,0,3.247,3.247,0,0,1,2.221-5.618h.6v-.016h24.666V258.97a3.245,3.245,0,0,0-5.56-1.626,12.186,12.186,0,1,1-9.78-20.45Z" transform="translate(-2740.715 -212.637)" fill="#fff"/>
        <path id="Path_1616" data-name="Path 1616" d="M2776.253,311.342a12.819,12.819,0,0,1-12.811-12.817,12.86,12.86,0,0,1,4.094-9.391,2.615,2.615,0,0,0-1.791-4.523h-.6a.642.642,0,0,1-.141-.016h-24.525a.632.632,0,0,1-.632-.631V221.109a9.352,9.352,0,0,1,9.341-9.341h62.855a.632.632,0,0,1,.632.631v25.863a.669.669,0,0,1-.011.115,3.877,3.877,0,0,1-6.644,1.941,11.555,11.555,0,1,0,0,15.726,3.877,3.877,0,0,1,6.644,1.942.67.67,0,0,1,.011.115v25.863a.632.632,0,0,1-.632.631h-24.527a.623.623,0,0,1-.138.016h-.6a2.616,2.616,0,0,0-1.791,4.524,12.817,12.817,0,0,1-8.119,22.193Q2776.557,311.341,2776.253,311.342Zm-10.969-27.994h.461a3.878,3.878,0,0,1,2.651,6.711,11.593,11.593,0,0,0-3.691,8.465,11.555,11.555,0,1,0,19.417-8.465,3.879,3.879,0,0,1,2.652-6.711h.465a.621.621,0,0,1,.138-.016h24.033v-25.17a2.614,2.614,0,0,0-4.466-1.258,12.86,12.86,0,0,1-9.391,4.095,12.818,12.818,0,0,1-.894-25.6l.043.63-.043-.63a12.8,12.8,0,0,1,10.285,4.064,2.614,2.614,0,0,0,4.466-1.258v-25.17h-62.223a8.087,8.087,0,0,0-8.078,8.078v62.223h24.034A.645.645,0,0,1,2765.284,283.348Z" transform="translate(-2739.846 -211.768)" fill="#5479f7"/>
      </g>
    </g>
    <g id="Group_751" data-name="Group 751" transform="translate(1222.873 201.61)">
      <path id="Path_1617" data-name="Path 1617" d="M2821.569,435.463a12.185,12.185,0,0,0-21.1-7.718,3.247,3.247,0,0,1-5.617-2.221v-.6h-.02V400.256h-24.665v.016h-.6a3.247,3.247,0,0,0-2.221,5.617,12.186,12.186,0,1,1-16.586,0,3.247,3.247,0,0,0-2.221-5.617h-.6v-.016h-24.665v62.855a8.709,8.709,0,0,0,8.71,8.71h62.854V447.155h.02v-.6a3.247,3.247,0,0,1,5.617-2.221,12.186,12.186,0,0,0,21.1-8.868Z" transform="translate(-2722.636 -399.625)" fill="#5479f7"/>
      <path id="Path_1618" data-name="Path 1618" d="M2793.963,471.583h-62.855a9.351,9.351,0,0,1-9.34-9.341V399.387a.631.631,0,0,1,.631-.631h24.665a.645.645,0,0,1,.14.016h.462a3.878,3.878,0,0,1,2.651,6.711,11.594,11.594,0,0,0-3.691,8.465,11.555,11.555,0,1,0,19.418-8.465,3.879,3.879,0,0,1,2.651-6.712h.466a.621.621,0,0,1,.137-.016h24.666a.631.631,0,0,1,.631.631V423.9a.6.6,0,0,1,.02.152v.6a2.616,2.616,0,0,0,4.524,1.791,12.817,12.817,0,1,1,0,17.446,2.616,2.616,0,0,0-4.524,1.792v.6a.638.638,0,0,1-.02.157v24.508A.631.631,0,0,1,2793.963,471.583Zm-70.933-71.564v62.223a8.088,8.088,0,0,0,8.078,8.078h62.223V446.287a.656.656,0,0,1,.02-.157v-.445a3.878,3.878,0,0,1,6.711-2.651,11.6,11.6,0,0,0,8.466,3.691,11.555,11.555,0,1,0-8.465-19.418,3.878,3.878,0,0,1-6.711-2.651v-.45a.615.615,0,0,1-.02-.152V400.019h-23.9a.586.586,0,0,1-.137.016h-.6a2.616,2.616,0,0,0-1.791,4.524,12.817,12.817,0,1,1-17.446,0,2.616,2.616,0,0,0-1.792-4.523h-.6a.618.618,0,0,1-.14-.016Z" transform="translate(-2721.768 -398.756)"/>
    </g>
    <g id="Group_764" data-name="Group 764" transform="translate(1100.179 265.124)">
      <g id="Group_757" data-name="Group 757" transform="translate(0 0)">
        <path id="Path_1619" data-name="Path 1619" d="M2501.451,566.511c5.32-3.513,14.2-1.62,17.614,7.2,2.791,7.208-3.453,12.772-5.035,18.088-5.116,17.2,11.437,53.9.192,72.638-8.972,14.951-33.924,25.977-55.445,16.654-20.463-8.865-34.375-30.2-26.074-47.669,7.462-15.7,21.561-8.276,30.122-23.753,8.441-15.258.692-22.441,6.866-30.08C2478.134,569.146,2486.374,576.467,2501.451,566.511Z" transform="translate(-2430.262 -549.249)"/>
        <g id="Group_753" data-name="Group 753" transform="translate(26.818)">
          <g id="Group_752" data-name="Group 752" transform="translate(132.554)">
            <path id="Path_1620" data-name="Path 1620" d="M2814.354,530.987l-3.386,10.846a11.083,11.083,0,0,0,1.505,9.933l3.8,5.447a5.471,5.471,0,0,1,.823,3.093c.047,2.462-.324,6.217-.324,6.217l9.044.148s-.993-4.768-1.45-6.406a9.283,9.283,0,0,1,.313-6.361c2.905-6.281,2.112-6.5,2.112-6.5l-6.252-4.431s-1.917-3.261-1.555-8.955a8.335,8.335,0,0,0-.339-3.263A2.247,2.247,0,0,0,2814.354,530.987Z" transform="translate(-2809.777 -528.654)" fill="#fff"/>
            <path id="Path_1621" data-name="Path 1621" d="M2824.947,566.435h-.01l-9.044-.148a.631.631,0,0,1-.618-.693c0-.037.366-3.749.321-6.144a4.816,4.816,0,0,0-.71-2.744l-3.8-5.448a11.742,11.742,0,0,1-1.587-10.493l3.378-10.82a2.85,2.85,0,0,1,2.692-2.157,2.78,2.78,0,0,1,2.8,1.891,9.024,9.024,0,0,1,.373,3.51,16.7,16.7,0,0,0,1.41,8.485l6.106,4.328a.77.77,0,0,1,.291.335c.144.312.526,1.14-2.169,6.966a8.654,8.654,0,0,0-.278,5.926c.457,1.639,1.419,6.251,1.46,6.447a.632.632,0,0,1-.618.76Zm-8.354-1.4,7.572.124c-.3-1.416-.941-4.389-1.277-5.592a9.913,9.913,0,0,1,.348-6.8c1.908-4.124,2.139-5.466,2.154-5.839l-6.086-4.313a.631.631,0,0,1-.179-.195c-.083-.14-2.011-3.5-1.642-9.315a7.8,7.8,0,0,0-.3-3.016,1.528,1.528,0,0,0-1.553-1.044,1.616,1.616,0,0,0-1.527,1.225c0,.011-.006.021-.009.031l-3.386,10.846a10.49,10.49,0,0,0,1.416,9.378l3.8,5.454a6.158,6.158,0,0,1,.937,3.442C2816.894,561.289,2816.7,563.831,2816.594,565.036Zm9.158-17.893h0Zm0,0h0Zm-.072-.025a.583.583,0,0,0,.072.025A.508.508,0,0,1,2825.678,547.118Zm-12.189-17h0Z" transform="translate(-2808.912 -527.786)"/>
          </g>
          <path id="Path_1622" data-name="Path 1622" d="M2676.65,644.928c7.9.875,31.706,11.4,45.583-2.853s14.563-33.189,14.563-33.189l13.578-1.172a70.31,70.31,0,0,1-.354,48.106c-9.9,26.427-57.585,35.72-57.585,35.72Z" transform="translate(-2599.765 -574.072)" fill="#6487ff"/>
          <path id="Path_1623" data-name="Path 1623" d="M2587.614,699.2c-16.062-9.069-44.873-8.217-59.215-2.009-25.44,11.011-40.284,97.97-32.218,116.684,7.366,17.09,70.516,20.538,88.095,5.845,7.489-6.26,5.127-43.458,3.857-58.323q-.579-6.778-.569-13.583Z" transform="translate(-2493.978 -623.147)" fill="#6487ff"/>
        </g>
        <g id="Group_754" data-name="Group 754" transform="translate(60.618 30.906)">
          <path id="Path_1624" data-name="Path 1624" d="M2580.015,618.847a.9.9,0,0,0,.936-1c-.284-2.634-1.126-7.575,1.394-9.792,3.231-2.841,8.61-7.164,10.695-4.52,1.828,2.317,3.675,7.021,8.088,8.771.423.167.465.779.276,1.192l-.924,2.344a3.418,3.418,0,0,0,.173,2.014c.612,1.462,2.027,4.511,1.753,5.151-.535,1.247-5.356,3.475-5.356,3.475l3.189,14.9c.122.565.5,1.5,1.055,1.364l5.887.437s-.367,8.077-12.886,10.307c-16.362,2.914-18.512-8.061-18.512-8.061s15.995-.253,9.03-17.693a1.169,1.169,0,0,0-.907-.718c-1.556-.236-5.858-1.083-6.675-3.853C2576.363,620.231,2578.118,618.766,2580.015,618.847Z" transform="translate(-2575.152 -602.084)" fill="#fff"/>
          <path id="Path_1625" data-name="Path 1625" d="M2588.279,653.748c-12.052,0-13.963-8.956-13.983-9.058a.631.631,0,0,1,.609-.753c.06,0,6.065-.155,8.8-4.263,1.938-2.917,1.823-7.144-.342-12.565a.534.534,0,0,0-.415-.328c-2.313-.351-6.323-1.376-7.185-4.3a4.079,4.079,0,0,1,.461-3.86,3.468,3.468,0,0,1,2.956-1.274.277.277,0,0,0,.211-.083.267.267,0,0,0,.07-.215c-.024-.226-.053-.47-.083-.727-.344-2.932-.863-7.363,1.688-9.607,2.814-2.476,6.879-5.737,9.648-5.487a2.717,2.717,0,0,1,1.96,1.05,25.549,25.549,0,0,1,1.457,2.164c1.449,2.306,3.252,5.176,6.367,6.411a1.2,1.2,0,0,1,.672.683,1.781,1.781,0,0,1-.054,1.358l-.911,2.314a3,3,0,0,0,.167,1.539c.095.225.207.487.331.773,1.24,2.877,1.712,4.19,1.421,4.871-.524,1.221-3.7,2.861-5.214,3.584l3.085,14.412a2.09,2.09,0,0,0,.372.868.657.657,0,0,1,.112,0l5.887.437a.631.631,0,0,1,.584.658c-.015.35-.536,8.608-13.406,10.9A30.04,30.04,0,0,1,2588.279,653.748Zm-12.545-8.6c.784,2.3,4.288,9.228,17.583,6.861,9.977-1.777,11.91-7.251,12.28-9.105l-5.137-.381a1.09,1.09,0,0,1-.733-.164,2.839,2.839,0,0,1-.973-1.7l-3.189-14.9a.632.632,0,0,1,.353-.706c2.177-1.006,4.686-2.47,5.025-3.119a19.511,19.511,0,0,0-1.405-3.9c-.125-.291-.24-.557-.335-.785a3.957,3.957,0,0,1-.164-2.52l.911-2.314a.59.59,0,0,0,.048-.385c-3.48-1.393-5.4-4.446-6.94-6.9-.485-.771-.943-1.5-1.38-2.054a1.461,1.461,0,0,0-1.083-.574c-2.549-.234-7.177,3.839-8.7,5.177-2.054,1.806-1.581,5.841-1.268,8.511.031.261.059.509.084.739a1.527,1.527,0,0,1-1.59,1.7h0a2.249,2.249,0,0,0-1.906.79,2.969,2.969,0,0,0-.246,2.725c.689,2.335,4.541,3.161,6.165,3.407a1.8,1.8,0,0,1,1.4,1.109c2.33,5.833,2.4,10.455.216,13.739C2582.255,644.12,2577.609,644.958,2575.733,645.145Zm25.206-23.2Z" transform="translate(-2574.284 -601.216)"/>
        </g>
        <g id="Group_756" data-name="Group 756" transform="translate(42.624 116.182)">
          <g id="Group_755" data-name="Group 755" transform="translate(83.641 50.67)">
            <path id="Path_1626" data-name="Path 1626" d="M2734.369,927.811s9.582-3.4,16.225-1.53c0,0,.992,4.15,3.863,6s9.889,2.7,11.229,6.695-12.7,7.831-17.719,5.806-9.54-7.065-14.3-6.825S2734.369,927.811,2734.369,927.811Z" transform="translate(-2731.104 -925.083)" fill="#fff"/>
            <path id="Path_1627" data-name="Path 1627" d="M2750.809,945.089a10.868,10.868,0,0,1-3.929-.6,33.632,33.632,0,0,1-5.66-3.222c-2.894-1.9-5.634-3.694-8.369-3.558a2.25,2.25,0,0,1-2.176-.976c-1.611-2.52,1.88-9.325,2.283-10.092a.629.629,0,0,1,.348-.3c.4-.141,9.848-3.447,16.608-1.543a.634.634,0,0,1,.443.46c.009.039.973,3.929,3.59,5.615a19.973,19.973,0,0,0,3.644,1.565c3.206,1.161,6.84,2.476,7.843,5.46a2.8,2.8,0,0,1-1.058,3.035C2761.818,943.343,2755.522,945.089,2750.809,945.089Zm-17.651-8.648c3.012,0,5.8,1.835,8.755,3.774a32.816,32.816,0,0,0,5.44,3.106c3.641,1.469,13.153-.476,16.157-3.306.656-.618.9-1.2.727-1.714-.809-2.406-4.138-3.611-7.076-4.674a20.718,20.718,0,0,1-3.9-1.691c-2.562-1.65-3.707-4.909-4.033-6.013-5.791-1.447-13.809,1.047-15.269,1.529-1.376,2.685-3.115,7.2-2.221,8.6.119.186.35.43,1.048.395C2732.911,936.444,2733.035,936.441,2733.158,936.441Z" transform="translate(-2730.254 -924.209)"/>
          </g>
          <path id="Path_1628" data-name="Path 1628" d="M2552.761,805.323l11.167,25.787a20.156,20.156,0,0,0,12.339,11.183l42.84,13.744-1,14.882s-56.278-5.282-66.011-12.459c-9.11-6.717-20.56-37.714-20.56-37.714Z" transform="translate(-2531.532 -804.692)" fill="#6487ff"/>
          <path id="Path_1629" data-name="Path 1629" d="M2647.446,855.8a.643.643,0,0,1-.193-.03l-42.839-13.744a20.789,20.789,0,0,1-12.726-11.533l-11.167-25.788a.632.632,0,0,1,1.159-.5l11.167,25.787a19.524,19.524,0,0,0,11.952,10.833l42.839,13.744a.632.632,0,0,1-.193,1.233Z" transform="translate(-2559.871 -803.823)"/>
          <path id="Path_1630" data-name="Path 1630" d="M2618.814,923.608a.653.653,0,0,1-.075,0c-16.9-1.993-46.29-6.093-53.156-11.156-2.885-2.127-6.26-6.786-10.033-13.848a.632.632,0,0,1,1.114-.6c3.684,6.9,6.937,11.413,9.668,13.427,6.632,4.89,35.775,8.94,52.555,10.919a.631.631,0,0,1-.073,1.258Z" transform="translate(-2545.397 -858.171)"/>
        </g>
      </g>
      <g id="Group_758" data-name="Group 758" transform="translate(133.651 104.571)">
        <path id="Path_1631" data-name="Path 1631" d="M2853.467,785.13c-1.65-6.905-21.073-9.183-23.229-5.939-5,7.533-13.594,26.424-18.185,36.819a23.166,23.166,0,0,1-10.032,10.94L2776.1,841.2c-1.379-.354-14.066-3.592-15.331-3.326-1.339.281-2.921,2.781-6.244,4.657s-5.828,3-5.043,4.455c.7,1.294,6.93.79,11.316-1.14a2.264,2.264,0,0,1,2.574.559c1.566,1.721,8.445,4.78,14.621,4.751l41.552-6.818a15.153,15.153,0,0,0,10.441-6.985C2837.922,824.514,2855.675,794.375,2853.467,785.13Z" transform="translate(-2748.692 -777.105)" fill="#fff"/>
        <path id="Path_1632" data-name="Path 1632" d="M2777.021,850.919c-6.092,0-13.178-2.951-15-4.958a1.622,1.622,0,0,0-1.853-.407c-3.925,1.727-11.068,2.823-12.126.862-.986-1.826,1.263-3.071,4.111-4.647.377-.209.771-.427,1.178-.656a20.694,20.694,0,0,0,3.9-2.983,6.312,6.312,0,0,1,2.522-1.743c1.272-.266,10.987,2.147,15.376,3.27l25.7-14.13a22.668,22.668,0,0,0,9.759-10.642c4.657-10.544,13.219-29.36,18.237-36.913,1.357-2.043,7.143-2.055,11.944-1.2,2.614.465,11.237,2.368,12.424,7.342,2.187,9.154-13.82,36.949-23.555,52.7a15.783,15.783,0,0,1-10.876,7.276l-41.552,6.818A1.1,1.1,0,0,1,2777.021,850.919Zm.083-.632h0Zm-16.3-6.13a2.9,2.9,0,0,1,2.147.955c1.427,1.569,8,4.545,14.065,4.545h.036l41.5-6.811a14.519,14.519,0,0,0,10.007-6.693c7.755-12.549,25.56-42.712,23.4-51.746-.8-3.359-6.424-5.5-11.417-6.393-5.475-.974-9.938-.447-10.672.657-4.966,7.474-13.493,26.217-18.134,36.724a23.94,23.94,0,0,1-10.305,11.239l-25.918,14.251a.631.631,0,0,1-.461.058c-6.812-1.747-14.168-3.444-15.051-3.318a6.146,6.146,0,0,0-1.922,1.437,21.765,21.765,0,0,1-4.135,3.151c-.409.231-.806.451-1.187.661-2.148,1.189-4,2.216-3.612,2.943.484.682,5.905.607,10.506-1.418A2.847,2.847,0,0,1,2760.805,844.157Z" transform="translate(-2747.803 -776.236)"/>
      </g>
      <g id="Group_763" data-name="Group 763" transform="translate(207.709 16.39)">
        <g id="Group_760" data-name="Group 760" transform="translate(0 53.622)">
          <path id="Path_1633" data-name="Path 1633" d="M3052.515,754.723s-8.68-43.13-33.448-53.385-63.382-4.568-72.117,1.617-21.694,35.188-21.694,35.188l19.044,25.221s-2.136,35.956.71,59.214a9.163,9.163,0,0,0,9.149,8.273c6.19-.172,14.806-.5,20.877-1.095,11.385-1.112,35.26-.561,54.106-.284,4.249.063,7.421-3.539,7.051-8.005l-5.484-66.182Z" transform="translate(-2924.625 -695.036)" fill="#5479f7"/>
          <path id="Path_1634" data-name="Path 1634" d="M2944.14,822.3a.632.632,0,0,1-.626-.555c-2.7-22.073-.9-55.952-.727-59.095l-18.9-25.036a.63.63,0,0,1-.073-.638c.531-1.191,13.13-29.232,21.905-35.446,8.451-5.984,47.079-12.3,72.723-1.686,12.988,5.377,21.5,19.754,26.349,30.868a128.081,128.081,0,0,1,7.477,22.975.632.632,0,0,1-.6.755l-21.139.544,5.026,60.656a.631.631,0,1,1-1.259.1l-5.081-61.322a.633.633,0,0,1,.613-.684l21.044-.542c-1.293-5.717-10.5-42.913-32.911-52.19-14.62-6.053-32.455-5.924-41.787-5.309-13.009.858-25.232,3.678-29.723,6.858-7.992,5.659-19.846,31.331-21.329,34.591l18.817,24.922a.629.629,0,0,1,.127.418c-.021.359-2.1,36.165.707,59.1a.632.632,0,0,1-.55.7A.686.686,0,0,1,2944.14,822.3Z" transform="translate(-2923.757 -694.128)"/>
          <path id="Path_1635" data-name="Path 1635" d="M2954.016,846.9l47.071-2.374-17.395-51.835-47.07,2.374Z" transform="translate(-2931.207 -751.207)"/>
          <g id="Group_759" data-name="Group 759" transform="translate(24.879 49.71)">
            <path id="Path_1636" data-name="Path 1636" d="M3082.948,823.182l-24.359-9.447s5.391,40.195-43.747,23.985a34.371,34.371,0,0,0,.959-11.323c-.556-6.046-3.885,0-4.145,4.949s-11.675,3.522-18.573,1.924-15.76.123.4,8,19.414,3.839,19.414,3.839,21.5,27.089,46.186,19.859C3089.451,856.08,3082.948,823.182,3082.948,823.182Z" transform="translate(-2983.733 -813.103)" fill="#fff"/>
            <path id="Path_1637" data-name="Path 1637" d="M3049.731,865.944c-7.834,0-16.065-2.881-24.222-8.539a73.927,73.927,0,0,1-13.566-12.279c-1.53.949-6.388,2.29-19.6-4.152-7.005-3.416-10.074-6.025-9.382-7.976.808-2.281,6.193-1.953,9.4-1.211,6.1,1.412,14.185,2.333,16.909.282a2.078,2.078,0,0,0,.89-1.624c.169-3.228,1.784-8.043,3.668-8.08h.026c1.425,0,1.64,2.336,1.711,3.107a35.124,35.124,0,0,1-.828,10.965c16.067,5.2,27.833,4.837,34.976-1.092,9.241-7.67,7.4-22.248,7.385-22.394a.631.631,0,0,1,.854-.673l24.359,9.448a.63.63,0,0,1,.391.466,46.577,46.577,0,0,1-.548,17.826c-2.018,8.682-7.777,20.014-23.755,24.693A30.716,30.716,0,0,1,3049.731,865.944Zm-37.7-22.322h.02a.639.639,0,0,1,.479.231,71.358,71.358,0,0,0,13.727,12.533c7.6,5.266,19.286,10.774,31.787,7.113,12.358-3.619,20.056-11.616,22.88-23.767a46.513,46.513,0,0,0,.6-16.958l-23.07-8.947c.274,3.6.469,15.517-7.933,22.49-7.583,6.294-19.944,6.676-36.74,1.136a.631.631,0,0,1-.409-.774,34.064,34.064,0,0,0,.938-11.091,3.738,3.738,0,0,0-.486-1.947c-.626.258-2.217,3.371-2.4,6.871a3.314,3.314,0,0,1-1.392,2.567c-3.861,2.908-14.719.689-17.954-.061-3.982-.923-7.589-.534-7.922.4-.066.188-.388,1.966,8.745,6.419,15.258,7.44,18.626,4.03,18.658,4A.655.655,0,0,1,3012.028,843.622Z" transform="translate(-2982.865 -812.234)"/>
          </g>
        </g>
        <g id="Group_762" data-name="Group 762" transform="translate(34.659)">
          <path id="Path_1638" data-name="Path 1638" d="M3028.15,607.971c2.153,1.78,6.291,3.878,9.36,2.134,2.285-1.3,3.44-4.424,3.182-7.923a4.7,4.7,0,0,0,3.479-1.063c1.493-1.461,1.073-3.988.927-5.656-.671-7.7,3.749-9.106,2.389-14.283a12.45,12.45,0,0,0-5.05-6.784c-3.167-2.16-5.195-1.309-10.389-2.394-8.742-1.825-9.2-5.53-14.89-5.26-.329.016-8.061.491-10.417,5.968-1.916,4.455.845,9.612,3.564,12.258,3.521,3.426,5.829,1.529,9.332,4.375C3025.787,594.337,3021.754,602.682,3028.15,607.971Z" transform="translate(-3006.104 -566.728)"/>
          <g id="Group_761" data-name="Group 761" transform="translate(3.101 12.311)">
            <path id="Path_1639" data-name="Path 1639" d="M3015.371,612.886l.325-.31c1.632-1.558,3.324-3.356,3.666-5.586,1.453-9.483,9.88-13.324,10.71-4.725.21,2.17,8.147,1.657,7.319,3.987-2.157,6.076-2.292,4.477,1.287,6.5a3.008,3.008,0,0,1,1.165.216c1.82.739,2.572,3.122,1.678,5.322a4.609,4.609,0,0,1-2.7,2.671l.475,9.4a8.69,8.69,0,0,0,5.8,7.762l3.241,1.138s-14.319,10.41-29.881.558l1.96-1a10.131,10.131,0,0,0,5.523-9.216l-.076-1.839a7.868,7.868,0,0,1-2.905-.1c-4.266-1.011-5.905-5.784-5.494-11.84l-1.757-.833A1.294,1.294,0,0,1,3015.371,612.886Z" transform="translate(-3014.339 -596.845)" fill="#fff"/>
            <path id="Path_1640" data-name="Path 1640" d="M3031.709,643.787a26.631,26.631,0,0,1-14.455-4.306.632.632,0,0,1,.051-1.1l1.96-1a9.558,9.558,0,0,0,5.179-8.641l-.048-1.153a8.133,8.133,0,0,1-2.448-.179c-4.181-.991-6.357-5.379-6-12.067l-1.372-.65a1.926,1.926,0,0,1-.5-3.133l.325-.31c1.518-1.448,3.163-3.164,3.479-5.225.967-6.315,4.862-10.119,7.914-10.048,1.064.03,3.59.612,4.049,5.357.056.585,2.1,1.047,3.314,1.323,1.805.409,3.364.762,3.894,1.723a1.449,1.449,0,0,1,.077,1.214c-.314.885-.585,1.608-.81,2.2a8.439,8.439,0,0,0-.68,2.2c.016.1.457.312.884.513.393.185.875.412,1.466.74a3.6,3.6,0,0,1,1.234.26c2.139.869,3.047,3.625,2.024,6.144a5.3,5.3,0,0,1-2.627,2.851l.452,8.954a8.03,8.03,0,0,0,5.378,7.2l3.241,1.138a.631.631,0,0,1,.162,1.106A30.216,30.216,0,0,1,3031.709,643.787ZM3018.887,639c12.281,7.131,23.691,1.6,27.15-.44l-2.015-.708a9.287,9.287,0,0,1-6.221-8.325l-.474-9.4a.631.631,0,0,1,.427-.629,4,4,0,0,0,2.314-2.311c.761-1.874.164-3.892-1.331-4.5a2.518,2.518,0,0,0-.921-.17h-.006a.633.633,0,0,1-.311-.081c-.617-.348-1.121-.586-1.526-.776-2.091-.986-1.877-1.556-.847-4.3.221-.59.49-1.306.8-2.182.041-.117.019-.157.006-.181-.256-.464-1.88-.832-3.066-1.1-2.134-.484-4.148-.94-4.292-2.433-.255-2.637-1.285-4.173-2.828-4.216-2.523-.059-5.794,3.52-6.631,8.977-.376,2.454-2.187,4.357-3.855,5.948l-.324.31h0a.662.662,0,0,0,.174,1.078l1.758.833a.632.632,0,0,1,.359.613c-.424,6.252,1.4,10.328,5.01,11.184a7.256,7.256,0,0,0,2.672.085.631.631,0,0,1,.719.6l.076,1.839a10.832,10.832,0,0,1-5.867,9.8Zm-4.384-26.978h0Z" transform="translate(-3013.471 -595.977)"/>
          </g>
          <path id="Path_1641" data-name="Path 1641" d="M3039.99,661.114a.631.631,0,0,1-.125-1.25,11.843,11.843,0,0,0,7.742-5.542.631.631,0,0,1,1.125.575,12.9,12.9,0,0,1-8.613,6.2A.63.63,0,0,1,3039.99,661.114Z" transform="translate(-3025.363 -617.255)"/>
        </g>
      </g>
    </g>
    <g id="Group_765" data-name="Group 765" transform="translate(1150.224 210.317)">
      <path id="Path_1642" data-name="Path 1642" d="M2564.582,421.508l-3.684,2.2,1.457,4.454a17.8,17.8,0,0,0-2.087,2.14l-4.488-1.326-2.091,3.746,3.489,3.129a18.054,18.054,0,0,0-.731,2.894l-4.557,1.1.062,4.29,4.58.964a17.8,17.8,0,0,0,.82,2.875l-3.4,3.228,2.2,3.685,4.454-1.457a17.756,17.756,0,0,0,2.141,2.087L2561.421,460l3.746,2.091,3.13-3.489a18.031,18.031,0,0,0,2.894.731l1.1,4.557,4.29-.062.964-4.58a17.763,17.763,0,0,0,2.874-.82l3.228,3.4,3.685-2.2-1.457-4.454a17.842,17.842,0,0,0,2.087-2.14l4.488,1.326,2.092-3.746-3.49-3.129a18.043,18.043,0,0,0,.731-2.895l4.557-1.1-.062-4.29-4.58-.964a17.8,17.8,0,0,0-.82-2.875l3.4-3.228-2.2-3.685-4.454,1.457a17.769,17.769,0,0,0-2.141-2.087l1.327-4.489-3.747-2.091-3.129,3.489a18.039,18.039,0,0,0-2.9-.731l-1.1-4.557-4.29.062-.964,4.58a17.746,17.746,0,0,0-2.874.82Zm19.016,14.5a11.045,11.045,0,1,1-15.144-3.825A11.045,11.045,0,0,1,2583.6,436.007Z" transform="translate(-2550.741 -419.443)" fill="#99b9ff"/>
      <path id="Path_1643" data-name="Path 1643" d="M2570.192,468.517a.631.631,0,0,1-.614-.484l-1-4.155a18.773,18.773,0,0,1-2.184-.552l-2.853,3.182a.631.631,0,0,1-.778.13l-3.747-2.091a.631.631,0,0,1-.3-.73l1.209-4.092a18.521,18.521,0,0,1-1.615-1.575l-4.061,1.328a.631.631,0,0,1-.739-.277l-2.2-3.685a.631.631,0,0,1,.107-.781l3.1-2.942a18.429,18.429,0,0,1-.62-2.17l-4.176-.879a.63.63,0,0,1-.5-.609l-.062-4.29a.631.631,0,0,1,.484-.623l4.155-1a18.767,18.767,0,0,1,.551-2.183l-3.182-2.854a.631.631,0,0,1-.129-.778l2.091-3.746a.632.632,0,0,1,.73-.3l4.093,1.209a18.472,18.472,0,0,1,1.575-1.615l-1.328-4.06a.63.63,0,0,1,.276-.738l3.685-2.2a.63.63,0,0,1,.781.107l2.943,3.1a18.5,18.5,0,0,1,2.17-.62l.879-4.176a.632.632,0,0,1,.609-.5l4.29-.062a.631.631,0,0,1,.623.484l1,4.155a18.641,18.641,0,0,1,2.183.551l2.854-3.182a.631.631,0,0,1,.778-.13l3.747,2.091a.631.631,0,0,1,.3.73l-1.209,4.092a18.489,18.489,0,0,1,1.615,1.575l4.06-1.328a.631.631,0,0,1,.739.277l2.2,3.684a.631.631,0,0,1-.107.781l-3.1,2.943a18.507,18.507,0,0,1,.62,2.169l4.176.879a.632.632,0,0,1,.5.609l.063,4.29a.632.632,0,0,1-.484.623l-4.156,1a18.737,18.737,0,0,1-.551,2.184l3.182,2.854a.631.631,0,0,1,.13.778l-2.092,3.746a.632.632,0,0,1-.73.3l-4.093-1.209a18.375,18.375,0,0,1-1.575,1.614l1.328,4.061a.631.631,0,0,1-.276.738l-3.685,2.2a.631.631,0,0,1-.781-.107l-2.943-3.1a18.56,18.56,0,0,1-2.169.62l-.879,4.176a.631.631,0,0,1-.609.5l-4.29.062Zm-3.992-6.551a.633.633,0,0,1,.2.034,17.522,17.522,0,0,0,2.794.706.63.63,0,0,1,.51.475l.979,4.066,3.281-.047.86-4.086a.629.629,0,0,1,.5-.49,17.234,17.234,0,0,0,2.773-.791.632.632,0,0,1,.68.156l2.88,3.031,2.818-1.681-1.3-3.974a.631.631,0,0,1,.186-.673,17.237,17.237,0,0,0,2.012-2.064.631.631,0,0,1,.667-.2l4,1.184,1.6-2.865-3.114-2.793a.633.633,0,0,1-.176-.675,17.414,17.414,0,0,0,.706-2.793.632.632,0,0,1,.475-.511l4.066-.979-.047-3.28-4.086-.86a.632.632,0,0,1-.49-.5,17.173,17.173,0,0,0-.791-2.772.631.631,0,0,1,.156-.681l3.031-2.88-1.682-2.818-3.974,1.3a.633.633,0,0,1-.673-.186,17.246,17.246,0,0,0-2.064-2.012.631.631,0,0,1-.205-.667l1.183-4-2.865-1.6-2.792,3.114a.632.632,0,0,1-.675.176,17.383,17.383,0,0,0-2.793-.705.632.632,0,0,1-.511-.475l-.979-4.066-3.281.047-.86,4.086a.631.631,0,0,1-.5.49,17.159,17.159,0,0,0-2.772.791.633.633,0,0,1-.681-.156l-2.88-3.031-2.817,1.681,1.3,3.974a.629.629,0,0,1-.186.673,17.283,17.283,0,0,0-2.012,2.065.632.632,0,0,1-.667.2l-4-1.184-1.6,2.865,3.114,2.793a.632.632,0,0,1,.175.675,17.444,17.444,0,0,0-.705,2.793.631.631,0,0,1-.475.51l-4.066.979.047,3.281,4.086.86a.632.632,0,0,1,.49.5,17.19,17.19,0,0,0,.791,2.772.632.632,0,0,1-.156.681l-3.031,2.88,1.681,2.817,3.974-1.3a.634.634,0,0,1,.673.186,17.173,17.173,0,0,0,2.064,2.013.631.631,0,0,1,.2.667l-1.183,4,2.865,1.6,2.792-3.113A.634.634,0,0,1,2566.2,461.966Zm5.837-4.623a11.746,11.746,0,0,1-2.88-.36,11.608,11.608,0,1,1,2.88.36ZM2572,435.25a10.412,10.412,0,1,0,8.96,5.075A10.35,10.35,0,0,0,2572,435.25Z" transform="translate(-2549.162 -421.391)" fill="#5479f7"/>
    </g>
    <g id="Group_767" data-name="Group 767" transform="translate(1404.793 214.203)">
      <g id="Group_766" data-name="Group 766" transform="translate(0 0)">
        <circle id="Ellipse_56" data-name="Ellipse 56" cx="14.994" cy="14.994" r="14.994" transform="translate(0 20.456) rotate(-43.011)" fill="#fff"/>
        <path id="Path_1644" data-name="Path 1644" d="M3182.852,473.151q-.43,0-.864-.024a15.615,15.615,0,1,1,.864.024Zm-.027-29.989a14.363,14.363,0,1,0,14.359,15.149l.631.035-.631-.035a14.362,14.362,0,0,0-13.555-15.127Q3183.225,443.161,3182.824,443.162Z" transform="translate(-3161.651 -436.333)"/>
      </g>
      <path id="Path_1645" data-name="Path 1645" d="M3194.145,475.864a.63.63,0,0,1-.577-.375l-4.3-9.708a.631.631,0,1,1,1.154-.511l3.617,8.167c1.722-5.318,3.782-9.235,6.275-11.942a.632.632,0,0,1,.929.856c-2.57,2.789-4.755,7.184-6.494,13.062a.631.631,0,0,1-.565.451Z" transform="translate(-3174.39 -447.563)"/>
    </g>
  </g>
</svg>
