<svg xmlns="http://www.w3.org/2000/svg" width="406.787" height="408.6" viewBox="0 0 406.787 408.6">
  <g id="Group_978" data-name="Group 978" transform="translate(-295.241 1100.664)">
    <g id="Group_925" data-name="Group 925" transform="translate(296.767 -1049.373)">
      <path id="Path_1749" data-name="Path 1749" d="M324.648-903.231a3.963,3.963,0,0,1-3.925-3.469,3.933,3.933,0,0,1,.8-2.921,3.928,3.928,0,0,1,2.634-1.5,3.915,3.915,0,0,1,2.92.8,3.933,3.933,0,0,1,1.5,2.634,3.962,3.962,0,0,1-3.438,4.417h0A3.96,3.96,0,0,1,324.648-903.231Zm.4-.762h0Zm-.393-5.681a2.542,2.542,0,0,0-.312.019,2.466,2.466,0,0,0-1.654.939,2.469,2.469,0,0,0-.5,1.834,2.487,2.487,0,0,0,2.773,2.158,2.488,2.488,0,0,0,2.158-2.773,2.472,2.472,0,0,0-.939-1.653A2.466,2.466,0,0,0,324.656-909.673Z" transform="translate(-309.719 952.926)"/>
      <path id="Path_1750" data-name="Path 1750" d="M311.672-866.765a4.948,4.948,0,0,1-3.055-1.053,4.957,4.957,0,0,1-1.886-3.32,4.956,4.956,0,0,1,1.014-3.682,4.955,4.955,0,0,1,3.32-1.886,4.94,4.94,0,0,1,3.682,1.014,4.955,4.955,0,0,1,1.886,3.32,4.956,4.956,0,0,1-1.014,3.682A4.958,4.958,0,0,1,312.3-866.8,5.094,5.094,0,0,1,311.672-866.765Zm.018-8.507a3.622,3.622,0,0,0-.442.028,3.491,3.491,0,0,0-2.34,1.329,3.494,3.494,0,0,0-.715,2.594,3.5,3.5,0,0,0,1.329,2.34,3.5,3.5,0,0,0,2.594.715h0a3.491,3.491,0,0,0,2.34-1.329,3.491,3.491,0,0,0,.715-2.594,3.494,3.494,0,0,0-1.329-2.34A3.489,3.489,0,0,0,311.69-875.272Z" transform="translate(-302.594 935.419)"/>
      <g id="Group_921" data-name="Group 921" transform="translate(282.048 304.545)">
        <path id="Path_1751" data-name="Path 1751" d="M876.3-366.114a.729.729,0,0,1-.307-.068l-2.882-1.326a.737.737,0,0,1-.361-.977.737.737,0,0,1,.977-.361l2.882,1.326a.737.737,0,0,1,.361.977A.736.736,0,0,1,876.3-366.114Z" transform="translate(-872.679 372.433)"/>
        <path id="Path_1752" data-name="Path 1752" d="M896.838-356.665a.731.731,0,0,1-.307-.068l-2.882-1.325a.736.736,0,0,1-.361-.977.735.735,0,0,1,.977-.361l2.882,1.326a.736.736,0,0,1,.362.977A.736.736,0,0,1,896.838-356.665Z" transform="translate(-883.132 367.624)"/>
        <path id="Path_1753" data-name="Path 1753" d="M880.621-351.12a.733.733,0,0,1-.3-.066.736.736,0,0,1-.367-.975l1.309-2.89a.737.737,0,0,1,.975-.367.736.736,0,0,1,.367.975l-1.309,2.89A.736.736,0,0,1,880.621-351.12Z" transform="translate(-876.346 365.597)"/>
        <path id="Path_1754" data-name="Path 1754" d="M889.953-371.716a.733.733,0,0,1-.3-.066.736.736,0,0,1-.367-.975l1.309-2.89a.736.736,0,0,1,.975-.367.737.737,0,0,1,.367.975l-1.309,2.89A.736.736,0,0,1,889.953-371.716Z" transform="translate(-881.095 376.079)"/>
      </g>
      <g id="Group_922" data-name="Group 922" transform="translate(0 86.105)">
        <path id="Path_1755" data-name="Path 1755" d="M302.054-795.611a.734.734,0,0,1-.454-.157.736.736,0,0,1-.126-1.034l2.293-2.929a.737.737,0,0,1,1.034-.126.737.737,0,0,1,.126,1.034l-2.293,2.929A.735.735,0,0,1,302.054-795.611Z" transform="translate(-299.859 810.263)"/>
        <path id="Path_1756" data-name="Path 1756" d="M318.4-816.483a.733.733,0,0,1-.454-.157.736.736,0,0,1-.126-1.034l2.293-2.929a.736.736,0,0,1,1.034-.126.737.737,0,0,1,.126,1.034l-2.293,2.929A.737.737,0,0,1,318.4-816.483Z" transform="translate(-308.177 820.885)"/>
        <path id="Path_1757" data-name="Path 1757" d="M322.99-797.922a.735.735,0,0,1-.45-.154l-2.942-2.277a.736.736,0,0,1-.132-1.033.738.738,0,0,1,1.033-.132l2.942,2.277a.736.736,0,0,1,.132,1.034A.735.735,0,0,1,322.99-797.922Z" transform="translate(-309.016 811.107)"/>
        <path id="Path_1758" data-name="Path 1758" d="M302.025-814.146a.735.735,0,0,1-.45-.154l-2.942-2.276a.737.737,0,0,1-.132-1.034.738.738,0,0,1,1.033-.132l2.942,2.276a.737.737,0,0,1,.132,1.034A.735.735,0,0,1,302.025-814.146Z" transform="translate(-298.347 819.364)"/>
      </g>
      <g id="Group_923" data-name="Group 923" transform="translate(378.771 0)">
        <path id="Path_1759" data-name="Path 1759" d="M1083.206-990.962a.737.737,0,0,1-.737-.737v-3.786a.737.737,0,0,1,.737-.737.737.737,0,0,1,.737.737v3.786A.737.737,0,0,1,1083.206-990.962Z" transform="translate(-1076.167 996.221)"/>
        <path id="Path_1760" data-name="Path 1760" d="M1083.206-973a.737.737,0,0,1-.737-.737v-3.786a.737.737,0,0,1,.737-.737.737.737,0,0,1,.737.737v3.786A.737.737,0,0,1,1083.206-973Z" transform="translate(-1076.167 987.083)"/>
        <path id="Path_1761" data-name="Path 1761" d="M1074.158-981.915h-3.786a.737.737,0,0,1-.737-.737.737.737,0,0,1,.737-.737h3.786a.737.737,0,0,1,.737.737A.737.737,0,0,1,1074.158-981.915Z" transform="translate(-1069.636 989.69)"/>
        <path id="Path_1762" data-name="Path 1762" d="M1092.116-981.915h-3.785a.737.737,0,0,1-.737-.737.737.737,0,0,1,.737-.737h3.785a.737.737,0,0,1,.737.737A.737.737,0,0,1,1092.116-981.915Z" transform="translate(-1078.775 989.69)"/>
      </g>
      <g id="Group_924" data-name="Group 924" transform="translate(187.448 319.675)">
        <path id="Path_1763" data-name="Path 1763" d="M746.724-331.74q-4.081,0-8.076-.333a.736.736,0,0,1-.672-.8.739.739,0,0,1,.8-.673c18.69,1.562,38.994-2.471,58.715-11.658a.736.736,0,0,1,.979.356.736.736,0,0,1-.357.979C780.959-335.875,763.359-331.74,746.724-331.74Z" transform="translate(-709.525 345.269)"/>
        <path id="Path_1764" data-name="Path 1764" d="M712.606-309.518a91.6,91.6,0,0,1-32.079-5.664.737.737,0,0,1-.434-.947.739.739,0,0,1,.947-.434c29.7,11.028,58.745,3.629,77.881-4.522a.736.736,0,0,1,.966.389.736.736,0,0,1-.389.966C747.146-314.469,730.707-309.518,712.606-309.518Z" transform="translate(-680.046 332.992)"/>
        <path id="Path_1765" data-name="Path 1765" d="M713.392-328.2a4.055,4.055,0,0,1-1.535-.3,3.99,3.99,0,0,1-2.2-2.192,4.077,4.077,0,0,1,.027-3.17,4.179,4.179,0,0,1,5.39-2.251,3.992,3.992,0,0,1,2.2,2.192,4.074,4.074,0,0,1-.027,3.171A4.205,4.205,0,0,1,713.392-328.2Zm.144-6.744a2.724,2.724,0,0,0-2.494,1.657,2.612,2.612,0,0,0-.02,2.033,2.524,2.524,0,0,0,1.392,1.388,2.7,2.7,0,0,0,3.476-1.464,2.616,2.616,0,0,0,.021-2.034,2.53,2.53,0,0,0-1.392-1.388A2.6,2.6,0,0,0,713.536-334.941Z" transform="translate(-694.96 340.762)"/>
      </g>
    </g>
    <g id="Group_942" data-name="Group 942" transform="translate(336.031 -1100.664)">
      <g id="Group_928" data-name="Group 928" transform="translate(0 30.857)">
        <g id="Group_926" data-name="Group 926" transform="translate(91.208 202.031)">
          <path id="Path_1766" data-name="Path 1766" d="M692.544-605.068,611.36-617.2c-.526,0-.7.489-.7.958v69.071c0,6.613-46.126,23.795-46.576,22.921l-.056,7.31c0,1.361,1.131,2.283,2.719,2.568l69.1,12.639a23.791,23.791,0,0,0,9.138-1.9l37.425-15.758c6.737-2.836,10.987-8.929,10.987-15.575V-604.11A.913.913,0,0,0,692.544-605.068Z" transform="translate(-564.029 621.734)" fill="#5479f7"/>
          <path id="Path_1767" data-name="Path 1767" d="M603.336-625.922v69.086c0,6.81-4.383,13.015-11.269,15.955L566.82-530.1c-1.649.7-1.258,2.606.742,2.914l69.365,12.639a23.294,23.294,0,0,0,9.021-1.8l27.972-11.777c6.938-2.921,11.364-9.151,11.364-16v-69.155a.546.546,0,0,0-.574-.512l-80.8-12.639A.546.546,0,0,0,603.336-625.922Z" transform="translate(-564.925 626.434)" fill="#99b9ff"/>
          <path id="Path_1768" data-name="Path 1768" d="M632.182-458.194a.728.728,0,0,1-.133-.012l-65.383-11.913a2.585,2.585,0,0,1-2.361-2.07,2.165,2.165,0,0,1,1.463-2.247l25.246-10.775c6.574-2.806,10.822-8.8,10.822-15.277v-14.488a.737.737,0,0,1,.737-.737.737.737,0,0,1,.737.737v14.488c0,7.065-4.6,13.594-11.716,16.633L566.345-473.08c-.4.169-.614.434-.579.707.04.317.409.688,1.143.8l65.4,11.916a.736.736,0,0,1,.592.857A.736.736,0,0,1,632.182-458.194Z" transform="translate(-564.161 570.087)"/>
        </g>
        <g id="Group_927" data-name="Group 927">
          <path id="Path_1769" data-name="Path 1769" d="M725.457-763.771l-9.057,8.454L388.452-812.067a9.325,9.325,0,0,1-7.734-9.343l3.466-209.4,10.866-5.832a10.048,10.048,0,0,1,6.514-1.023l318.738,57.5a10.048,10.048,0,0,1,8.262,9.888l.069,199.174A10.048,10.048,0,0,1,725.457-763.771Z" transform="translate(-379.531 1037.829)" fill="#5479f7"/>
          <path id="Path_1770" data-name="Path 1770" d="M709.135-747.146l-321.45-58.041a8.394,8.394,0,0,1-6.9-8.261v-202.1a8.394,8.394,0,0,1,9.886-8.26l321.45,58.041a8.4,8.4,0,0,1,6.9,8.261v202.1A8.394,8.394,0,0,1,709.135-747.146Z" transform="translate(-379.565 1030.761)" fill="#99b9ff"/>
          <path id="Path_1771" data-name="Path 1771" d="M480.1-562.617a.742.742,0,0,1-.132-.012l-61.726-11.145a.737.737,0,0,1-.594-.856.741.741,0,0,1,.856-.594l61.726,11.145a.737.737,0,0,1,.594.856A.737.737,0,0,1,480.1-562.617Z" transform="translate(-398.32 802.409)"/>
          <path id="Path_1772" data-name="Path 1772" d="M932.4-480.949a.8.8,0,0,1-.132-.011l-56.495-10.2a.737.737,0,0,1-.594-.856.743.743,0,0,1,.856-.594l56.495,10.2a.737.737,0,0,1,.594.856A.737.737,0,0,1,932.4-480.949Z" transform="translate(-631.161 760.367)"/>
          <path id="Path_1773" data-name="Path 1773" d="M379.039-918.256h0a.737.737,0,0,1-.737-.737v-97.117a9.108,9.108,0,0,1,3.276-7.006,9.113,9.113,0,0,1,7.477-1.979l2.84.513a.737.737,0,0,1,.594.856.74.74,0,0,1-.856.594l-2.84-.513a7.631,7.631,0,0,0-6.27,1.659,7.637,7.637,0,0,0-2.748,5.876v97.117A.737.737,0,0,1,379.039-918.256Z" transform="translate(-378.302 1031.422)"/>
        </g>
      </g>
      <g id="Group_941" data-name="Group 941" transform="translate(17.298)">
        <g id="Group_932" data-name="Group 932">
          <path id="Path_1774" data-name="Path 1774" d="M558.533-881.158,421.349-904.6a7.855,7.855,0,0,1-6.324-7.465v-181.7a5.215,5.215,0,0,1,6.324-5.3l137.185,23.442a7.854,7.854,0,0,1,6.324,7.465v181.7A5.216,5.216,0,0,1,558.533-881.158Z" transform="translate(-414.288 1099.9)" fill="#fff"/>
          <g id="Group_931" data-name="Group 931" transform="translate(13.852 22.109)">
            <path id="Path_1775" data-name="Path 1775" d="M570.378-933.759l-81.519-13.93a4.288,4.288,0,0,1-3.453-4.075h0a2.848,2.848,0,0,1,3.453-2.9l81.519,13.93a4.288,4.288,0,0,1,3.453,4.076h0A2.847,2.847,0,0,1,570.378-933.759Z" transform="translate(-463.958 1004.277)" fill="#caddff"/>
            <path id="Path_1776" data-name="Path 1776" d="M582.927-848.841l-97.5-16.661a4.289,4.289,0,0,1-3.453-4.076h0a2.847,2.847,0,0,1,3.453-2.9l97.5,16.661a4.288,4.288,0,0,1,3.453,4.076h0A2.848,2.848,0,0,1,582.927-848.841Z" transform="translate(-462.209 962.452)" fill="#caddff"/>
            <path id="Path_1777" data-name="Path 1777" d="M454.164-875.472a3.45,3.45,0,0,1-4.183,3.508A5.2,5.2,0,0,1,445.8-876.9a3.45,3.45,0,0,1,4.183-3.508A5.2,5.2,0,0,1,454.164-875.472Z" transform="translate(-443.801 966.496)" fill="#caddff"/>
            <path id="Path_1778" data-name="Path 1778" d="M583.654-879.152l-97.5-16.662a4.288,4.288,0,0,1-3.453-4.076h0a2.847,2.847,0,0,1,3.453-2.9l97.5,16.661a4.288,4.288,0,0,1,3.453,4.076h0A2.848,2.848,0,0,1,583.654-879.152Z" transform="translate(-462.578 977.878)" fill="#caddff"/>
            <path id="Path_1779" data-name="Path 1779" d="M454.891-905.782a3.45,3.45,0,0,1-4.183,3.508,5.194,5.194,0,0,1-4.183-4.937,3.449,3.449,0,0,1,4.183-3.508A5.2,5.2,0,0,1,454.891-905.782Z" transform="translate(-444.171 981.921)" fill="#caddff"/>
            <path id="Path_1780" data-name="Path 1780" d="M582.387-816.72l-97.5-16.662a4.288,4.288,0,0,1-3.453-4.076h0a2.847,2.847,0,0,1,3.453-2.9l97.5,16.661a4.289,4.289,0,0,1,3.453,4.076h0A2.848,2.848,0,0,1,582.387-816.72Z" transform="translate(-461.934 946.105)" fill="#caddff"/>
            <ellipse id="Ellipse_83" data-name="Ellipse 83" cx="3.86" cy="4.576" rx="3.86" ry="4.576" transform="matrix(0.755, -0.656, 0.656, 0.755, 0, 105.16)" fill="#caddff"/>
            <path id="Path_1781" data-name="Path 1781" d="M581.847-785.148l-97.5-16.661a4.288,4.288,0,0,1-3.453-4.075h0a2.848,2.848,0,0,1,3.453-2.9l97.5,16.662a4.288,4.288,0,0,1,3.453,4.076h0A2.847,2.847,0,0,1,581.847-785.148Z" transform="translate(-461.659 930.038)" fill="#caddff"/>
            <path id="Path_1782" data-name="Path 1782" d="M453.083-811.778a3.45,3.45,0,0,1-4.183,3.508,5.2,5.2,0,0,1-4.183-4.937,3.45,3.45,0,0,1,4.183-3.508A5.194,5.194,0,0,1,453.083-811.778Z" transform="translate(-443.251 934.081)" fill="#caddff"/>
            <path id="Path_1783" data-name="Path 1783" d="M581.3-751.39l-97.5-16.662a4.288,4.288,0,0,1-3.453-4.076h0a2.847,2.847,0,0,1,3.453-2.9l97.5,16.661a4.288,4.288,0,0,1,3.453,4.076h0A2.848,2.848,0,0,1,581.3-751.39Z" transform="translate(-461.383 912.858)" fill="#caddff"/>
            <path id="Path_1784" data-name="Path 1784" d="M452.542-778.021a3.45,3.45,0,0,1-4.183,3.508,5.2,5.2,0,0,1-4.183-4.938,3.449,3.449,0,0,1,4.183-3.508A5.2,5.2,0,0,1,452.542-778.021Z" transform="translate(-442.975 916.902)" fill="#caddff"/>
            <path id="Path_1785" data-name="Path 1785" d="M580.764-719.27l-97.5-16.661a4.288,4.288,0,0,1-3.453-4.076h0a2.847,2.847,0,0,1,3.453-2.9l97.5,16.661a4.288,4.288,0,0,1,3.453,4.076h0A2.848,2.848,0,0,1,580.764-719.27Z" transform="translate(-461.108 896.512)" fill="#caddff"/>
            <path id="Path_1786" data-name="Path 1786" d="M452-745.9a3.45,3.45,0,0,1-4.183,3.508,5.2,5.2,0,0,1-4.183-4.937,3.45,3.45,0,0,1,4.183-3.508A5.2,5.2,0,0,1,452-745.9Z" transform="translate(-442.7 900.555)" fill="#caddff"/>
            <g id="Group_930" data-name="Group 930" transform="translate(40.59)">
              <path id="Path_1787" data-name="Path 1787" d="M526.8-1034.452c0-12.529,10.053-20.968,22.455-18.849s22.453,13.994,22.453,26.523-10.052,20.968-22.453,18.849-22.455-13.994-22.455-26.523Z" transform="translate(-525.616 1054.617)" fill="#fff"/>
              <path id="Path_1788" data-name="Path 1788" d="M540.341-979.128a27.142,27.142,0,0,0,15.493,8.867,19.459,19.459,0,0,0,15.493-3.572,58.333,58.333,0,0,0-15.493-4.933,50.479,50.479,0,0,0-15.493-.361Z" transform="translate(-532.504 1016.926)" fill="#5479f7"/>
              <path id="Path_1789" data-name="Path 1789" d="M568.428-1023.42a1.913,1.913,0,0,0-.227.092,7.573,7.573,0,0,0-1.344.971,10.747,10.747,0,0,1-4.844,1.969c-1.071.186-4.33-.282-5.039.327s-.232,3.3-.23,4.376a9.239,9.239,0,0,0,2.887,6.5v6.5a5.72,5.72,0,0,0,4.607,5.438,3.8,3.8,0,0,0,4.607-3.863v-6.33a6.321,6.321,0,0,0,3.111-5.652v-4.523C571.956-1019.307,570.756-1024.194,568.428-1023.42Z" transform="translate(-540.773 1039.287)" fill="#fff"/>
              <path id="Path_1790" data-name="Path 1790" d="M551.509-1007.948c-7.24,0-14.929-3.524-20.447-10.113a27.294,27.294,0,0,1-6.581-19.74,19.612,19.612,0,0,1,6.894-13.507c8.745-7.214,22.74-5.232,31.861,4.517a.736.736,0,0,1-.034,1.041.735.735,0,0,1-1.041-.035c-8.591-9.18-21.7-11.106-29.848-4.386a18.147,18.147,0,0,0-6.365,12.506,25.811,25.811,0,0,0,6.243,18.659c8.488,10.135,22.352,12.64,30.907,5.582,4.464-3.682,6.8-9.474,6.415-15.889a.737.737,0,0,1,.691-.78.739.739,0,0,1,.779.691c.416,6.89-2.116,13.128-6.947,17.114A19.455,19.455,0,0,1,551.509-1007.948Z" transform="translate(-524.383 1055.644)"/>
              <path id="Path_1791" data-name="Path 1791" d="M567.409-982.374a5.366,5.366,0,0,1-.907-.078,6.492,6.492,0,0,1-5.22-6.163v-6.5a.737.737,0,0,1,.737-.737.737.737,0,0,1,.737.737v6.5a4.964,4.964,0,0,0,3.995,4.711,3.208,3.208,0,0,0,2.667-.649,3.178,3.178,0,0,0,1.079-2.488v-6.168a.737.737,0,0,1,.737-.737.737.737,0,0,1,.737.737v6.168a4.625,4.625,0,0,1-1.6,3.614A4.529,4.529,0,0,1,567.409-982.374Z" transform="translate(-543.161 1025.214)"/>
              <path id="Path_1792" data-name="Path 1792" d="M571.753-1027.774a8.882,8.882,0,0,0-1.323-4.463,5.154,5.154,0,0,0-1.26-1.209,7.123,7.123,0,0,0-3.73-1.16,9.6,9.6,0,0,1-1.84-.12,11.307,11.307,0,0,1-1.567-.572c-5.231-2.042-12.278,1.27-10.145,7.609l2.183,6.489c.623,14.045,15.148,14.132,15.331,2.479l1.171-3.762c.256-.824.49-1.649.685-2.485A8.2,8.2,0,0,0,571.753-1027.774Z" transform="translate(-538.182 1045.596)"/>
              <g id="Group_929" data-name="Group 929" transform="translate(16.693 14.924)">
                <path id="Path_1793" data-name="Path 1793" d="M566.02-1008.483c3.395.58,6.146-1.441,6.146-4.514v-3.278c0-2.97-2.66-5.833-5.941-6.393l-6.352-1.085v8.655a6.889,6.889,0,0,0,3.6,5.683Z" transform="translate(-559.137 1024.49)" fill="#fff"/>
                <path id="Path_1794" data-name="Path 1794" d="M566.394-1008.412a7.489,7.489,0,0,1-1.261-.109.773.773,0,0,1-.129-.034l-2.544-.932a.715.715,0,0,1-.117-.055,7.644,7.644,0,0,1-3.968-6.319v-8.656a.738.738,0,0,1,.261-.563.734.734,0,0,1,.6-.163l6.352,1.085c3.614.618,6.554,3.811,6.554,7.12v3.277a5.137,5.137,0,0,1-1.82,4A6.045,6.045,0,0,1,566.394-1008.412Zm-.948-1.55a4.851,4.851,0,0,0,3.924-.924,3.688,3.688,0,0,0,1.3-2.874v-3.277c0-2.623-2.39-5.165-5.328-5.668l-5.491-.938v7.783a6.143,6.143,0,0,0,3.182,5.014Z" transform="translate(-558.374 1025.254)"/>
              </g>
            </g>
          </g>
          <path id="Path_1795" data-name="Path 1795" d="M465.19-897.005a.722.722,0,0,1-.125-.011l-44.6-7.621a8.628,8.628,0,0,1-6.937-8.191v-181.7a6.079,6.079,0,0,1,2.1-4.751,6.135,6.135,0,0,1,5.082-1.278l137.185,23.442a8.627,8.627,0,0,1,6.937,8.191v53.6a.737.737,0,0,1-.737.737.737.737,0,0,1-.737-.737v-53.6a7.1,7.1,0,0,0-5.711-6.739l-137.185-23.442a4.683,4.683,0,0,0-3.884.952,4.63,4.63,0,0,0-1.579,3.625v181.7a7.1,7.1,0,0,0,5.711,6.739l44.6,7.621a.737.737,0,0,1,.6.851A.737.737,0,0,1,465.19-897.005Z" transform="translate(-413.525 1100.664)"/>
        </g>
        <g id="Group_936" data-name="Group 936" transform="translate(160.535 28.414)">
          <path id="Path_1796" data-name="Path 1796" d="M885.43-823.3,748.245-846.741a7.854,7.854,0,0,1-6.324-7.465v-181.7a5.216,5.216,0,0,1,6.324-5.3l137.185,23.442a7.855,7.855,0,0,1,6.324,7.465v181.7A5.215,5.215,0,0,1,885.43-823.3Z" transform="translate(-741.185 1042.041)" fill="#fff"/>
          <g id="Group_935" data-name="Group 935" transform="translate(13.586 21.76)">
            <path id="Path_1797" data-name="Path 1797" d="M897.274-875.9l-81.519-13.93A4.288,4.288,0,0,1,812.3-893.9h0a2.847,2.847,0,0,1,3.453-2.9l81.519,13.93a4.288,4.288,0,0,1,3.453,4.076h0A2.847,2.847,0,0,1,897.274-875.9Z" transform="translate(-790.589 946.766)" fill="#caddff"/>
            <path id="Path_1798" data-name="Path 1798" d="M909.824-790.982l-97.5-16.661a4.288,4.288,0,0,1-3.453-4.076h0a2.848,2.848,0,0,1,3.453-2.9l97.5,16.661a4.289,4.289,0,0,1,3.453,4.076h0A2.847,2.847,0,0,1,909.824-790.982Z" transform="translate(-788.841 904.941)" fill="#caddff"/>
            <path id="Path_1799" data-name="Path 1799" d="M781.061-817.612a3.45,3.45,0,0,1-4.183,3.508,5.2,5.2,0,0,1-4.183-4.937,3.45,3.45,0,0,1,4.183-3.508A5.2,5.2,0,0,1,781.061-817.612Z" transform="translate(-770.432 908.985)" fill="#caddff"/>
            <path id="Path_1800" data-name="Path 1800" d="M910.55-821.293l-97.5-16.661a4.289,4.289,0,0,1-3.453-4.076h0a2.847,2.847,0,0,1,3.453-2.9l97.5,16.661A4.288,4.288,0,0,1,914-824.189h0A2.848,2.848,0,0,1,910.55-821.293Z" transform="translate(-789.21 920.367)" fill="#caddff"/>
            <ellipse id="Ellipse_84" data-name="Ellipse 84" cx="3.86" cy="4.576" rx="3.86" ry="4.576" transform="matrix(0.755, -0.656, 0.656, 0.755, 0.887, 74.849)" fill="#caddff"/>
            <path id="Path_1801" data-name="Path 1801" d="M909.283-758.861l-97.5-16.661a4.289,4.289,0,0,1-3.453-4.076h0a2.847,2.847,0,0,1,3.453-2.9l97.5,16.661a4.288,4.288,0,0,1,3.453,4.076h0A2.848,2.848,0,0,1,909.283-758.861Z" transform="translate(-788.565 888.595)" fill="#caddff"/>
            <ellipse id="Ellipse_85" data-name="Ellipse 85" cx="3.86" cy="4.576" rx="3.86" ry="4.576" transform="translate(0.265 105.509) rotate(-40.98)" fill="#caddff"/>
            <path id="Path_1802" data-name="Path 1802" d="M908.743-727.289l-97.5-16.661a4.288,4.288,0,0,1-3.453-4.076h0a2.847,2.847,0,0,1,3.453-2.9l97.5,16.661a4.288,4.288,0,0,1,3.453,4.076h0A2.848,2.848,0,0,1,908.743-727.289Z" transform="translate(-788.29 872.527)" fill="#caddff"/>
            <ellipse id="Ellipse_86" data-name="Ellipse 86" cx="3.86" cy="4.576" rx="3.86" ry="4.576" transform="translate(0 121.014) rotate(-40.981)" fill="#caddff"/>
            <path id="Path_1803" data-name="Path 1803" d="M908.2-693.531l-97.5-16.661a4.289,4.289,0,0,1-3.453-4.076h0a2.848,2.848,0,0,1,3.453-2.9L908.2-700.5a4.288,4.288,0,0,1,3.453,4.076h0A2.847,2.847,0,0,1,908.2-693.531Z" transform="translate(-788.014 855.347)" fill="#caddff"/>
            <path id="Path_1804" data-name="Path 1804" d="M779.438-720.161a3.45,3.45,0,0,1-4.183,3.508,5.2,5.2,0,0,1-4.183-4.937,3.45,3.45,0,0,1,4.183-3.508A5.2,5.2,0,0,1,779.438-720.161Z" transform="translate(-769.606 859.391)" fill="#caddff"/>
            <path id="Path_1805" data-name="Path 1805" d="M907.661-661.41l-97.5-16.662a4.288,4.288,0,0,1-3.453-4.076h0a2.847,2.847,0,0,1,3.453-2.9l97.5,16.661a4.288,4.288,0,0,1,3.453,4.076h0A2.848,2.848,0,0,1,907.661-661.41Z" transform="translate(-787.74 839.001)" fill="#caddff"/>
            <path id="Path_1806" data-name="Path 1806" d="M778.9-688.041a3.45,3.45,0,0,1-4.183,3.508,5.2,5.2,0,0,1-4.183-4.938,3.45,3.45,0,0,1,4.183-3.508A5.2,5.2,0,0,1,778.9-688.041Z" transform="translate(-769.331 843.044)" fill="#caddff"/>
            <g id="Group_934" data-name="Group 934" transform="translate(39.188)">
              <path id="Path_1807" data-name="Path 1807" d="M849.386-977.872c0-12.494,10.025-20.91,22.393-18.8s22.392,13.956,22.392,26.45-10.025,20.911-22.392,18.8-22.393-13.955-22.393-26.451Z" transform="translate(-848.649 997.731)" fill="#fff"/>
              <path id="Path_1808" data-name="Path 1808" d="M874.8-951.121a23.206,23.206,0,0,1-3.912-.338c-12.685-2.167-23.005-14.358-23.005-27.176a21.591,21.591,0,0,1,1.4-7.8.735.735,0,0,1,.952-.422.736.736,0,0,1,.423.952,20.13,20.13,0,0,0-1.3,7.266c0,12.132,9.771,23.672,21.78,25.724a18.421,18.421,0,0,0,15.267-3.785,18.262,18.262,0,0,0,6.264-14.286c0-12.132-9.77-23.672-21.779-25.724-6.475-1.108-12.54.747-16.642,5.084a.737.737,0,0,1-1.042.028.737.737,0,0,1-.029-1.042c4.446-4.7,10.993-6.714,17.961-5.523,12.685,2.167,23,14.359,23,27.176a19.708,19.708,0,0,1-6.788,15.412A19.2,19.2,0,0,1,874.8-951.121Z" transform="translate(-847.886 998.494)"/>
              <path id="Path_1809" data-name="Path 1809" d="M863.705-922.554a26.9,26.9,0,0,0,15.361,8.8,19.28,19.28,0,0,0,15.361-3.546,57.782,57.782,0,0,0-15.361-4.893,50,50,0,0,0-15.361-.357Z" transform="translate(-855.936 960.068)" fill="#99b9ff"/>
              <path id="Path_1810" data-name="Path 1810" d="M891.592-936.743h0a4.391,4.391,0,0,1-3.534-4.175v-18.209l7.069,1.208v18.209a2.916,2.916,0,0,1-3.534,2.967Z" transform="translate(-868.33 978.459)" fill="#fff"/>
              <path id="Path_1811" data-name="Path 1811" d="M888.589-961.9c-.444-5.731,2.025-8.84-3.51-16.176-5.731-7.6-10.649-4-10.649-4s-4.1-4.139-9.478,2.131c-4.748,5.534,1.333,12.258-.711,15.859s-8.974,4.571-8.974,4.571,2.221,4.869,4.976,7.314l29.235,5s6.042-5.611,6.042-7.5C895.52-954.7,889.033-956.17,888.589-961.9Z" transform="translate(-851.642 990.821)"/>
              <g id="Group_933" data-name="Group 933" transform="translate(6.306 36.341)">
                <path id="Path_1812" data-name="Path 1812" d="M863.705-922.554a26.9,26.9,0,0,0,15.361,8.8,19.28,19.28,0,0,0,15.361-3.546,57.782,57.782,0,0,0-15.361-4.893A50,50,0,0,0,863.705-922.554Z" transform="translate(-862.242 923.727)" fill="#99b9ff"/>
                <path id="Path_1813" data-name="Path 1813" d="M881.306-913.464a23.026,23.026,0,0,1-3.88-.334,27.606,27.606,0,0,1-15.787-9.033l-.912-1.026,1.359-.193a50.543,50.543,0,0,1,15.589.36,58.229,58.229,0,0,1,15.558,4.956l1.064.515-.931.728A19.359,19.359,0,0,1,881.306-913.464Zm-17.592-9.3a25.889,25.889,0,0,0,13.961,7.518,18.77,18.77,0,0,0,13.8-2.683,56.865,56.865,0,0,0-14.044-4.3A49.932,49.932,0,0,0,863.713-922.768Z" transform="translate(-860.726 924.493)"/>
              </g>
              <path id="Path_1814" data-name="Path 1814" d="M888.247-969.885l-.246-.042-7.193,6.076v4.007a8.878,8.878,0,0,0,3.56,6.88v6.55a4.392,4.392,0,0,0,3.534,4.175,2.916,2.916,0,0,0,3.534-2.967v-6.427a5.927,5.927,0,0,0,3.767-5.751v-4.283A8.644,8.644,0,0,0,888.247-969.885Z" transform="translate(-864.64 983.956)" fill="#fff"/>
              <path id="Path_1815" data-name="Path 1815" d="M891.43-924.429a4.306,4.306,0,0,1-.724-.062,5.161,5.161,0,0,1-4.147-4.9v-6.351a.737.737,0,0,1,.737-.737.737.737,0,0,1,.737.737v6.351a3.634,3.634,0,0,0,2.922,3.449,2.292,2.292,0,0,0,1.9-.46,2.272,2.272,0,0,0,.768-1.781v-6.242a.737.737,0,0,1,.737-.737.737.737,0,0,1,.737.737v6.242a3.722,3.722,0,0,1-1.292,2.907A3.639,3.639,0,0,1,891.43-924.429Z" transform="translate(-867.567 966.934)"/>
              <path id="Path_1816" data-name="Path 1816" d="M888.463-951.22a8,8,0,0,1-1.345-.116.736.736,0,0,1-.6-.85.734.734,0,0,1,.85-.6,5.429,5.429,0,0,0,4.5-1.106,5.377,5.377,0,0,0,1.836-4.21v-4.283a7.88,7.88,0,0,0-6.02-7.428l-6.9,5.714v3.536a8.215,8.215,0,0,0,3.875,6.72.737.737,0,0,1,.23,1.016.736.736,0,0,1-1.016.23,9.719,9.719,0,0,1-4.562-7.966v-3.882a.736.736,0,0,1,.267-.567l7.438-6.158a.737.737,0,0,1,.595-.159c.113.02.226.041.339.066a9.4,9.4,0,0,1,7.23,8.878v4.283a6.825,6.825,0,0,1-2.359,5.336A6.666,6.666,0,0,1,888.463-951.22Z" transform="translate(-863.877 984.676)"/>
            </g>
          </g>
          <path id="Path_1817" data-name="Path 1817" d="M885.741-823.233a7.111,7.111,0,0,1-1.2-.1l-74.294-12.695a.737.737,0,0,1-.6-.85.735.735,0,0,1,.85-.6l74.295,12.695a4.687,4.687,0,0,0,3.884-.952,4.63,4.63,0,0,0,1.579-3.625v-181.7a7.1,7.1,0,0,0-5.712-6.739l-137.184-23.441a4.678,4.678,0,0,0-3.884.951,4.633,4.633,0,0,0-1.579,3.626V-979a.737.737,0,0,1-.737.737.736.736,0,0,1-.737-.737v-57.668a6.079,6.079,0,0,1,2.1-4.752,6.141,6.141,0,0,1,5.082-1.277l137.185,23.441a8.628,8.628,0,0,1,6.937,8.191v181.7a6.079,6.079,0,0,1-2.1,4.751A5.945,5.945,0,0,1,885.741-823.233Z" transform="translate(-740.422 1042.804)"/>
        </g>
        <g id="Group_940" data-name="Group 940" transform="translate(71.052 83.821)">
          <path id="Path_1818" data-name="Path 1818" d="M703.217-710.474,566.032-733.916a7.854,7.854,0,0,1-6.324-7.465v-181.7a5.216,5.216,0,0,1,6.324-5.3l137.185,23.442a7.854,7.854,0,0,1,6.324,7.464v181.7A5.216,5.216,0,0,1,703.217-710.474Z" transform="translate(-558.971 929.216)" fill="#fff"/>
          <g id="Group_939" data-name="Group 939" transform="translate(13.586 21.982)">
            <path id="Path_1819" data-name="Path 1819" d="M715.061-763.074,633.542-777a4.289,4.289,0,0,1-3.453-4.076h0a2.848,2.848,0,0,1,3.453-2.9l81.519,13.93a4.288,4.288,0,0,1,3.453,4.076h0A2.848,2.848,0,0,1,715.061-763.074Z" transform="translate(-608.375 833.72)" fill="#caddff"/>
            <path id="Path_1820" data-name="Path 1820" d="M727.611-678.157l-97.5-16.661a4.288,4.288,0,0,1-3.453-4.076h0a2.847,2.847,0,0,1,3.453-2.9l97.5,16.661a4.288,4.288,0,0,1,3.453,4.076h0A2.847,2.847,0,0,1,727.611-678.157Z" transform="translate(-606.627 791.895)" fill="#caddff"/>
            <path id="Path_1821" data-name="Path 1821" d="M598.848-704.787a3.45,3.45,0,0,1-4.183,3.508,5.194,5.194,0,0,1-4.183-4.937,3.449,3.449,0,0,1,4.183-3.508A5.2,5.2,0,0,1,598.848-704.787Z" transform="translate(-588.219 795.938)" fill="#caddff"/>
            <path id="Path_1822" data-name="Path 1822" d="M728.337-708.468l-97.5-16.661a4.288,4.288,0,0,1-3.453-4.075h0a2.848,2.848,0,0,1,3.453-2.9l97.5,16.662a4.288,4.288,0,0,1,3.453,4.075h0A2.847,2.847,0,0,1,728.337-708.468Z" transform="translate(-606.997 807.321)" fill="#caddff"/>
            <ellipse id="Ellipse_87" data-name="Ellipse 87" cx="3.86" cy="4.576" rx="3.86" ry="4.576" transform="translate(0.887 74.629) rotate(-40.981)" fill="#caddff"/>
            <path id="Path_1823" data-name="Path 1823" d="M727.071-646.036l-97.5-16.661a4.288,4.288,0,0,1-3.453-4.076h0a2.848,2.848,0,0,1,3.453-2.9l97.5,16.662a4.288,4.288,0,0,1,3.453,4.076h0A2.847,2.847,0,0,1,727.071-646.036Z" transform="translate(-606.352 775.548)" fill="#caddff"/>
            <path id="Path_1824" data-name="Path 1824" d="M598.307-672.666a3.45,3.45,0,0,1-4.183,3.508,5.2,5.2,0,0,1-4.183-4.937,3.45,3.45,0,0,1,4.183-3.508A5.194,5.194,0,0,1,598.307-672.666Z" transform="translate(-587.944 779.592)" fill="#caddff"/>
            <path id="Path_1825" data-name="Path 1825" d="M726.53-614.463l-97.5-16.661a4.289,4.289,0,0,1-3.453-4.076h0a2.847,2.847,0,0,1,3.453-2.9l97.5,16.661a4.289,4.289,0,0,1,3.453,4.076h0A2.848,2.848,0,0,1,726.53-614.463Z" transform="translate(-606.077 759.481)" fill="#caddff"/>
            <ellipse id="Ellipse_88" data-name="Ellipse 88" cx="3.86" cy="4.576" rx="3.86" ry="4.576" transform="translate(0 120.793) rotate(-40.981)" fill="#caddff"/>
            <path id="Path_1826" data-name="Path 1826" d="M725.988-580.706l-97.5-16.661a4.288,4.288,0,0,1-3.453-4.076h0a2.848,2.848,0,0,1,3.453-2.9l97.5,16.662a4.288,4.288,0,0,1,3.453,4.076h0A2.847,2.847,0,0,1,725.988-580.706Z" transform="translate(-605.801 742.301)" fill="#caddff"/>
            <path id="Path_1827" data-name="Path 1827" d="M597.225-607.336a3.45,3.45,0,0,1-4.183,3.508,5.2,5.2,0,0,1-4.183-4.937,3.45,3.45,0,0,1,4.183-3.508A5.2,5.2,0,0,1,597.225-607.336Z" transform="translate(-587.393 746.345)" fill="#caddff"/>
            <path id="Path_1828" data-name="Path 1828" d="M725.448-548.585l-97.5-16.661a4.288,4.288,0,0,1-3.453-4.076h0a2.848,2.848,0,0,1,3.453-2.9l97.5,16.661a4.289,4.289,0,0,1,3.453,4.076h0A2.847,2.847,0,0,1,725.448-548.585Z" transform="translate(-605.527 725.954)" fill="#caddff"/>
            <path id="Path_1829" data-name="Path 1829" d="M596.685-575.215a3.45,3.45,0,0,1-4.183,3.508,5.2,5.2,0,0,1-4.183-4.937,3.45,3.45,0,0,1,4.183-3.508A5.2,5.2,0,0,1,596.685-575.215Z" transform="translate(-587.118 729.998)" fill="#caddff"/>
            <g id="Group_938" data-name="Group 938" transform="translate(40.352)">
              <path id="Path_1830" data-name="Path 1830" d="M670.476-864.743c0-12.256,9.834-20.511,21.965-18.438s21.964,13.689,21.964,25.945-9.833,20.512-21.964,18.439-21.965-13.689-21.965-25.945Z" transform="translate(-669.281 884.344)" fill="#fff"/>
              <path id="Path_1831" data-name="Path 1831" d="M683.717-810.625a26.552,26.552,0,0,0,15.156,8.673,19.034,19.034,0,0,0,15.156-3.494,57.053,57.053,0,0,0-15.156-4.826,49.369,49.369,0,0,0-15.156-.354Z" transform="translate(-676.019 847.474)" fill="#99b9ff"/>
              <g id="Group_937" data-name="Group 937" transform="translate(13.074 8.705)">
                <path id="Path_1832" data-name="Path 1832" d="M711.523-864.652a7.225,7.225,0,0,0-3.338-1.562l-6.972-1.191a5.346,5.346,0,0,0-4.2.946l-.383.293a5.631,5.631,0,0,0-1.6,6.4l2.292,6.813,14.7,2.419,2.074-6.663A7.2,7.2,0,0,0,711.523-864.652Z" transform="translate(-694.664 867.493)"/>
                <path id="Path_1833" data-name="Path 1833" d="M710.683-857.122l-.014-.009-10.75,5.12v4.038a9.038,9.038,0,0,0,2.824,6.368v6.355a5.6,5.6,0,0,0,4.506,5.319,3.717,3.717,0,0,0,4.507-3.779v-6.183a6.189,6.189,0,0,0,3.043-5.538v-4.424A8.923,8.923,0,0,0,710.683-857.122Z" transform="translate(-697.339 862.22)" fill="#fff"/>
                <path id="Path_1834" data-name="Path 1834" d="M710.178-812.9a5.313,5.313,0,0,1-.889-.077,6.368,6.368,0,0,1-5.119-6.046v-6.223h1.473v6.223a4.84,4.84,0,0,0,3.894,4.594,3.129,3.129,0,0,0,2.6-.632,3.092,3.092,0,0,0,1.05-2.421v-6.028h1.473v6.028a4.54,4.54,0,0,1-1.573,3.547A4.444,4.444,0,0,1,710.178-812.9Z" transform="translate(-699.502 845.993)"/>
                <path id="Path_1835" data-name="Path 1835" d="M707.858-841.725a8.233,8.233,0,0,1-1.386-.12.737.737,0,0,1-.6-.851.737.737,0,0,1,.85-.6,5.634,5.634,0,0,0,4.675-1.148,5.578,5.578,0,0,0,1.9-4.365v-4.424A8.179,8.179,0,0,0,706.721-861l-6.828-1.167v10.81a8.511,8.511,0,0,0,4.016,6.962.736.736,0,0,1,.231,1.016.736.736,0,0,1-1.016.23,10.011,10.011,0,0,1-4.7-8.208v-11.683a.736.736,0,0,1,.261-.563.731.731,0,0,1,.6-.163l7.689,1.314a9.707,9.707,0,0,1,7.8,9.215v4.424a7.026,7.026,0,0,1-2.427,5.491A6.869,6.869,0,0,1,707.858-841.725Z" transform="translate(-696.575 865.601)"/>
              </g>
              <path id="Path_1836" data-name="Path 1836" d="M694.578-838.678c-7.2,0-14.845-3.562-20.247-10.177-8.273-10.132-8.4-23.987-.285-31.543a.735.735,0,0,1,1.041.037.737.737,0,0,1-.037,1.041c-7.547,7.028-7.362,20,.422,29.532,8.173,10.01,21.724,12.659,30.208,5.9a17.65,17.65,0,0,0,6.412-12.1,25.1,25.1,0,0,0-5.853-18.28,25.855,25.855,0,0,0-16.519-9.489.736.736,0,0,1-.64-.821.734.734,0,0,1,.821-.64,27.334,27.334,0,0,1,17.479,10.019,26.581,26.581,0,0,1,6.177,19.369,19.108,19.108,0,0,1-6.959,13.093A19.077,19.077,0,0,1,694.578-838.678Z" transform="translate(-668.042 885.219)"/>
            </g>
          </g>
          <path id="Path_1837" data-name="Path 1837" d="M703.526-710.408a7.141,7.141,0,0,1-1.2-.1L565.145-733.953a8.628,8.628,0,0,1-6.937-8.191v-52.494a.737.737,0,0,1,.737-.737.737.737,0,0,1,.737.737v52.494a7.1,7.1,0,0,0,5.712,6.739l137.184,23.442a4.677,4.677,0,0,0,3.884-.952,4.629,4.629,0,0,0,1.58-3.625v-181.7a7.1,7.1,0,0,0-5.712-6.738L565.145-928.425a4.678,4.678,0,0,0-3.884.952,4.628,4.628,0,0,0-1.58,3.625v91.4a.737.737,0,0,1-.737.737.737.737,0,0,1-.737-.737v-91.4a6.08,6.08,0,0,1,2.1-4.751,6.139,6.139,0,0,1,5.082-1.278l137.184,23.442a8.628,8.628,0,0,1,6.937,8.191v181.7a6.08,6.08,0,0,1-2.1,4.751A5.944,5.944,0,0,1,703.526-710.408Z" transform="translate(-558.208 929.98)"/>
        </g>
      </g>
    </g>
    <g id="Group_961" data-name="Group 961" transform="translate(601.078 -984.882)">
      <g id="Group_952" data-name="Group 952" transform="translate(0 35.808)">
        <g id="Group_950" data-name="Group 950" transform="translate(0 67.316)">
          <g id="Group_945" data-name="Group 945" transform="translate(80.266 151.79)">
            <g id="Group_943" data-name="Group 943" transform="translate(0.827)">
              <path id="Path_1838" data-name="Path 1838" d="M1084.643-344.316l2.55,17.9,6.524.025.307-17.607Z" transform="translate(-1083.906 345.054)" fill="#fff"/>
              <path id="Path_1839" data-name="Path 1839" d="M1092.954-326.417h0l-6.524-.025a.737.737,0,0,1-.726-.633l-2.55-17.9a.735.735,0,0,1,.181-.6.711.711,0,0,1,.573-.244l9.382.32a.737.737,0,0,1,.712.749l-.307,17.607A.737.737,0,0,1,1092.954-326.417Zm-5.885-1.5,5.161.019.282-16.156-7.779-.265Z" transform="translate(-1083.143 345.818)"/>
            </g>
            <g id="Group_944" data-name="Group 944" transform="translate(0 13.603)">
              <path id="Path_1840" data-name="Path 1840" d="M1086.116-295.216a60.348,60.348,0,0,0,11.467-.065,3.146,3.146,0,0,0,2.813-3.653c-.791-4.859-3-13.43-6.478-17.362l-1.719,2.45-1.02-2.532c-.164-.274-4.489-.454-4.579.059l-.263,2.472-2.454-2.751.135,9.033a13.673,13.673,0,0,1-.281,2.971l-.645,3.122a5.943,5.943,0,0,0,1.405,5.27A2.843,2.843,0,0,0,1086.116-295.216Z" transform="translate(-1082.223 317.369)" fill="#fff"/>
              <path id="Path_1841" data-name="Path 1841" d="M1090.307-294.991a47.406,47.406,0,0,1-5.033-.243,3.5,3.5,0,0,1-2.079-1.214,6.671,6.671,0,0,1-1.589-5.923l.645-3.123a12.965,12.965,0,0,0,.266-2.81l-.135-9.033a.737.737,0,0,1,.469-.7.736.736,0,0,1,.817.2l1.348,1.511.087-.819c0-.017,0-.033.007-.05.114-.646.834-.779,1.071-.823.041-.008,4.3-.424,4.865.513a.675.675,0,0,1,.052.1l.513,1.273.94-1.339a.738.738,0,0,1,.562-.313.748.748,0,0,1,.594.247c4.487,5.072,6.445,16.451,6.654,17.732a3.927,3.927,0,0,1-.772,3.032,3.813,3.813,0,0,1-2.7,1.474C1094.332-295.073,1092.144-294.991,1090.307-294.991Zm-6.422-20.392.105,7.057a14.458,14.458,0,0,1-.3,3.131l-.645,3.122a5.2,5.2,0,0,0,1.22,4.617,2.2,2.2,0,0,0,1.162.758h0a59.171,59.171,0,0,0,11.324-.067,2.354,2.354,0,0,0,1.67-.911,2.448,2.448,0,0,0,.481-1.89c-.688-4.226-2.632-12.119-5.709-16.258l-1.158,1.651a.735.735,0,0,1-.687.309.738.738,0,0,1-.6-.457l-.895-2.219a15.467,15.467,0,0,0-3.331-.048l-.22,2.07a.738.738,0,0,1-.507.623.735.735,0,0,1-.775-.211Z" transform="translate(-1081.459 318.118)"/>
            </g>
            <path id="Path_1842" data-name="Path 1842" d="M1093.356-279.647a25.945,25.945,0,0,1-4.749-.373.737.737,0,0,1-.575-.868.738.738,0,0,1,.868-.577,32.121,32.121,0,0,0,10.764-.217.737.737,0,0,1,.853.6.737.737,0,0,1-.6.854A38.059,38.059,0,0,1,1093.356-279.647Z" transform="translate(-1084.796 313.184)"/>
            <path id="Path_1843" data-name="Path 1843" d="M1099.795-293.034h-5.919a.737.737,0,0,1-.737-.737.737.737,0,0,1,.737-.737h5.919a.737.737,0,0,1,.737.737A.737.737,0,0,1,1099.795-293.034Z" transform="translate(-1087.403 319.705)"/>
          </g>
          <g id="Group_948" data-name="Group 948" transform="translate(0 151.627)">
            <g id="Group_946" data-name="Group 946" transform="translate(23.192)">
              <path id="Path_1844" data-name="Path 1844" d="M977.812-342.888l-2.3,20.866-8.777,1.838.534-24.466Z" transform="translate(-966.003 345.388)" fill="#fff"/>
              <path id="Path_1845" data-name="Path 1845" d="M965.976-320.211a.739.739,0,0,1-.47-.17.737.737,0,0,1-.266-.583l.534-24.466a.735.735,0,0,1,.267-.551.729.729,0,0,1,.591-.159l10.538,1.763a.736.736,0,0,1,.611.807l-2.3,20.865a.737.737,0,0,1-.581.64l-8.777,1.838A.717.717,0,0,1,965.976-320.211Zm1.252-24.336-.5,22.688,7.346-1.538,2.161-19.643Z" transform="translate(-965.24 346.152)"/>
            </g>
            <g id="Group_947" data-name="Group 947" transform="translate(0 18.799)">
              <path id="Path_1846" data-name="Path 1846" d="M955.194-292.592c.193-3.656.2-10.39-2.029-13.636l-7.021,2.5v-1.5a.876.876,0,0,0-.785-.907l-3.915-.224a8.506,8.506,0,0,0-4.252.875c-3.937,1.935-15.913,6.9-17.574,12.481a2.651,2.651,0,0,0,2.514,3.342c3.942.113,13.419.237,30.425-.345A2.733,2.733,0,0,0,955.194-292.592Z" transform="translate(-918.777 307.109)" fill="#fff"/>
              <path id="Path_1847" data-name="Path 1847" d="M929.233-289.592c-3.613,0-6.193-.047-7.885-.1a3.477,3.477,0,0,1-2.7-1.43,3.257,3.257,0,0,1-.5-2.859c1.555-5.229,11.105-9.709,16.236-12.115.667-.313,1.25-.586,1.718-.817a9.261,9.261,0,0,1,4.619-.949l3.916.224a1.611,1.611,0,0,1,1.479,1.642v.456l6.037-2.15a.737.737,0,0,1,.854.277c2.344,3.416,2.358,10.295,2.157,14.091h0a3.451,3.451,0,0,1-3.347,3.284C941.845-289.691,934.459-289.592,929.233-289.592ZM940.208-306.4a7.843,7.843,0,0,0-3.455.812c-.475.234-1.067.511-1.743.828-4.571,2.145-14.082,6.606-15.45,11.2a1.8,1.8,0,0,0,.28,1.574,2,2,0,0,0,1.549.821c4.122.118,13.549.231,30.379-.344a1.986,1.986,0,0,0,1.926-1.89h0c.3-5.736-.281-10.3-1.607-12.7l-6.46,2.3a.738.738,0,0,1-.672-.092.737.737,0,0,1-.312-.6v-1.5c0-.109-.063-.169-.09-.171l-3.916-.224C940.5-306.395,940.352-306.4,940.208-306.4Zm14.223,13.043h0Z" transform="translate(-918.013 307.872)"/>
            </g>
            <path id="Path_1848" data-name="Path 1848" d="M936.765-280.342c-5.232,0-8.534-.242-8.6-.247a.737.737,0,0,1-.679-.791.731.731,0,0,1,.79-.679,161.366,161.366,0,0,0,27.4-.821.735.735,0,0,1,.817.647.737.737,0,0,1-.647.817A168.037,168.037,0,0,1,936.765-280.342Z" transform="translate(-922.835 313.954)"/>
            <path id="Path_1849" data-name="Path 1849" d="M950.048-296.434a.735.735,0,0,1-.6-.307.736.736,0,0,1,.168-1.028l6.759-4.862a.737.737,0,0,1,1.028.168.737.737,0,0,1-.168,1.028l-6.759,4.861A.734.734,0,0,1,950.048-296.434Z" transform="translate(-933.941 324.074)"/>
          </g>
          <g id="Group_949" data-name="Group 949" transform="translate(21.988)">
            <path id="Path_1850" data-name="Path 1850" d="M973.063-646.572s-12.581,96.711-9.9,154.314l3.925.393a42.416,42.416,0,0,0,6.353.157l3.723-.187s15-97.909,22.494-112.441c0,0,20.374,88.222,21.159,109.3,0,0,9.056.91,12.665-.389,1.939-20.345,2.5-51.81,2.6-65.031.277-37.839-3.339-55.026-5.32-63.18-1.821-7.487-3.774-13.571-5.2-17.687l-4.764-13.589Z" transform="translate(-962.788 654.908)"/>
            <path id="Path_1851" data-name="Path 1851" d="M1028.951-560.423a.737.737,0,0,1-.724-.607l-1.162-6.473a4.9,4.9,0,0,0-3.739-3.483l-1.958-.4a.736.736,0,0,1-.572-.871.733.733,0,0,1,.87-.572l1.958.4a6.365,6.365,0,0,1,4.87,4.567c.006.022.011.043.015.065l1.168,6.506a.736.736,0,0,1-.595.856A.747.747,0,0,1,1028.951-560.423Z" transform="translate(-992.301 613.147)" fill="#caddff"/>
            <path id="Path_1852" data-name="Path 1852" d="M1075.159-582.949a.74.74,0,0,1-.122-.01c-11.748-1.958-14.149-11.32-14.172-11.414a.738.738,0,0,1,.543-.89.737.737,0,0,1,.889.541c.086.349,2.226,8.517,12.983,10.31a.736.736,0,0,1,.6.848A.736.736,0,0,1,1075.159-582.949Z" transform="translate(-1012.69 624.565)" fill="#caddff"/>
            <path id="Path_1853" data-name="Path 1853" d="M981.794-596.538a.736.736,0,0,1-.676-.443.737.737,0,0,1,.382-.969,9.181,9.181,0,0,0,5.871-8.257.737.737,0,0,1,.708-.764.735.735,0,0,1,.764.708,10.713,10.713,0,0,1-6.756,9.665A.741.741,0,0,1,981.794-596.538Z" transform="translate(-972.085 630.513)" fill="#caddff"/>
          </g>
        </g>
        <path id="Path_1854" data-name="Path 1854" d="M1065.024-621.384c1.144,3.912,2.938,9.324.952,11.923-3.609,4.722-6.6,3.964-11.057,2.34-8.909-3.248-23.126-8.378-27.277-5.526l-.184-8.737Z" transform="translate(-973.711 705.163)"/>
        <path id="Path_1855" data-name="Path 1855" d="M972.3-791.982a19.26,19.26,0,0,0-17.4,10.759c-3.751,7.658-9.044,27.7-9.251,36.45-.36,15.3,13.04,16.16,13.438,16.182a.008.008,0,0,1,.008.009c-.042.442-1.608,17.065-1.732,20.016-.226,5.4,9.783,13.817,21.28,9.669,11.439-4.128,42.69-12.351,45.864-5.349a.008.008,0,1,0,.015-.005l-13.11-48.636a.009.009,0,0,1,.009-.011l10.761.52h.005l8.765-5.068a.009.009,0,0,0,0-.01l-2.22-9.83c-4.216-16.8-15.5-24.5-30.053-24.57Z" transform="translate(-932.075 791.982)" fill="#5479f7"/>
        <g id="Group_951" data-name="Group 951" transform="translate(67.887 23.807)">
          <path id="Path_1856" data-name="Path 1856" d="M1063.866-729.02c2.011-.372,1.461-2.7,8.529-3.125,20.394-1.215,10.511-11.57-1.173-9.6-3.872.654-5.4,3.159-6.852,3.794C1052.147-732.615,1059.857-728.279,1063.866-729.02Z" transform="translate(-1057.018 742.735)" fill="#fff"/>
          <path id="Path_1857" data-name="Path 1857" d="M1062.142-728.971c-2.375,0-5.155-1.231-5.763-3.216-.515-1.683.269-4.3,6.93-7.207a6.615,6.615,0,0,0,1.327-.961,11.263,11.263,0,0,1,5.7-2.885c5.975-1.007,11.166,1.008,13.017,3.419a3.172,3.172,0,0,1,.53,3.348c-1.094,2.4-5.316,3.882-12.208,4.293-4.491.268-5.694,1.315-6.573,2.079a3.723,3.723,0,0,1-1.866,1.034h0A6.008,6.008,0,0,1,1062.142-728.971Zm11.245-13.05a16.9,16.9,0,0,0-2.809.235,9.859,9.859,0,0,0-5,2.561,7.438,7.438,0,0,1-1.683,1.182c-4.292,1.873-6.576,3.9-6.11,5.425.457,1.493,3.306,2.45,5.177,2.1h0a2.351,2.351,0,0,0,1.167-.7c1.038-.9,2.46-2.141,7.452-2.438,8.955-.534,10.649-2.763,10.955-3.434a1.728,1.728,0,0,0-.358-1.839C1080.9-740.6,1077.415-742.021,1073.387-742.021Z" transform="translate(-1056.25 743.504)"/>
        </g>
      </g>
      <g id="Group_958" data-name="Group 958" transform="translate(43.276)">
        <g id="Group_957" data-name="Group 957">
          <g id="Group_955" data-name="Group 955">
            <g id="Group_953" data-name="Group 953" transform="translate(4.693 15.225)">
              <path id="Path_1858" data-name="Path 1858" d="M1017.548-809.686a1.033,1.033,0,0,1,.571-1.8l1.382-.166a3.878,3.878,0,0,0,3.208-2.535l2.278-16.822,4.672,1.67,6.182-3.057-.552,17.976a3.846,3.846,0,0,0,2.578,3.493l1.807.646a1.086,1.086,0,0,1,.074,2.031C1036.068-806.648,1021.113-806.636,1017.548-809.686Z" transform="translate(-1016.457 833.133)" fill="#fff"/>
              <path id="Path_1859" data-name="Path 1859" d="M1029.945-807.219c-5.418,0-11.415-.768-13.64-2.671h0a1.727,1.727,0,0,1-.535-1.836,1.764,1.764,0,0,1,1.5-1.256l1.383-.167a3.163,3.163,0,0,0,2.577-1.981l2.267-16.743a.735.735,0,0,1,.347-.53.74.74,0,0,1,.631-.064l4.377,1.566,5.9-2.919a.74.74,0,0,1,.725.041.736.736,0,0,1,.338.642l-.553,17.976a3.083,3.083,0,0,0,2.09,2.777l1.806.646a1.83,1.83,0,0,1,1.227,1.663,1.823,1.823,0,0,1-1.107,1.737C1037.677-807.643,1033.97-807.219,1029.945-807.219Zm-12.682-3.79c3.19,2.729,17.706,2.94,21.425,1.319a.34.34,0,0,0,.224-.336.351.351,0,0,0-.251-.326l-1.807-.646a4.557,4.557,0,0,1-3.066-4.165l.515-16.792-5.081,2.512a.733.733,0,0,1-.574.033l-3.816-1.364-2.156,15.921a.739.739,0,0,1-.035.147,4.584,4.584,0,0,1-3.815,3.02l-1.382.167a.3.3,0,0,0-.262.22.26.26,0,0,0,.082.29Z" transform="translate(-1015.693 833.896)"/>
            </g>
            <g id="Group_954" data-name="Group 954" transform="translate(2.161 1.962)">
              <path id="Path_1860" data-name="Path 1860" d="M1020.29-858.132c-7.961,2.931-6.592,8.082-6.592,8.082a21.88,21.88,0,0,1-.108,4.953c-.218.776-1.49,2.236-1.551,2.667s.628,1.316,2.006,1.63c0,0,.523,6.885,2.328,8.012s8.755-1.036,8.755-1.036l1.169-.469c3.766-1.51,6.068-4.651,7.164-8.537C1033.463-842.83,1038.533-864.849,1020.29-858.132Z" transform="translate(-1011.3 860.141)" fill="#fff"/>
              <path id="Path_1861" data-name="Path 1861" d="M1017.332-832.5a4.134,4.134,0,0,1-2.111-.428c-1.814-1.134-2.451-6.178-2.629-8.071-1.408-.494-2.154-1.522-2.045-2.3a3.88,3.88,0,0,1,.762-1.406,7.149,7.149,0,0,0,.809-1.357,21.1,21.1,0,0,0,.085-4.656c-.146-.752-.837-5.961,7.069-8.871h0c5.187-1.91,9.106-1.743,11.648.5,5.016,4.419,2.6,15.206,2.5,15.663-1.252,4.441-3.88,7.56-7.608,9.056l-1.169.469-.056.02A29.494,29.494,0,0,1,1017.332-832.5Zm-5.3-10.621a2.228,2.228,0,0,0,1.412.837.738.738,0,0,1,.571.662c.206,2.705.958,6.8,1.984,7.443,1.042.653,5.364-.252,8.118-1.106l1.142-.458c3.289-1.318,5.616-4.1,6.729-8.053.015-.069,2.315-10.355-2.045-14.193-2.1-1.853-5.524-1.927-10.163-.218h0c-7.181,2.644-6.18,7.023-6.134,7.208a.8.8,0,0,1,.021.132,22.777,22.777,0,0,1-.133,5.2,7.169,7.169,0,0,1-1.013,1.792C1012.364-843.633,1012.133-843.3,1012.035-843.117Zm7.493-15.777h0Z" transform="translate(-1010.536 860.903)"/>
            </g>
            <path id="Path_1862" data-name="Path 1862" d="M1019.909-864.656c-2.093.511-4.139,1.817-5.22,1.933-1.744.187-3-2.052-5.206-1.24a5.132,5.132,0,0,0-3.3,4.22,4.2,4.2,0,0,0-.029.988c.409,4.7,3.349,5.7,4.543,5.909,0,0,6.912-.639,8.26-.312,1.261.306,3.211,2.268,3.8,5.058a.835.835,0,0,0,.759.65h0a.842.842,0,0,0,.9-.69c.231-1.34.862-4.018,2.222-4.1,1.586-.092,3.607,3.043,1.533,5.009a1.245,1.245,0,0,0,.391,2.036,2.312,2.312,0,0,0,2.451-.456s4.092-7.174,2.14-13.229S1022.694-865.336,1019.909-864.656Z" transform="translate(-1006.136 864.898)"/>
          </g>
          <g id="Group_956" data-name="Group 956" transform="translate(0.906 12.243)">
            <path id="Path_1863" data-name="Path 1863" d="M1009.733-832.216a.732.732,0,0,1-.5-.2,4.961,4.961,0,0,1-1.24-3.314,6.048,6.048,0,0,1,.393-2.6c.509-1.2,1.275-1.418,1.687-1.439,1.1-.069,2.031,1.057,2.37,2.839a.737.737,0,0,1-.586.862.738.738,0,0,1-.862-.585c-.219-1.149-.694-1.644-.844-1.644h0c-.049,0-.234.135-.405.542a4.627,4.627,0,0,0-.279,1.953,3.641,3.641,0,0,0,.771,2.309.736.736,0,0,1,.039,1.041A.732.732,0,0,1,1009.733-832.216Z" transform="translate(-1007.982 839.868)"/>
            <path id="Path_1864" data-name="Path 1864" d="M1019.593-831.858c-1.52,0-2.783-1.691-2.9-3.912a5.252,5.252,0,0,1,.572-2.769,2.508,2.508,0,0,1,2.012-1.426c1.582-.085,2.885,1.637,3,3.909a5.246,5.246,0,0,1-.572,2.769,2.51,2.51,0,0,1-2.012,1.427Zm-.211-6.636h-.027a1.1,1.1,0,0,0-.8.666,3.82,3.82,0,0,0-.391,1.982c.077,1.478.838,2.532,1.457,2.514a1.1,1.1,0,0,0,.8-.666,3.817,3.817,0,0,0,.391-1.982C1020.735-837.436,1020-838.494,1019.382-838.494Z" transform="translate(-1012.412 839.968)"/>
            <path id="Path_1865" data-name="Path 1865" d="M1025.318-835.631a.737.737,0,0,1-.733-.671.737.737,0,0,1,.668-.8l7.6-.68a.739.739,0,0,1,.8.668.738.738,0,0,1-.668.8l-7.6.68Z" transform="translate(-1016.43 838.857)"/>
          </g>
        </g>
      </g>
      <g id="Group_959" data-name="Group 959" transform="translate(46.122 25.732)">
        <path id="Path_1866" data-name="Path 1866" d="M1031.753-789.519s-2.958,4.64-5.622,3.821c-1.4-.431-2.766-5.007-3.324-5.169-1.786-.52-5.187-1.368-7.276-5.1-1.951-3.484-1.525-5.346-1.022-6.2a1.176,1.176,0,0,0-.029-1.262,2.318,2.318,0,0,1-.358-2.241,1.192,1.192,0,0,0-.01-.947c-.5-1.154-1.414-3.809.371-4.333a1.2,1.2,0,0,1,1.3.445,12.875,12.875,0,0,0,3.21,3.183c2.067,1.315,3.305,2.214,4.343,2.806.89.507,1.358-3.932,3.5-5.6,1.9-1.48,2.543-.732,2.733-.036s-.985.972-1.654,4.28a23.618,23.618,0,0,0,.274,8.875C1028.463-794.955,1031.753-789.519,1031.753-789.519Z" transform="translate(-1012.694 811.736)" fill="#fff"/>
        <path id="Path_1867" data-name="Path 1867" d="M1026.028-785.627a2.978,2.978,0,0,1-.876-.131c-1.084-.333-1.879-1.885-2.806-3.88a14.8,14.8,0,0,0-.666-1.333l-.063-.018a11.411,11.411,0,0,1-7.491-5.383c-2.053-3.666-1.684-5.794-1.014-6.934a.441.441,0,0,0,0-.475,3.009,3.009,0,0,1-.422-2.951.467.467,0,0,0-.012-.361c-.539-1.254-1.063-3-.495-4.212a2.069,2.069,0,0,1,1.335-1.118,1.93,1.93,0,0,1,2.1.719,12.127,12.127,0,0,0,3.009,2.994c.906.577,1.655,1.074,2.3,1.5s1.186.789,1.663,1.078c.145-.289.327-.752.471-1.119a9.827,9.827,0,0,1,2.561-4.214c1.121-.874,2.033-1.179,2.787-.926a1.751,1.751,0,0,1,1.109,1.278,1.671,1.671,0,0,1-.4,1.441,7.917,7.917,0,0,0-1.247,3.178,20.3,20.3,0,0,0,.126,7.646c.061.365.116.694.155.982.212,1.553,2.576,5.722,3.469,7.2a.735.735,0,0,1-.009.777C1031.309-789.413,1028.807-785.627,1026.028-785.627Zm-11.974-25.4a.447.447,0,0,0-.127.018.6.6,0,0,0-.416.332,4.507,4.507,0,0,0,.515,3,1.935,1.935,0,0,1,.008,1.534,1.565,1.565,0,0,0,.293,1.532,1.9,1.9,0,0,1,.054,2.048c-.389.661-.772,2.25,1.03,5.468a9.967,9.967,0,0,0,6.614,4.686l.225.065c.538.158.818.76,1.432,2.081.407.875,1.36,2.925,1.9,3.092,1.557.479,3.632-1.88,4.532-3.142-.814-1.376-3.17-5.486-3.425-7.355-.038-.276-.09-.59-.149-.94a21.6,21.6,0,0,1-.117-8.181,9.336,9.336,0,0,1,1.463-3.7c.068-.1.15-.227.187-.3-.038-.115-.09-.2-.136-.212-.015,0-.385-.115-1.416.69a8.8,8.8,0,0,0-2.1,3.589c-.455,1.161-.755,1.927-1.385,2.15a1,1,0,0,1-.834-.08c-.607-.346-1.267-.785-2.1-1.34-.635-.422-1.375-.914-2.271-1.484a13.616,13.616,0,0,1-3.411-3.372A.458.458,0,0,0,1014.054-811.026Z" transform="translate(-1011.932 812.5)"/>
      </g>
      <path id="Path_1868" data-name="Path 1868" d="M1030.894-768.995l8.957-5.707s12.109,19.579,21.279,26.225c4.465,3.235,13.126-.569,13.126-.569s8.315,31.957-7.735,36.525C1039.786-704.911,1030.894-768.995,1030.894-768.995Z" transform="translate(-975.46 818.996)" fill="#5479f7"/>
      <g id="Group_960" data-name="Group 960" transform="translate(25.912 43.4)">
        <path id="Path_1869" data-name="Path 1869" d="M973.342-678.037a17.6,17.6,0,0,1-1.907-.1.736.736,0,0,1-.653-.812.736.736,0,0,1,.812-.653c9.784,1.063,25.213-7.469,35.455-15.1a.737.737,0,0,1,1.031.15.737.737,0,0,1-.151,1.031C997.636-685.852,983.473-678.037,973.342-678.037Z" transform="translate(-970.778 734.957)" fill="#caddff"/>
        <path id="Path_1870" data-name="Path 1870" d="M994.635-725.432a6.873,6.873,0,0,1-1.622-.17c-8.876-2.174-6.821-13.276-6.8-13.388a.737.737,0,0,1,.863-.582.737.737,0,0,1,.583.863c-.078.4-1.807,9.836,5.7,11.676,3.778.924,13.706-3.165,17.213-4.817a.736.736,0,0,1,.981.352.737.737,0,0,1-.353.981C1010.722-730.291,1000.345-725.432,994.635-725.432Z" transform="translate(-978.521 757.725)" fill="#caddff"/>
        <path id="Path_1871" data-name="Path 1871" d="M1070.681-747.737a.732.732,0,0,1-.44-.146c-9.823-7.342-21.524-26.7-22.017-27.523a.736.736,0,0,1,.252-1.011.736.736,0,0,1,1.011.252c.119.2,12.045,19.933,21.636,27.1a.737.737,0,0,1,.149,1.031A.737.737,0,0,1,1070.681-747.737Z" transform="translate(-1010.137 776.523)" fill="#caddff"/>
        <path id="Path_1872" data-name="Path 1872" d="M1061.916-708.27c-21.455,0-32.061-55.609-32.51-58.015a.737.737,0,0,1,.329-.756l3.905-2.487a.737.737,0,0,1,1.017.226.737.737,0,0,1-.225,1.018l-3.482,2.216c1.122,5.646,12.081,57.983,31.921,56.284a.732.732,0,0,1,.8.67.736.736,0,0,1-.67.8C1062.635-708.286,1062.273-708.27,1061.916-708.27Z" transform="translate(-1000.608 773.022)" fill="#caddff"/>
      </g>
    </g>
    <g id="Group_977" data-name="Group 977" transform="translate(295.241 -974.144)">
      <path id="Path_1873" data-name="Path 1873" d="M375.53-831.56c5.926-4.489,11.648-9.227,19.681-8.637,3.961.291,4.695,1.237,8.685-.343,1.636-.647,3.887-3.155,5.813-2.329,2.612,1.122,3.365,7,2.1,11.756-1.26,4.723-5.521,7.686-8.029,11.662a103.445,103.445,0,0,1-12.814,16.717c-5.142,5.439-10.134,11.842-10.425,19.32-.263,6.781,3.4,13.074,4.43,19.781,2.479,16.22-9.991,27.033-24.406,30.7-5.659,1.438-11.821,1.463-17.184-.847-9.095-3.917-8.654-10.932-12.359-18.579-1.52-3.138-4.416-5.335-6.775-7.9-7.109-7.732-13.265-29.751,1.778-32.891,3.753-.783,7.935.414,11.325-1.382,4.636-2.458,4.146-7.543,5.742-11.745a26.87,26.87,0,0,1,8.173-10.738C358.568-823.057,367.984-825.845,375.53-831.56Z" transform="translate(-306.187 843.034)"/>
      <g id="Group_966" data-name="Group 966" transform="translate(0 94.219)">
        <g id="Group_963" data-name="Group 963" transform="translate(9 150.01)">
          <g id="Group_962" data-name="Group 962">
            <path id="Path_1874" data-name="Path 1874" d="M336.264-340.094a89.67,89.67,0,0,0-6.619,17.469c-.7,2.9.054,4.545.716,6.9.952,3.383,2.024,4.967,1.559,5.927-.978,2.016-12.2,1.517-15.918-4.611-1.189-1.958-1.434-4.829.527-15.055,2.012-10.492,1.264-12.13,2.812-13.406C324.215-346.891,334.909-340.875,336.264-340.094Z" transform="translate(-314.338 344.965)" fill="#fff"/>
            <path id="Path_1875" data-name="Path 1875" d="M327.446-308.75c-3.918,0-10.12-1.541-12.844-6.027-1.316-2.166-1.586-5.049.433-15.577.819-4.27,1.183-7.1,1.423-8.969.367-2.858.5-3.927,1.645-4.867,5.109-4.211,15.69,1.518,17.759,2.709l.6.344-.305.62a87.837,87.837,0,0,0-6.563,17.316,9.31,9.31,0,0,0,.421,5.546c.095.316.192.641.287.98.349,1.238.718,2.241,1.015,3.048.557,1.516.926,2.517.5,3.4-.528,1.089-2.313,1.4-3.718,1.462C327.886-308.754,327.669-308.75,327.446-308.75Zm-4.456-35.505a6.07,6.07,0,0,0-3.951,1.2c-.667.549-.765,1.154-1.12,3.918-.243,1.889-.609,4.743-1.437,9.059-1.906,9.939-1.689,12.776-.621,14.535,2.508,4.13,8.755,5.442,12.1,5.309,1.688-.071,2.442-.467,2.526-.636.155-.319-.174-1.213-.555-2.248-.305-.831-.686-1.864-1.049-3.158-.093-.331-.189-.647-.281-.955a10.632,10.632,0,0,1-.442-6.315,88.1,88.1,0,0,1,6.366-16.994C332.626-341.572,327.275-344.255,322.99-344.255Z" transform="translate(-313.567 345.713)"/>
          </g>
          <path id="Path_1876" data-name="Path 1876" d="M332.438-294.644c-.022,0-.043,0-.065,0-4.676-.407-8.029-2.124-9.964-5.1-3.568-5.491-.979-13.2-.867-13.521a.736.736,0,0,1,.936-.457.736.736,0,0,1,.458.936c-.025.073-2.466,7.362.713,12.244,1.676,2.576,4.655,4.067,8.853,4.432a.736.736,0,0,1,.67.8A.736.736,0,0,1,332.438-294.644Z" transform="translate(-317.11 329.455)" fill="#5479f7"/>
        </g>
        <g id="Group_965" data-name="Group 965" transform="translate(79.743 166.565)">
          <g id="Group_964" data-name="Group 964" transform="translate(0 0)">
            <path id="Path_1877" data-name="Path 1877" d="M460.475-309.658s.582,4.517-1.322,14.9c-.274,1.491,1.309,2.718,2.819,2.851a309.348,309.348,0,0,0,32.713,1.142,2.48,2.48,0,0,0,2.183-1.616c2.235-6.517-15.558-8.6-16.28-13.015C479.3-313.295,460.475-309.658,460.475-309.658Z" transform="translate(-458.385 311.234)" fill="#fff"/>
            <path id="Path_1878" data-name="Path 1878" d="M488.091-290.7c-12.6,0-25.337-1.09-26.947-1.232a4.231,4.231,0,0,1-2.926-1.562,2.691,2.691,0,0,1-.553-2.156c1.861-10.156,1.322-14.633,1.316-14.677l-.088-.686.679-.132c.539-.1,13.247-2.5,18.623,1.244a5.375,5.375,0,0,1,2.358,3.627c.242,1.481,3.78,3,6.9,4.333,5.087,2.18,10.853,4.649,9.347,9.039a3.23,3.23,0,0,1-2.857,2.114C492.026-290.731,490.059-290.7,488.091-290.7ZM460.5-309.815c.09,1.645.12,6.215-1.385,14.426a1.241,1.241,0,0,0,.276,1,2.8,2.8,0,0,0,1.884.987,314.951,314.951,0,0,0,32.625,1.139,1.74,1.74,0,0,0,1.51-1.119c1.062-3.1-3.816-5.186-8.533-7.207-3.973-1.7-7.4-3.171-7.777-5.45a3.9,3.9,0,0,0-1.746-2.655C473.127-311.643,463.138-310.248,460.5-309.815Z" transform="translate(-457.621 312.001)"/>
          </g>
          <path id="Path_1879" data-name="Path 1879" d="M489.418-278.447c-11.146,0-22.808-1.649-24.551-2.768a.736.736,0,0,1-.221-1.018.737.737,0,0,1,1.018-.221c1.5.962,17.353,3.247,30.27,2.316a.739.739,0,0,1,.788.682.737.737,0,0,1-.682.788C493.911-278.515,491.675-278.447,489.418-278.447Z" transform="translate(-461.137 297.024)" fill="#5479f7"/>
        </g>
        <path id="Path_1880" data-name="Path 1880" d="M406.477-645.1s-1.533,108.8,3.643,157.85a13.059,13.059,0,0,1-13.7,14.4,33.466,33.466,0,0,1-8.8-1.825,47.132,47.132,0,0,0-17.732-2.769,7.225,7.225,0,0,1-7.6-7.255c.056-21.111.586-74.409,4.418-96.787,0,0-16.244,47.1-29.558,88.688a11.391,11.391,0,0,1-11.453,7.887,51.923,51.923,0,0,1-22.884-6.858,14.98,14.98,0,0,1-6.959-17.254c7.214-24.676,29.268-88.585,76.759-142.161Z" transform="translate(-295.241 651.177)"/>
        <path id="Path_1881" data-name="Path 1881" d="M433.967-529.556a.73.73,0,0,1-.211-.031.737.737,0,0,1-.5-.917c1.935-6.481,6.914-19.557,10.928-29.631a19.26,19.26,0,0,1,13.489-11.614.737.737,0,0,1,.885.548.737.737,0,0,1-.55.885,17.787,17.787,0,0,0-12.456,10.725c-4,10.046-8.963,23.072-10.884,29.508A.737.737,0,0,1,433.967-529.556Z" transform="translate(-365.465 610.765)" fill="#caddff"/>
      </g>
      <g id="Group_972" data-name="Group 972" transform="translate(20.214 26.818)">
        <g id="Group_968" data-name="Group 968" transform="translate(38.649)">
          <g id="Group_967" data-name="Group 967" transform="translate(53.859)">
            <path id="Path_1882" data-name="Path 1882" d="M598.287-784.463a1.563,1.563,0,0,0-.558-2.288,1.6,1.6,0,0,0-1.844.3l-7.787,7.538-.829-.159a2.889,2.889,0,0,0-3.408,2.462s.1,4.819-1.351,6.7c-7.488,9.72-24.627,26.761-27.272,26.761-2.84,0-7.572-2.65-7.572-2.65l-21.39,4.164S537.256-724.21,556-728.374c15.785-3.508,30.09-29.306,34.211-37.357a5.146,5.146,0,0,1,2.254-2.222,5.252,5.252,0,0,0,1.13-.781l3.214-2.914a3.909,3.909,0,0,0,1-4.363l-.77-1.9a6,6,0,0,1,.66-5.7Z" transform="translate(-525.54 787.659)" fill="#fff"/>
            <path id="Path_1883" data-name="Path 1883" d="M549.551-727.767c-15.49,0-24.56-14.071-24.661-14.231a.736.736,0,0,1-.053-.685.736.736,0,0,1,.535-.431l21.39-4.164a.74.74,0,0,1,.5.08c.046.026,4.6,2.556,7.212,2.556,2.218-.141,18.814-16.253,26.688-26.474,1.06-1.375,1.225-4.971,1.2-6.24a.722.722,0,0,1,.006-.111,3.592,3.592,0,0,1,1.471-2.467,3.6,3.6,0,0,1,2.805-.623l.453.087,7.511-7.272a2.326,2.326,0,0,1,2.7-.426,2.307,2.307,0,0,1,1.174,1.5,2.3,2.3,0,0,1-.357,1.865h0l-.594.843a5.235,5.235,0,0,0-.579,5l.771,1.9a4.664,4.664,0,0,1-1.186,5.185l-3.214,2.913a6,6,0,0,1-1.288.891,4.39,4.39,0,0,0-1.935,1.9c-4.067,7.948-18.592,34.159-34.707,37.74A26.835,26.835,0,0,1,549.551-727.767Zm-22.782-14.118c2.56,3.453,12.755,15.478,28.3,12.026,15.487-3.442,29.721-29.17,33.714-36.974a5.862,5.862,0,0,1,2.574-2.542,4.526,4.526,0,0,0,.971-.671l3.214-2.914a3.183,3.183,0,0,0,.81-3.541l-.771-1.9a6.7,6.7,0,0,1,.741-6.406l.595-.843a.826.826,0,0,0,.128-.67.824.824,0,0,0-.427-.541.87.87,0,0,0-.989.18l-7.787,7.538a.742.742,0,0,1-.651.195l-.829-.159a2.133,2.133,0,0,0-1.666.369,2.132,2.132,0,0,0-.866,1.414c.011.746.011,5.14-1.506,7.109-7.064,9.171-24.626,27.049-27.855,27.049-2.652,0-6.664-2.061-7.691-2.613Zm70.755-43.343h0Z" transform="translate(-524.777 788.425)"/>
          </g>
          <path id="Path_1884" data-name="Path 1884" d="M477.121-750.334a19.352,19.352,0,0,0-16.036-8.017l-36.308.512a5.923,5.923,0,0,0-5.84,5.855l-.248,21.613L415.1-696.338c16.4-12.214,33.488-1.766,43.049,1.431s12.493-1.136,12.493-1.136l-.851-25.689a.715.715,0,0,1,1.313-.418,34.325,34.325,0,0,0,10.467,10.2,2.193,2.193,0,0,0,3.157-.954c2.573-5.7,7.509-9.57,7.869-17.842a5.793,5.793,0,0,0-2.14-4.723C485.318-739.683,480.559-745.563,477.121-750.334Z" transform="translate(-415.103 773.122)" fill="#5479f7"/>
        </g>
        <g id="Group_969" data-name="Group 969" transform="translate(0 48.678)">
          <path id="Path_1885" data-name="Path 1885" d="M414.571-647.787l-52.838,29.265a5.238,5.238,0,0,1-7.12-2.044l-17.554-31.694a5.238,5.238,0,0,1,2.044-7.12l52.838-29.265a5.238,5.238,0,0,1,7.12,2.044l17.554,31.694A5.239,5.239,0,0,1,414.571-647.787Z" transform="translate(-336.402 689.303)" fill="#caddff"/>
          <rect id="Rectangle_1457" data-name="Rectangle 1457" width="65.325" height="46.707" rx="10.667" transform="matrix(0.875, -0.485, 0.485, 0.875, 2.431, 34.178)" fill="#fff"/>
          <rect id="Rectangle_1458" data-name="Rectangle 1458" width="73.49" height="46.707" rx="10.667" transform="matrix(0.875, -0.485, 0.485, 0.875, 0.774, 39.95)" fill="#99b9ff"/>
        </g>
        <g id="Group_971" data-name="Group 971" transform="translate(13.122 15.364)">
          <g id="Group_970" data-name="Group 970" transform="translate(0 30.974)">
            <path id="Path_1886" data-name="Path 1886" d="M403.3-640.228l-8.433-4.5s7.789,1.078,6.915-1.574c-.449-1.364-1.122-1.294-2.89-1.322-1.293-.021-3.5-.142-5.491-.267a10.65,10.65,0,0,1-7.868-4.229c-5.43-7.257-8.055-17.368-6.991-21.568.774-3.055,3.785-7.226,5.963-10.577-5.637-4.46-8.284-4.376-13.984-8.305-5.6,9.336-6.247,18.6-5.75,21.721,2.1,13.22,15.537,24.362,19.7,27.531a25.385,25.385,0,0,1,2.287,1.963c2.878,2.79,8.386,7.439,12.276,6.463C404.521-636.265,403.3-640.228,403.3-640.228Z" transform="translate(-363.894 693.304)" fill="#fff"/>
            <path id="Path_1887" data-name="Path 1887" d="M397.137-634.782c-3.8,0-8.35-3.593-11.662-6.8a24.864,24.864,0,0,0-2.221-1.905c-4.144-3.156-17.831-14.5-19.979-28-.606-3.813.444-13.216,5.846-22.215a.737.737,0,0,1,.475-.341.736.736,0,0,1,.574.113,44.768,44.768,0,0,0,6.294,3.59,37.535,37.535,0,0,1,7.729,4.744.736.736,0,0,1,.16.979c-.352.541-.725,1.1-1.107,1.679-1.94,2.923-4.14,6.235-4.759,8.677-1.052,4.15,1.661,13.989,6.866,20.945a9.893,9.893,0,0,0,7.324,3.935c2.5.157,4.391.249,5.456.266l.28,0c1.572.021,2.708.035,3.3,1.823a1.689,1.689,0,0,1-.274,1.665c-.7.839-2.354,1.088-3.964,1.107l5.4,2.881a.736.736,0,0,1,.357.433,4.634,4.634,0,0,1-.435,3.4,6.513,6.513,0,0,1-4.358,2.867A5.364,5.364,0,0,1,397.137-634.782Zm-27.147-57.5c-5.442,9.454-5.636,18.19-5.26,20.555,2.062,12.957,15.383,23.989,19.417,27.061a26.268,26.268,0,0,1,2.353,2.02c4.783,4.637,9.006,6.923,11.583,6.277a5.16,5.16,0,0,0,3.422-2.141,3.148,3.148,0,0,0,.375-1.994l-8.13-4.336a.736.736,0,0,1-.354-.877.736.736,0,0,1,.8-.5c2.518.349,5.573.288,6.109-.354.026-.031.065-.078.005-.26-.25-.76-.322-.791-1.917-.811l-.284,0c-1.1-.018-2.963-.108-5.525-.269a11.364,11.364,0,0,1-8.412-4.523c-5.447-7.278-8.248-17.718-7.115-22.19.681-2.685,2.954-6.11,4.96-9.13.248-.373.492-.741.729-1.1a36.528,36.528,0,0,0-6.933-4.164A47.11,47.11,0,0,1,369.989-692.281Z" transform="translate(-363.122 694.067)"/>
          </g>
          <path id="Path_1888" data-name="Path 1888" d="M401.779-757.109a19.416,19.416,0,0,0-14.662,7.089,209.543,209.543,0,0,0-16.036,22.1,3.031,3.031,0,0,0-.129,3.011c3.652,6.847,10.389,5.93,15.562,8.966a1.735,1.735,0,0,0,2.307-.49,58.515,58.515,0,0,1,9.778-10.7l5-30.007Z" transform="translate(-366.934 757.139)" fill="#5479f7"/>
        </g>
      </g>
      <g id="Group_976" data-name="Group 976" transform="translate(80.822 8.943)">
        <g id="Group_975" data-name="Group 975">
          <g id="Group_973" data-name="Group 973">
            <path id="Path_1889" data-name="Path 1889" d="M474.236-823.324c1,.829,1.585,1.064,2.4,1.852,1.658,1.6,3.1,6.341,5.892,7.319.3,1.547-.939,1.727-1.409,2.59.347.761.919,4.306,1.525,6.475a1.557,1.557,0,0,1-.906,1.862,13.7,13.7,0,0,1-4.171.938s-7.949,9.055.141,15.281c0,0-7.584,6.246-16.176-2.856-1.509-1.6,5.444-15.665,5.444-15.665-.238-.087-3.341-1.277-3.669-3.845-.121-.943.086-2.444.935-2.763.829-.312,2.218.521,3.094,2.3a11,11,0,0,0,.532-1.589,4.034,4.034,0,0,0,.165-2.33C475.778-815.857,468.818-823.381,474.236-823.324Z" transform="translate(-460.583 824.061)" fill="#fff"/>
            <path id="Path_1890" data-name="Path 1890" d="M470.571-784.964c-2.941,0-6.565-1.161-10.337-5.156-.66-.7-.873-2.3,2.012-9.221,1.137-2.727,2.388-5.373,2.972-6.586-1.128-.568-3.117-1.872-3.4-4.115-.148-1.157.1-3.057,1.406-3.547.971-.368,2.18.181,3.143,1.319.011-.039.022-.078.032-.117.392-1.426.218-1.8.216-1.808a.736.736,0,0,1-.012-.63.738.738,0,0,1,.479-.409c3.655-.99,3.53-3.145,3.4-5.425-.076-1.311-.147-2.549.652-3.387a3.1,3.1,0,0,1,2.352-.779.737.737,0,0,1,.462.169c.413.341.749.576,1.075.8a9.941,9.941,0,0,1,1.368,1.089,13.509,13.509,0,0,1,1.932,2.835c1.021,1.775,2.179,3.788,3.692,4.319a.736.736,0,0,1,.48.556,2.46,2.46,0,0,1-1.007,2.572c-.111.1-.215.188-.3.278.162.536.342,1.387.6,2.634.247,1.18.526,2.517.807,3.522a2.289,2.289,0,0,1-1.338,2.743,14.386,14.386,0,0,1-4.077.964c-.743.933-3.469,4.654-3.089,8.511a7.819,7.819,0,0,0,3.309,5.477.737.737,0,0,1,.288.572.739.739,0,0,1-.269.581A11.734,11.734,0,0,1,470.571-784.964Zm-6.708-27.266a.361.361,0,0,0-.124.02c-.3.113-.581,1.07-.465,1.981.275,2.151,3.074,3.2,3.193,3.246a.737.737,0,0,1,.43.418.739.739,0,0,1-.024.6c-3.1,6.267-6.1,13.734-5.542,14.868,6.548,6.932,12.369,4.491,14.4,3.27a8.93,8.93,0,0,1-3.109-5.868c-.495-5.076,3.463-9.65,3.632-9.842a.738.738,0,0,1,.5-.249,13.051,13.051,0,0,0,3.948-.885.817.817,0,0,0,.472-.981c-.294-1.052-.579-2.415-.83-3.617a25.162,25.162,0,0,0-.656-2.751.735.735,0,0,1,.023-.658,3.337,3.337,0,0,1,.8-.913c.342-.3.541-.473.562-.817-1.777-.865-2.97-2.94-4.033-4.787a12.8,12.8,0,0,0-1.679-2.51,8.62,8.62,0,0,0-1.185-.938c-.28-.2-.593-.413-.959-.7a1.5,1.5,0,0,0-1.021.319c-.358.375-.3,1.3-.247,2.285.123,2.134.306,5.306-3.825,6.73a6.778,6.778,0,0,1-.307,2.016,11.948,11.948,0,0,1-.572,1.7.737.737,0,0,1-.66.431.743.743,0,0,1-.671-.411C465.235-811.652,464.3-812.23,463.864-812.23Z" transform="translate(-459.819 824.824)"/>
          </g>
          <g id="Group_974" data-name="Group 974" transform="translate(9.868 20.094)">
            <path id="Path_1891" data-name="Path 1891" d="M481.414-782.407a9.219,9.219,0,0,0,6.128.97Z" transform="translate(-480.677 783.144)" fill="#fff"/>
            <path id="Path_1892" data-name="Path 1892" d="M485.083-781.3a9.831,9.831,0,0,1-4.82-1.242.737.737,0,0,1-.238-1.015.737.737,0,0,1,1.013-.239,8.584,8.584,0,0,0,5.6.874.736.736,0,0,1,.862.584.737.737,0,0,1-.584.863A9.68,9.68,0,0,1,485.083-781.3Z" transform="translate(-479.914 783.907)"/>
          </g>
        </g>
      </g>
    </g>
    <path id="Path_1893" data-name="Path 1893" d="M739.087-671.446h0c-1.191,0-2.388-.048-3.557-.136q-1.215-.092-2.391-.2a.736.736,0,0,1-.665-.8.73.73,0,0,1,.8-.665q1.163.109,2.365.2c1.134.086,2.293.131,3.448.133a.737.737,0,0,1,.736.738A.736.736,0,0,1,739.087-671.446Zm5.874-.345a.736.736,0,0,1-.73-.651.737.737,0,0,1,.646-.818,54.466,54.466,0,0,0,5.725-.989.737.737,0,0,1,.881.555.737.737,0,0,1-.555.882,56.219,56.219,0,0,1-5.88,1.016A.74.74,0,0,1,744.961-671.791Zm-17.6-.672a.753.753,0,0,1-.1-.007c-2.014-.285-3.981-.62-5.844-1a.737.737,0,0,1-.577-.868.737.737,0,0,1,.868-.577c1.836.37,3.773.7,5.76.981a.736.736,0,0,1,.626.833A.737.737,0,0,1,727.36-672.464Zm29.077-1.915a.737.737,0,0,1-.7-.5.737.737,0,0,1,.468-.931c1.8-.6,3.638-1.295,5.447-2.072a.736.736,0,0,1,.967.386.736.736,0,0,1-.386.967c-1.848.795-3.72,1.507-5.566,2.118A.728.728,0,0,1,756.437-674.378Zm-40.606-.434a.732.732,0,0,1-.2-.027c-1.973-.546-3.877-1.161-5.661-1.83a.736.736,0,0,1-.431-.948.737.737,0,0,1,.948-.431c1.743.654,3.606,1.255,5.536,1.79a.737.737,0,0,1,.514.906A.737.737,0,0,1,715.831-674.812Zm-10.989-4.166a.734.734,0,0,1-.333-.08,43.9,43.9,0,0,1-5.142-3.054.736.736,0,0,1-.185-1.025.737.737,0,0,1,1.025-.185,42.309,42.309,0,0,0,4.968,2.951.737.737,0,0,1,.324.991A.736.736,0,0,1,704.843-678.978Zm62.419-.035a.737.737,0,0,1-.653-.394.736.736,0,0,1,.309-.995c1.691-.889,3.4-1.866,5.069-2.9a.736.736,0,0,1,1.014.238.736.736,0,0,1-.238,1.014c-1.7,1.056-3.438,2.05-5.159,2.955A.733.733,0,0,1,767.262-679.013Zm10.013-6.2a.736.736,0,0,1-.6-.308.737.737,0,0,1,.17-1.028c1.564-1.12,3.127-2.315,4.645-3.551a.736.736,0,0,1,1.036.106.737.737,0,0,1-.106,1.037c-1.541,1.255-3.129,2.469-4.717,3.607A.733.733,0,0,1,777.275-685.214Zm-82.035-.49a.735.735,0,0,1-.512-.207,34.234,34.234,0,0,1-3.933-4.541.737.737,0,0,1,.166-1.028.737.737,0,0,1,1.029.166,32.691,32.691,0,0,0,3.763,4.344.737.737,0,0,1,.017,1.042A.735.735,0,0,1,695.24-685.7Zm91.173-6.947a.735.735,0,0,1-.543-.238.737.737,0,0,1,.044-1.041c1.427-1.311,2.838-2.685,4.193-4.084a.738.738,0,0,1,1.042-.016.736.736,0,0,1,.016,1.042c-1.376,1.42-2.807,2.814-4.254,4.144A.735.735,0,0,1,786.413-692.651Zm-98.039-2.542a.737.737,0,0,1-.662-.411,42.574,42.574,0,0,1-2.239-5.555.736.736,0,0,1,.47-.93.736.736,0,0,1,.929.471,41.077,41.077,0,0,0,2.162,5.365.737.737,0,0,1-.337.986A.73.73,0,0,1,688.373-695.193Zm106.242-5.924a.735.735,0,0,1-.481-.179.737.737,0,0,1-.077-1.039c1.271-1.475,2.513-3,3.691-4.541a.737.737,0,0,1,1.032-.138.736.736,0,0,1,.138,1.033c-1.194,1.561-2.454,3.112-3.745,4.608A.734.734,0,0,1,794.615-701.117Zm-94.629-4.864a.737.737,0,0,1-.665-.418.737.737,0,0,1,.345-.983,9.72,9.72,0,0,0,4.035-3.6.738.738,0,0,1,1.017-.225.737.737,0,0,1,.225,1.017,11.173,11.173,0,0,1-4.639,4.14A.731.731,0,0,1,699.986-705.981Zm-15.356-.359a.737.737,0,0,1-.718-.575c-.405-1.8-.747-3.595-1.037-5.138-.044-.233-.083-.464-.119-.693a.737.737,0,0,1,.614-.842.742.742,0,0,1,.841.614c.034.216.071.432.112.65.287,1.53.626,3.312,1.026,5.086a.736.736,0,0,1-.557.88A.745.745,0,0,1,684.629-706.339Zm117.139-4.142a.732.732,0,0,1-.41-.125.737.737,0,0,1-.2-1.022c1.1-1.634,2.141-3.3,3.1-4.957a.736.736,0,0,1,1.007-.268.737.737,0,0,1,.268,1.007c-.976,1.682-2.037,3.378-3.152,5.039A.737.737,0,0,1,801.768-710.482Zm-95.506-4.886a.848.848,0,0,1-.1-.006.738.738,0,0,1-.633-.828,15.872,15.872,0,0,0,.137-2.087,16.667,16.667,0,0,0-.377-3.521.737.737,0,0,1,.565-.876.737.737,0,0,1,.876.564,18.184,18.184,0,0,1,.41,3.833,17.377,17.377,0,0,1-.149,2.281A.737.737,0,0,1,706.262-715.368Zm-22.875-2.626a.77.77,0,0,1-.094-.006.736.736,0,0,1-.637-.824,19.825,19.825,0,0,1,1.675-5.861.738.738,0,0,1,.979-.358.737.737,0,0,1,.358.978,18.393,18.393,0,0,0-1.55,5.427A.736.736,0,0,1,683.387-717.994Zm124.285-2.684a.737.737,0,0,1-.323-.075.737.737,0,0,1-.339-.985c.869-1.78,1.659-3.577,2.349-5.34a.737.737,0,0,1,.955-.417.736.736,0,0,1,.417.954c-.7,1.8-1.512,3.634-2.4,5.45A.737.737,0,0,1,807.672-720.679Zm-103.915-5.957a.737.737,0,0,1-.611-.323,9.792,9.792,0,0,0-4.082-3.545.737.737,0,0,1-.377-.971.736.736,0,0,1,.971-.377,11.27,11.27,0,0,1,4.708,4.067.736.736,0,0,1-.2,1.023A.734.734,0,0,1,703.756-726.636Zm-15.381-1.79a.735.735,0,0,1-.539-.234.736.736,0,0,1,.036-1.041,9.561,9.561,0,0,1,2.67-1.816,14.564,14.564,0,0,1,2.905-.929.738.738,0,0,1,.868.577.737.737,0,0,1-.577.867,13.084,13.084,0,0,0-2.609.836,8.221,8.221,0,0,0-2.251,1.542A.734.734,0,0,1,688.375-728.426Z" transform="translate(-197.156 -187.383)" fill="#5479f7"/>
  </g>
</svg>
