<svg xmlns="http://www.w3.org/2000/svg" width="418.485" height="403.934" viewBox="0 0 418.485 403.934">
  <g id="Group_919" data-name="Group 919" transform="translate(-360.845 1038.726)">
    <g id="Group_868" data-name="Group 868" transform="translate(515.954 -797.485)">
      <path id="Path_1648" data-name="Path 1648" d="M807.211-502.38l2.653,4.919,5.879-1.644a23.12,23.12,0,0,0,2.668,2.837l-1.98,5.767,4.757,2.934,4.27-4.364a23.471,23.471,0,0,0,3.726,1.115l1.17,5.993,5.586.162,1.514-5.906a23.171,23.171,0,0,0,3.788-.9l4.008,4.6,4.919-2.653-1.644-5.879a23.2,23.2,0,0,0,2.837-2.667l5.766,1.981,2.934-4.757-4.364-4.27a23.474,23.474,0,0,0,1.115-3.726l5.993-1.169.162-5.587-5.906-1.514a23.139,23.139,0,0,0-.9-3.787l4.6-4.009-2.653-4.919-5.879,1.644a23.154,23.154,0,0,0-2.668-2.837l1.981-5.766-4.757-2.934-4.271,4.364a23.45,23.45,0,0,0-3.725-1.115l-1.17-5.992-5.587-.162-1.514,5.906a23.15,23.15,0,0,0-3.788.9l-4.008-4.6-4.92,2.653,1.644,5.879a23.131,23.131,0,0,0-2.837,2.668l-5.767-1.981-2.934,4.757,4.364,4.27a23.473,23.473,0,0,0-1.115,3.726l-5.993,1.17L805-511.69l5.906,1.514a23.2,23.2,0,0,0,.9,3.788Zm19.947-23.927a14.387,14.387,0,0,1,19.492,5.835,14.388,14.388,0,0,1-5.835,19.493,14.388,14.388,0,0,1-19.493-5.835A14.388,14.388,0,0,1,827.158-526.307Z" transform="translate(-744.13 542.625)" fill="#fff"/>
      <path id="Path_1649" data-name="Path 1649" d="M683.619-396.723l4.219,7.245,8.733-2.755a34.762,34.762,0,0,0,4.139,4.122l-2.685,8.743L705.3-375.2l6.187-6.753a35.239,35.239,0,0,0,5.641,1.488l2.049,8.927,8.384-.032,1.979-8.929a34.739,34.739,0,0,0,5.634-1.543l6.236,6.7,7.245-4.219-2.754-8.733a34.758,34.758,0,0,0,4.122-4.139l8.743,2.685,4.164-7.277-6.754-6.187a35.183,35.183,0,0,0,1.489-5.641L766.6-410.9l-.032-8.384-8.929-1.979a34.774,34.774,0,0,0-1.543-5.634l6.7-6.236-4.219-7.245-8.733,2.754a34.754,34.754,0,0,0-4.139-4.122l2.685-8.743-7.277-4.165-6.187,6.754a35.208,35.208,0,0,0-5.641-1.489l-2.05-8.927-8.384.032-1.979,8.929a34.7,34.7,0,0,0-5.634,1.542l-6.237-6.7-7.245,4.219,2.755,8.733a34.765,34.765,0,0,0-4.122,4.139l-8.743-2.685-4.164,7.277,6.753,6.187a35.181,35.181,0,0,0-1.488,5.641l-8.927,2.05.032,8.384,8.929,1.979a34.7,34.7,0,0,0,1.543,5.634Zm28.726-36.856a21.583,21.583,0,0,1,29.513,7.788,21.583,21.583,0,0,1-7.788,29.513,21.583,21.583,0,0,1-29.513-7.788A21.583,21.583,0,0,1,712.345-433.579Z" transform="translate(-679.82 499.314)" fill="#fff"/>
    </g>
    <g id="Group_896" data-name="Group 896" transform="translate(444.346 -965.489)">
      <g id="Group_883" data-name="Group 883" transform="translate(0 0)">
        <g id="Group_877" data-name="Group 877" transform="translate(4.181 120.942)">
          <g id="Group_872" data-name="Group 872" transform="translate(65.721 168.224)">
            <g id="Group_869" data-name="Group 869" transform="translate(1.926)">
              <path id="Path_1650" data-name="Path 1650" d="M691.088-291.961l.817,16.2-7.808-.082-2.325-15.647Z" transform="translate(-681.042 292.691)" fill="#fff"/>
              <path id="Path_1651" data-name="Path 1651" d="M691.134-275.8h-.008l-7.808-.082a.729.729,0,0,1-.714-.622l-2.325-15.647a.731.731,0,0,1,.157-.57.729.729,0,0,1,.528-.266l9.317-.47a.721.721,0,0,1,.526.187.73.73,0,0,1,.239.5l.817,16.2a.727.727,0,0,1-.2.542A.727.727,0,0,1,691.134-275.8Zm-7.178-1.534,6.411.067-.741-14.7-7.785.392Z" transform="translate(-680.272 293.461)"/>
            </g>
            <g id="Group_871" data-name="Group 871" transform="translate(0 10.598)">
              <g id="Group_870" data-name="Group 870">
                <path id="Path_1652" data-name="Path 1652" d="M681.937-243.915c3.187.18,11.943,0,14.378-1.208,2.144-1.067,3.848-5.658,2.655-7.281-2.985-4.061-5.233-11.253-7.15-16.865a.394.394,0,0,0-.712-.072l-1.537,2.594-1.361-2.886a1.2,1.2,0,0,0-.949-.533l-2.733.087c-.626-.027-1.269.612-1.613,1.2l-1.843,2.558-1.194-1.952a.4.4,0,0,0-.73.178l-1.336,19C677.9-246.054,680.084-244.02,681.937-243.915Z" transform="translate(-677.083 270.895)" fill="#fff"/>
                <path id="Path_1653" data-name="Path 1653" d="M683.9-243.894c-1.121,0-2.087-.024-2.771-.063-2.247-.127-4.716-2.521-4.813-5.882a.59.59,0,0,1,0-.072l1.336-19a1.12,1.12,0,0,1,.855-1.013,1.119,1.119,0,0,1,1.225.505l.622,1.016,1.182-1.641a2.81,2.81,0,0,1,2.225-1.533l2.71-.086h.054a1.94,1.94,0,0,1,1.524.856.7.7,0,0,1,.054.095l.774,1.642.836-1.411a1.114,1.114,0,0,1,1.083-.546,1.11,1.11,0,0,1,.947.754c.2.572.395,1.162.6,1.762,1.8,5.32,3.836,11.351,6.449,14.906a4.308,4.308,0,0,1,.329,3.525c-.427,1.767-1.626,4.035-3.246,4.841C693.775-244.2,687.868-243.894,683.9-243.894Zm-2.689-1.52c3.618.2,11.89-.077,14.011-1.133a6.3,6.3,0,0,0,2.479-3.879,3.145,3.145,0,0,0-.086-2.318c-2.748-3.738-4.824-9.883-6.656-15.3q-.182-.54-.361-1.068l-1.166,1.968a.733.733,0,0,1-.662.357.73.73,0,0,1-.626-.417l-1.332-2.825a.476.476,0,0,0-.328-.175l-2.7.086h-.054c-.2,0-.657.334-.952.841-.012.02-.025.04-.038.059l-1.842,2.558a.721.721,0,0,1-.62.3.729.729,0,0,1-.595-.348l-.648-1.06-1.259,17.922C677.867-247.112,679.859-245.49,681.207-245.414Z" transform="translate(-676.312 271.666)"/>
              </g>
              <path id="Path_1654" data-name="Path 1654" d="M689.629-224.958a23.9,23.9,0,0,1-5.907-.668.729.729,0,0,1-.508-.9.73.73,0,0,1,.9-.509,26.1,26.1,0,0,0,13.423-.594.729.729,0,0,1,.916.474.73.73,0,0,1-.474.916A27.615,27.615,0,0,1,689.629-224.958Z" transform="translate(-679.845 249.059)"/>
              <path id="Path_1655" data-name="Path 1655" d="M690.666-241.194a.729.729,0,0,1-.727-.693.729.729,0,0,1,.691-.765l7.1-.358a.733.733,0,0,1,.765.692.729.729,0,0,1-.692.765l-7.1.358Z" transform="translate(-683.312 256.945)"/>
            </g>
          </g>
          <g id="Group_876" data-name="Group 876" transform="translate(0 162.541)">
            <g id="Group_873" data-name="Group 873" transform="translate(9.673)">
              <path id="Path_1656" data-name="Path 1656" d="M572.15-303.649,570.833-284l-7.309.114-.972-19.277Z" transform="translate(-561.823 304.378)" fill="#fff"/>
              <path id="Path_1657" data-name="Path 1657" d="M562.754-283.929a.729.729,0,0,1-.728-.693l-.972-19.276a.728.728,0,0,1,.188-.526.728.728,0,0,1,.5-.24l9.6-.484a.725.725,0,0,1,.557.217.728.728,0,0,1,.208.56l-1.316,19.646a.73.73,0,0,1-.716.681l-7.309.114Zm-.207-19.314.9,17.845,5.932-.092L570.6-303.65Z" transform="translate(-561.052 305.149)"/>
            </g>
            <g id="Group_875" data-name="Group 875" transform="translate(0 14.815)">
              <g id="Group_874" data-name="Group 874">
                <path id="Path_1658" data-name="Path 1658" d="M562.766-273.118s.724,8.645.611,12.149c-.082,2.508-3.123,10.221-4.846,14.405A6.312,6.312,0,0,1,554.62-243a16.026,16.026,0,0,1-7.4.578c-3.854-.43-5.219-3.871-4.26-7.28a43.885,43.885,0,0,1,5.092-10.963c1.92-3.138,3.36-12.215,3.36-12.215l5.946-.3,1.931,4.9Z" transform="translate(-541.93 273.912)" fill="#fff"/>
                <path id="Path_1659" data-name="Path 1659" d="M549.154-242.283a25.089,25.089,0,0,1-2.79-.188,5.606,5.606,0,0,1-4.194-2.394,7,7,0,0,1-.688-5.808,44.52,44.52,0,0,1,5.172-11.145c1.823-2.98,3.247-11.859,3.261-11.949a.73.73,0,0,1,.684-.614l5.945-.3a.732.732,0,0,1,.716.461l1.441,3.655,2.7-3.749a.73.73,0,0,1,.786-.277.729.729,0,0,1,.532.642c.03.354.727,8.728.613,12.233-.08,2.476-2.71,9.338-4.9,14.659a7.021,7.021,0,0,1-4.387,3.984A17.025,17.025,0,0,1,549.154-242.283Zm2.106-30.671c-.358,2.09-1.655,9.108-3.361,11.9a43.13,43.13,0,0,0-5.012,10.78,5.553,5.553,0,0,0,.494,4.6,4.189,4.189,0,0,0,3.145,1.759,15.364,15.364,0,0,0,7.125-.555,5.587,5.587,0,0,0,3.435-3.135c2.989-7.257,4.735-12.415,4.792-14.151.078-2.4-.249-7.326-.455-10.083L559.1-268.63a.729.729,0,0,1-.682.3.729.729,0,0,1-.588-.456L556.1-273.2Z" transform="translate(-541.16 274.683)"/>
              </g>
              <path id="Path_1660" data-name="Path 1660" d="M551.823-229.4a9.094,9.094,0,0,1-2.784-.376.73.73,0,0,1-.461-.923.729.729,0,0,1,.923-.46,10.556,10.556,0,0,0,4.289.148,6.1,6.1,0,0,0,3.6-2.1,11.013,11.013,0,0,0,1.649-2.519c.655-1.51,1.317-3.231,1.8-4.487.78-2.028.859-2.206,1.06-2.388a.729.729,0,0,1,1.03.052.729.729,0,0,1,.043.926c-.11.214-.446,1.087-.771,1.933-.488,1.268-1.155,3.006-1.823,4.544a12.412,12.412,0,0,1-1.865,2.87,7.553,7.553,0,0,1-4.463,2.6A13.7,13.7,0,0,1,551.823-229.4Zm11.055-12.023h0Z" transform="translate(-544.951 258.248)"/>
              <path id="Path_1661" data-name="Path 1661" d="M552.564-233.7a.73.73,0,0,1-.728-.692.73.73,0,0,1,.691-.765l6.509-.328a.73.73,0,0,1,.765.692.729.729,0,0,1-.692.765l-6.509.328Z" transform="translate(-546.644 254.547)"/>
            </g>
          </g>
          <path id="Path_1662" data-name="Path 1662" d="M630.556-633.034s2.23,59.645,1.685,98.576c-.468,33.478-3.076,60.292-3.8,67.146a2.358,2.358,0,0,1-1.911,2.077,29.458,29.458,0,0,1-8.939.366,2.381,2.381,0,0,1-1.984-1.722c-1.81-6.6-9.237-34.2-9.775-44.86-.583-11.553,1.342-14.555,1.1-23.983-.18-7.059-3.8-32.014-5.614-44.114a1.5,1.5,0,0,0-2.919-.2c-3.279,11.217-10.253,35.458-16.669,60.3-.329,1.274-1.733,12.06-2.054,13.314-3.969,15.517-7.813,27.993-9.087,35.257a2.937,2.937,0,0,1-2.274,2.362,21.591,21.591,0,0,1-9.477.108,2.917,2.917,0,0,1-2.155-2.711c-.332-7.907-1.522-37.3-1.1-42.265.9-10.654,8.63-21.487,9.546-32.8s.353-39.563,3.583-56.687S579-639.406,579-639.406Z" transform="translate(-548.525 639.406)"/>
        </g>
        <path id="Path_1663" data-name="Path 1663" d="M587.384-861.633c4.1-2.705,10.932-1.248,13.564,5.547,2.149,5.551-2.659,9.836-3.878,13.93-3.94,13.242,8.807,41.506.147,55.938-6.909,11.513-26.124,20-42.7,12.824-15.759-6.827-26.472-23.258-20.079-36.709,5.747-12.091,16.6-6.373,23.2-18.292,6.5-11.751.534-17.282,5.288-23.165C569.427-859.6,575.773-853.966,587.384-861.633Z" transform="translate(-532.562 875.17)"/>
        <g id="Group_879" data-name="Group 879" transform="translate(20.9)">
          <path id="Path_1664" data-name="Path 1664" d="M599.187-592.864a.731.731,0,0,1-.661-.419.73.73,0,0,1,.35-.971c10.079-4.741,12.641-15,12.666-15.107a.729.729,0,0,1,.878-.54.728.728,0,0,1,.541.878A25.638,25.638,0,0,1,599.5-592.933.727.727,0,0,1,599.187-592.864Z" transform="translate(-587.313 745.201)" fill="#fff"/>
          <g id="Group_878" data-name="Group 878" transform="translate(101.588)">
            <path id="Path_1665" data-name="Path 1665" d="M788.987-885.307l-2.607,8.352a8.534,8.534,0,0,0,1.159,7.65l2.923,4.195a4.216,4.216,0,0,1,.634,2.382c.036,1.9-.249,4.788-.249,4.788l6.964.114s-.764-3.672-1.116-4.933a7.148,7.148,0,0,1,.241-4.9,19.4,19.4,0,0,0,1.583-9.692l-4.771,1.273a12.887,12.887,0,0,1-1.2-6.9,6.421,6.421,0,0,0-.261-2.513A1.731,1.731,0,0,0,788.987-885.307Z" transform="translate(-785.219 887.347)" fill="#fff"/>
            <path id="Path_1666" data-name="Path 1666" d="M797.043-857.868h-.012l-6.964-.114a.727.727,0,0,1-.533-.244.732.732,0,0,1-.181-.557c0-.028.281-2.872.246-4.7a3.492,3.492,0,0,0-.5-1.979l-2.924-4.195a9.288,9.288,0,0,1-1.253-8.3l2.6-8.324a2.464,2.464,0,0,1,2.3-1.837,2.377,2.377,0,0,1,2.395,1.619,7.19,7.19,0,0,1,.3,2.8,13.331,13.331,0,0,0,.864,5.99l4.188-1.117a.729.729,0,0,1,.593.1.728.728,0,0,1,.318.509,19.983,19.983,0,0,1-1.643,10.1,6.425,6.425,0,0,0-.2,4.4c.354,1.27,1.1,4.83,1.128,4.98a.729.729,0,0,1-.152.614A.729.729,0,0,1,797.043-857.868Zm-6.168-1.56,5.265.086c-.248-1.164-.681-3.149-.916-3.993a7.872,7.872,0,0,1,.282-5.4,18.859,18.859,0,0,0,1.584-8.455l-3.922,1.047a.73.73,0,0,1-.817-.335,13.539,13.539,0,0,1-1.3-7.313,5.767,5.767,0,0,0-.222-2.227.936.936,0,0,0-.956-.64.993.993,0,0,0-.95.761c0,.012-.006.024-.01.036l-2.607,8.352a7.835,7.835,0,0,0,1.056,7.008l2.928,4.2a4.967,4.967,0,0,1,.765,2.785C791.082-862.191,790.958-860.432,790.875-859.428Zm-2.656-26.65h0Z" transform="translate(-784.451 888.118)"/>
          </g>
          <path id="Path_1667" data-name="Path 1667" d="M696.792-805.683c6.083.674,24.416,8.777,35.1-2.2s11.214-25.559,11.214-25.559l10.456-.9a54.146,54.146,0,0,1-.273,37.046c-7.623,20.352-44.345,27.508-44.345,27.508Z" transform="translate(-637.831 860.492)" fill="#5479f7"/>
          <path id="Path_1668" data-name="Path 1668" d="M647.422-772.25c-12.393-7.461-34.581-6.834-45.613-1.788-19.567,8.949-30.788,80.082-24.531,95.417,5.715,14,54.362,16.981,67.866,5,5.753-5.1,3.843-35.554,2.829-47.723q-.462-5.549-.471-11.118Z" transform="translate(-575.542 831.468)" fill="#5479f7"/>
        </g>
        <g id="Group_880" data-name="Group 880" transform="translate(46.438 23.8)">
          <path id="Path_1669" data-name="Path 1669" d="M632.819-825.25a.69.69,0,0,0,.72-.768c-.218-2.028-.867-5.833,1.074-7.541,2.488-2.189,6.631-5.517,8.236-3.481,1.407,1.785,2.83,5.407,6.229,6.755.326.129.358.6.212.918l-.712,1.805a2.633,2.633,0,0,0,.133,1.551c.471,1.126,1.561,3.474,1.35,3.967-.412.961-4.125,2.676-4.125,2.676l2.456,11.476c.093.435.384,1.157.812,1.05l4.534.336s-.282,6.22-9.923,7.937c-12.6,2.244-14.256-6.207-14.256-6.207s12.317-.2,6.953-13.626a.9.9,0,0,0-.7-.553c-1.2-.182-4.511-.834-5.14-2.967C630.006-824.185,631.357-825.313,632.819-825.25Z" transform="translate(-628.83 838.404)" fill="#fff"/>
          <path id="Path_1670" data-name="Path 1670" d="M639.076-798.233c-9.474,0-10.987-7.091-11-7.173a.73.73,0,0,1,.149-.6.728.728,0,0,1,.555-.27c.044,0,4.547-.121,6.576-3.177,1.444-2.176,1.347-5.354-.288-9.449a.171.171,0,0,0-.13-.1c-1.839-.279-5.028-1.1-5.73-3.482a3.373,3.373,0,0,1,.4-3.191,2.923,2.923,0,0,1,2.451-1.075c-.029-.145-.05-.327-.072-.519-.27-2.308-.679-5.8,1.381-7.608,3.546-3.119,5.9-4.442,7.612-4.285a2.355,2.355,0,0,1,1.678.9,20.031,20.031,0,0,1,1.137,1.688c1.1,1.746,2.463,3.919,4.788,4.84a1.17,1.17,0,0,1,.653.661,1.6,1.6,0,0,1-.046,1.238l-.7,1.771a2.212,2.212,0,0,0,.126,1c.072.172.159.372.253.59,1.031,2.391,1.352,3.348,1.1,3.946-.411.959-2.613,2.147-3.96,2.8l2.335,10.911a1.784,1.784,0,0,0,.174.477l4.512.335a.729.729,0,0,1,.674.761c-.013.278-.424,6.823-10.523,8.622A23.379,23.379,0,0,1,639.076-798.233Zm-9.321-6.662c.764,1.927,3.62,6.537,13.162,4.838,7.095-1.264,8.794-4.981,9.2-6.551l-3.65-.271a1.086,1.086,0,0,1-.7-.163,2.423,2.423,0,0,1-.859-1.468l-2.456-11.475a.73.73,0,0,1,.407-.815,14.561,14.561,0,0,0,3.725-2.248,18.152,18.152,0,0,0-1.059-2.847c-.1-.223-.185-.428-.259-.6a3.251,3.251,0,0,1-.123-2.136l.7-1.771a.4.4,0,0,0,.018-.046c-2.655-1.129-4.122-3.463-5.306-5.347-.369-.588-.719-1.144-1.047-1.56a.888.888,0,0,0-.665-.351c-1.239-.112-3.427,1.209-6.517,3.928-1.486,1.307-1.116,4.459-.9,6.342.024.2.046.394.065.572a1.423,1.423,0,0,1-.375,1.128,1.425,1.425,0,0,1-1.1.447,1.483,1.483,0,0,0-1.266.515,2.063,2.063,0,0,0-.147,1.88c.5,1.711,3.611,2.309,4.551,2.452a1.632,1.632,0,0,1,1.266,1c1.825,4.571,1.874,8.206.143,10.8C634.716-805.864,631.39-805.1,629.754-804.9Zm2.325-21.855-.031.728.032-.728Z" transform="translate(-628.059 839.175)"/>
        </g>
        <g id="Group_882" data-name="Group 882" transform="translate(32.824 89.471)">
          <g id="Group_881" data-name="Group 881" transform="translate(64.169 39.022)">
            <path id="Path_1671" data-name="Path 1671" d="M735.538-620.764s7.378-2.62,12.495-1.178c0,0,.764,3.2,2.974,4.62s7.616,2.083,8.648,5.156-9.783,6.03-13.645,4.471-7.346-5.441-11.01-5.256S735.538-620.764,735.538-620.764Z" transform="translate(-732.782 623.107)" fill="#fff"/>
            <path id="Path_1672" data-name="Path 1672" d="M748.067-607.323a8.555,8.555,0,0,1-3.088-.469,26.119,26.119,0,0,1-4.4-2.5c-2.195-1.441-4.27-2.8-6.3-2.7a1.961,1.961,0,0,1-1.893-.864c-1.287-2.014,1.23-7.031,1.748-8.016a.729.729,0,0,1,.4-.348c.311-.11,7.658-2.681,12.937-1.193a.731.731,0,0,1,.511.533c.007.028.729,2.932,2.66,4.176a15.277,15.277,0,0,0,2.757,1.181c2.521.912,5.378,1.947,6.187,4.356a2.383,2.383,0,0,1-.879,2.591C756.7-608.691,751.766-607.323,748.067-607.323Zm-13.574-7.138c2.4,0,4.68,1.5,6.886,2.946a25.064,25.064,0,0,0,4.147,2.37c2.745,1.108,9.918-.362,12.184-2.5.431-.4.6-.763.5-1.065-.585-1.741-3.09-2.648-5.3-3.449a16.071,16.071,0,0,1-3.05-1.326,8.781,8.781,0,0,1-3.166-4.631c-4.275-1-10.086.747-11.395,1.173-1.062,2.1-2.263,5.378-1.678,6.294.041.064.136.215.589.192Q734.349-614.461,734.492-614.461Z" transform="translate(-732.024 623.879)"/>
          </g>
          <path id="Path_1673" data-name="Path 1673" d="M616.412-702.625l8.6,19.858a15.522,15.522,0,0,0,9.5,8.612L667.5-663.57l-.773,11.46s-43.339-4.068-50.834-9.594c-7.016-5.173-15.833-29.044-15.833-29.044Z" transform="translate(-600.063 703.354)" fill="#5479f7"/>
          <path id="Path_1674" data-name="Path 1674" d="M684-663.611a.726.726,0,0,1-.223-.036l-32.99-10.584a16.253,16.253,0,0,1-9.949-9.016l-8.6-19.859a.729.729,0,0,1,.379-.959.729.729,0,0,1,.959.379l8.6,19.859a14.793,14.793,0,0,0,9.056,8.207l32.99,10.584a.729.729,0,0,1,.472.917A.729.729,0,0,1,684-663.611Z" transform="translate(-616.563 704.125)"/>
          <path id="Path_1675" data-name="Path 1675" d="M664.543-621.11a.749.749,0,0,1-.087-.005c-15.931-1.878-35.985-4.9-41.051-8.637-2.25-1.659-4.873-5.274-7.8-10.745a.73.73,0,0,1,.3-.987.73.73,0,0,1,.987.3c2.82,5.278,5.3,8.73,7.376,10.258,3.752,2.767,18.084,5.737,40.356,8.363a.729.729,0,0,1,.639.81A.73.73,0,0,1,664.543-621.11Z" transform="translate(-608.005 671.99)"/>
        </g>
      </g>
      <g id="Group_884" data-name="Group 884" transform="translate(102.669 80.53)">
        <path id="Path_1676" data-name="Path 1676" d="M825.43-715.32c-1.271-5.317-16.228-7.072-17.889-4.573-3.854,5.8-10.469,20.349-14,28.354a17.838,17.838,0,0,1-7.726,8.425L765.853-672.14c-1.063-.272-10.832-2.766-11.807-2.561-1.031.216-2.25,2.142-4.808,3.587s-4.488,2.309-3.884,3.43c.537,1,5.337.608,8.714-.878a1.744,1.744,0,0,1,1.983.431c1.206,1.325,6.5,3.681,11.259,3.659l32-5.251a11.67,11.67,0,0,0,8.041-5.379C813.46-684.99,827.131-708.2,825.43-715.32Z" transform="translate(-744.49 721.741)" fill="#fff"/>
        <path id="Path_1677" data-name="Path 1677" d="M766.451-664.513c-4.754,0-10.3-2.32-11.735-3.9a1.02,1.02,0,0,0-1.15-.254c-3.163,1.392-8.732,2.258-9.65.556-.873-1.618.952-2.628,3.262-3.907q.435-.241.9-.5a15.735,15.735,0,0,0,2.961-2.265,4.985,4.985,0,0,1,2.057-1.4c.948-.2,6.906,1.23,11.858,2.5l19.706-10.836a17.207,17.207,0,0,0,7.41-8.08c3.59-8.128,10.192-22.633,14.065-28.463,1.271-1.912,6.533-1.547,9.442-1.03,2.051.365,8.814,1.863,9.764,5.837,1.7,7.134-10.653,28.606-18.17,40.771a12.4,12.4,0,0,1-8.543,5.715l-32,5.251A1.118,1.118,0,0,1,766.451-664.513Zm-12.488-5.693a2.478,2.478,0,0,1,1.833.814c.956,1.05,5.959,3.42,10.652,3.42h.007l31.94-5.242a10.939,10.939,0,0,0,7.539-5.042c12.4-20.072,19.13-34.9,17.992-39.665-.487-2.037-3.862-3.9-8.6-4.74-4.436-.789-7.529-.264-7.971.4-3.813,5.739-10.374,20.16-13.945,28.245a18.675,18.675,0,0,1-8.042,8.769l-19.959,10.974a.731.731,0,0,1-.532.068c-5.139-1.318-10.745-2.622-11.5-2.549a5.169,5.169,0,0,0-1.344,1.044,16.955,16.955,0,0,1-3.229,2.459c-.316.179-.622.348-.916.511-1.108.613-2.764,1.53-2.7,1.9.68.451,4.678.2,7.79-1.165A2.436,2.436,0,0,1,753.963-670.206Z" transform="translate(-743.695 722.511)"/>
      </g>
      <g id="Group_895" data-name="Group 895" transform="translate(159.631 12.865)">
        <g id="Group_889" data-name="Group 889" transform="translate(10.247 152.886)">
          <g id="Group_885" data-name="Group 885" transform="translate(66.677 124.26)">
            <path id="Path_1678" data-name="Path 1678" d="M1030.366-289.385l-.682,12.577-8.409,1.418-.748-14.834Z" transform="translate(-1019.797 290.953)" fill="#fff"/>
            <path id="Path_1679" data-name="Path 1679" d="M1020.5-275.431a.73.73,0,0,1-.457-.16.728.728,0,0,1-.272-.532l-.748-14.834a.731.731,0,0,1,.222-.562.73.73,0,0,1,.569-.2l9.84.839a.729.729,0,0,1,.666.766l-.682,12.577a.729.729,0,0,1-.607.68l-8.409,1.418A.68.68,0,0,1,1020.5-275.431Zm.022-14.766.665,13.181,7.026-1.185.612-11.288Z" transform="translate(-1019.026 291.724)"/>
          </g>
          <g id="Group_886" data-name="Group 886" transform="translate(63.76 132.226)">
            <path id="Path_1680" data-name="Path 1680" d="M1017.959-245.126a59.185,59.185,0,0,0,16.092-.818,3.786,3.786,0,0,0,2.928-4.805c-1.8-6-4.956-17.389-9.644-22.506l-.952,2.951-1.653-2.651a1.345,1.345,0,0,0-1.039-.629l-3.342-.253a1.344,1.344,0,0,0-1.429,1.131l-.4,2.539-1.325-3.24-2.652,24.209A3.778,3.778,0,0,0,1017.959-245.126Z" transform="translate(-1013.799 274.571)" fill="#5479f7"/>
            <path id="Path_1681" data-name="Path 1681" d="M1022.213-244.948c-1.961,0-3.679-.1-5.089-.223a4.519,4.519,0,0,1-4.08-4.858l2.654-24.23a.729.729,0,0,1,.624-.643.729.729,0,0,1,.777.446l.337.824a2.084,2.084,0,0,1,2.2-1.705l3.342.254a2.08,2.08,0,0,1,1.6.97l.823,1.318.47-1.457a.73.73,0,0,1,.539-.489.73.73,0,0,1,.693.22c4.483,4.892,7.573,15.285,9.419,21.494l.386,1.3a4.515,4.515,0,0,1-.464,3.633,4.537,4.537,0,0,1-3.026,2.1A60.2,60.2,0,0,1,1022.213-244.948Zm-4.959-1.676a58.341,58.341,0,0,0,15.891-.809,3.074,3.074,0,0,0,2.052-1.422,3.013,3.013,0,0,0,.314-2.457l-.388-1.3c-1.691-5.687-4.446-14.953-8.27-19.935l-.546,1.693a.73.73,0,0,1-.605.5.728.728,0,0,1-.708-.338l-1.654-2.651a.618.618,0,0,0-.475-.287l-3.342-.253a.62.62,0,0,0-.654.517l-.4,2.539a.728.728,0,0,1-.636.61.729.729,0,0,1-.759-.448l-.237-.58L1014.5-249.89A3.052,3.052,0,0,0,1017.254-246.624Z" transform="translate(-1013.029 275.342)"/>
          </g>
          <path id="Path_1682" data-name="Path 1682" d="M1027.705-224.109a41.155,41.155,0,0,1-8.528-.862.729.729,0,0,1-.546-.875.729.729,0,0,1,.875-.546c.088.02,8.833,1.995,16.961-.293a.729.729,0,0,1,.9.5.729.729,0,0,1-.5.9A34.094,34.094,0,0,1,1027.705-224.109Z" transform="translate(-952.137 382.586)"/>
          <path id="Path_1683" data-name="Path 1683" d="M1027.459-242.2a.73.73,0,0,1-.729-.717.73.73,0,0,1,.717-.742l7.942-.138a.726.726,0,0,1,.742.717.73.73,0,0,1-.717.742l-7.942.138Z" transform="translate(-956.307 391.364)"/>
          <g id="Group_887" data-name="Group 887" transform="translate(24.639 120.436)">
            <path id="Path_1684" data-name="Path 1684" d="M946-298.088l-.347,18.321-10.179.513-1.394-18.233Z" transform="translate(-933.347 298.818)" fill="#fff"/>
            <path id="Path_1685" data-name="Path 1685" d="M934.7-279.295a.729.729,0,0,1-.727-.674L932.579-298.2a.728.728,0,0,1,.18-.538.729.729,0,0,1,.511-.246l11.92-.6a.73.73,0,0,1,.544.2.729.729,0,0,1,.222.538l-.347,18.321a.729.729,0,0,1-.693.714l-10.179.513Zm-.609-18.272,1.283,16.778,8.789-.443.319-16.859Z" transform="translate(-932.577 299.588)"/>
          </g>
          <g id="Group_888" data-name="Group 888" transform="translate(0 131.213)">
            <path id="Path_1686" data-name="Path 1686" d="M922.8-258.212a3.68,3.68,0,0,1-2.654,3.778c-5.783,1.657-18.812,5.354-22.545,6.1-4.843.973-10.917-.22-13.64-2.945s5.287-9.961,9.126-12.641c5.7-3.981,10.994-11.547,13.349-11.994s7.131,6.212,7.131,6.212l7.086-3.405A89.7,89.7,0,0,1,922.8-258.212Z" transform="translate(-882.678 276.659)" fill="#5479f7"/>
            <path id="Path_1687" data-name="Path 1687" d="M893.328-248.034c-4.228,0-8.481-1.318-10.654-3.493a2.687,2.687,0,0,1-.753-2.21c.326-3.689,6.863-9.371,9.977-11.545a55.529,55.529,0,0,0,7.8-7.209c2.565-2.692,4.418-4.637,5.829-4.9,2.4-.455,6.147,4.2,7.5,6.008l6.539-3.143a.728.728,0,0,1,.624,0,.73.73,0,0,1,.4.48,91.428,91.428,0,0,1,2.167,15.026,4.432,4.432,0,0,1-3.18,4.526c-5.537,1.587-18.824,5.359-22.6,6.118A18.581,18.581,0,0,1,893.328-248.034Zm12.6-27.939a.652.652,0,0,0-.125.011c-.951.18-3.032,2.365-5.045,4.477a56.566,56.566,0,0,1-8.023,7.4c-3.768,2.63-9.116,7.734-9.359,10.477a1.226,1.226,0,0,0,.332,1.05c2.456,2.458,8.277,3.689,12.98,2.745,3.726-.748,16.968-4.508,22.488-6.09a2.967,2.967,0,0,0,2.127-3.029h0a94.529,94.529,0,0,0-1.921-13.889l-6.267,3.012a.729.729,0,0,1-.908-.232C910.111-272.959,907.179-275.973,905.927-275.973Z" transform="translate(-881.908 277.426)"/>
          </g>
          <path id="Path_1688" data-name="Path 1688" d="M895.8-233.172c-3.195,0-6.008-.616-7.954-2.2a.729.729,0,0,1-.1-1.027.729.729,0,0,1,1.026-.1c7.813,6.372,32.923-5.28,33.176-5.4a.729.729,0,0,1,.97.351.729.729,0,0,1-.351.97C921.735-240.2,906.586-233.172,895.8-233.172Z" transform="translate(-884.818 390.426)"/>
          <path id="Path_1689" data-name="Path 1689" d="M922.79-254.041a.727.727,0,0,1-.46-.163l-5.413-4.409a.729.729,0,0,1-.105-1.026.73.73,0,0,1,1.026-.105l5.413,4.409a.73.73,0,0,1,.1,1.027A.727.727,0,0,1,922.79-254.041Z" transform="translate(-899.755 399.639)"/>
          <path id="Path_1690" data-name="Path 1690" d="M966.114-547.259s6.032,56.915,8.676,76.535-1.269,51.568-1.269,51.568l-15.753-.033s-3.019-38.454-4.725-49.088c0,0-7.368-14.162-9.987-26.992s-10.349-32.914-10.349-32.914-.3,102.2-.422,110.238c0,0-12.293,1.17-16.85-1.386,0,0-9.7-36.773-9.6-57.05s-3.664-70.457-3.664-70.457Z" transform="translate(-892.319 547.259)"/>
          <path id="Path_1691" data-name="Path 1691" d="M1011.961-385.441a.729.729,0,0,1-.728-.692.729.729,0,0,1,.692-.765l4.8-.242a.729.729,0,0,1,.765.692.729.729,0,0,1-.691.765l-4.8.242Z" transform="translate(-948.345 465.003)" fill="#fff"/>
          <path id="Path_1692" data-name="Path 1692" d="M931.757-348.392a.729.729,0,0,1-.727-.679c-.625-9.085-11.992-25.705-12.107-25.872a.729.729,0,0,1,.187-1.014.729.729,0,0,1,1.014.188c.478.694,11.708,17.12,12.361,26.6a.73.73,0,0,1-.678.778Z" transform="translate(-900.858 459.323)" fill="#fff"/>
        </g>
        <g id="Group_892" data-name="Group 892" transform="translate(0 41.051)">
          <g id="Group_890" data-name="Group 890">
            <path id="Path_1693" data-name="Path 1693" d="M960.682-730.461s-6.988-33.766-26.039-41.2-48.794-3.205-55.533,1.327-16.775,25.726-16.775,25.726l14.612,18.369s-.625,60.335,3.068,76.069c0,0,17.91,1.178,25.312-2.177s32.023-8.774,44.167-3.919l-6-76.045Z" transform="translate(-861.606 776.455)" fill="#5479f7"/>
            <path id="Path_1694" data-name="Path 1694" d="M886.448-650.019c-3.961,0-6.954-.19-7.251-.21a.729.729,0,0,1-.662-.561c-3.586-15.278-3.136-71.109-3.09-75.983l-14.45-18.167a.729.729,0,0,1-.089-.766c.413-.873,10.2-21.428,17.028-26.019,6.548-4.4,36.417-9.123,56.2-1.4,19.2,7.492,26.2,40.337,26.487,41.732a.73.73,0,0,1-.174.638.73.73,0,0,1-.619.235l-16.31-1.756,5.929,75.169a.731.731,0,0,1-.3.645.73.73,0,0,1-.7.09c-11.565-4.623-35.957.444-43.6,3.906C900.383-650.44,892.344-650.019,886.448-650.019Zm-6.612-1.634c3.038.16,17.981.775,24.42-2.143,7.212-3.269,30.9-8.6,43.651-4.33L942-733.04a.732.732,0,0,1,.219-.581.73.73,0,0,1,.587-.2l16.168,1.74c-1.333-5.579-8.709-33.186-25.365-39.685-19.023-7.423-48.677-2.905-54.86,1.253-5.989,4.028-14.9,22.07-16.327,25.025l14.327,18.012a.732.732,0,0,1,.159.461C876.9-726.421,876.337-667.911,879.836-651.653Z" transform="translate(-860.836 777.241)"/>
          </g>
          <path id="Path_1695" data-name="Path 1695" d="M965.087-585.235a.7.7,0,0,1-.091-.006c-15.266-1.911-25-8.215-30.484-13.166a36.472,36.472,0,0,1-8.368-10.477.729.729,0,0,1,.353-.968.73.73,0,0,1,.969.353c.09.192,9.3,19.255,37.71,22.811a.73.73,0,0,1,.633.815A.73.73,0,0,1,965.087-585.235Z" transform="translate(-894.351 691.284)"/>
          <path id="Path_1696" data-name="Path 1696" d="M883.471-669.3l36.248-1.828-13.4-39.917-36.248,1.828Z" transform="translate(-865.583 743.234)"/>
          <g id="Group_891" data-name="Group 891" transform="translate(19.229 38.281)">
            <path id="Path_1697" data-name="Path 1697" d="M977.817-689.743l-18.759-7.275s4.151,30.953-33.689,18.471a26.478,26.478,0,0,0,.739-8.719c-.429-4.656-2.992,0-3.192,3.811s-8.992,2.712-14.3,1.482-12.136.1.311,6.164,14.951,2.956,14.951,2.956,16.557,20.861,35.568,15.293C982.825-664.409,977.817-689.743,977.817-689.743Z" transform="translate(-901.16 697.747)" fill="#fff"/>
            <path id="Path_1698" data-name="Path 1698" d="M952.144-656.668c-14.643,0-26.749-13.151-29.178-15.975-1.44.743-5.41,1.463-15.141-3.282-7.361-3.589-7.719-5.4-7.348-6.442.68-1.919,4.87-1.7,7.521-1.088,4.645,1.076,10.79,1.789,12.821.26a1.354,1.354,0,0,0,.589-1.069c.133-2.548,1.423-6.42,3.062-6.453h.027c1.317,0,1.5,1.965,1.558,2.613a27.34,27.34,0,0,1-.591,8.3c12.179,3.908,21.09,3.617,26.491-.866,7.013-5.821,5.616-16.915,5.6-17.026a.73.73,0,0,1,.271-.67.731.731,0,0,1,.715-.107l18.759,7.276a.729.729,0,0,1,.452.539,36.145,36.145,0,0,1-.424,13.83c-1.568,6.749-6.045,15.557-18.462,19.194A23.812,23.812,0,0,1,952.144-656.668Zm-29.039-17.7h0a.721.721,0,0,1,.558.288c.162.205,16.477,20.41,34.792,15.047,9.426-2.761,15.3-8.859,17.45-18.125a35.614,35.614,0,0,0,.48-12.827l-17.28-6.7c.187,3.194.06,11.928-6.222,17.142-5.909,4.9-15.506,5.213-28.525.919a.73.73,0,0,1-.473-.894,25.988,25.988,0,0,0,.713-8.452,4.924,4.924,0,0,0-.207-1.132,10.083,10.083,0,0,0-1.53,4.914,2.821,2.821,0,0,1-1.169,2.158c-3.057,2.3-11.51.579-14.028,0-3.13-.725-5.644-.333-5.817.154,0,.012-.126,1.358,6.612,4.644,11.472,5.594,14.061,3.153,14.085,3.128A.7.7,0,0,1,923.105-674.366Z" transform="translate(-900.38 698.518)"/>
          </g>
        </g>
        <g id="Group_894" data-name="Group 894" transform="translate(27.014)">
          <path id="Path_1699" data-name="Path 1699" d="M933.367-829.9c1.658,1.371,4.845,2.987,7.208,1.643,1.759-1,2.649-3.406,2.45-6.1a3.621,3.621,0,0,0,2.679-.818c1.15-1.124.826-3.071.714-4.355-.517-5.927,2.887-7.012,1.84-11a9.6,9.6,0,0,0-3.889-5.225c-2.439-1.663-4-1.008-8-1.843-6.732-1.405-7.088-4.259-11.467-4.051-.253.012-6.207.378-8.022,4.6-1.476,3.43.65,7.4,2.744,9.439,2.711,2.639,4.489,1.178,7.187,3.369C931.547-840.4,928.441-833.973,933.367-829.9Z" transform="translate(-916.389 861.661)"/>
          <g id="Group_893" data-name="Group 893" transform="translate(2.145 9.237)">
            <path id="Path_1700" data-name="Path 1700" d="M922.609-829.3l.25-.239c1.258-1.2,2.56-2.585,2.824-4.3,1.119-7.3,7.608-10.261,8.248-3.639.161,1.671,6.273,1.275,5.636,3.07-1.661,4.679-1.765,3.448.991,5a2.31,2.31,0,0,1,.9.166,3.066,3.066,0,0,1,1.292,4.1,3.548,3.548,0,0,1-2.076,2.057l.365,7.241a6.692,6.692,0,0,0,4.466,5.977l2.5.876s-11.027,8.017-23.011.43l1.51-.771a7.8,7.8,0,0,0,4.253-7.1l-.059-1.417a6.062,6.062,0,0,1-2.237-.073c-3.284-.779-4.547-4.454-4.231-9.118l-1.353-.641A1,1,0,0,1,922.609-829.3Z" transform="translate(-921.57 841.895)" fill="#fff"/>
            <path id="Path_1701" data-name="Path 1701" d="M935.083-805.361a20.733,20.733,0,0,1-11.256-3.353.728.728,0,0,1-.338-.65.729.729,0,0,1,.4-.616l1.51-.771a7.116,7.116,0,0,0,3.856-6.433l-.027-.636a6.4,6.4,0,0,1-1.709-.158c-3.311-.784-5.053-4.191-4.819-9.379l-.91-.431a1.725,1.725,0,0,1-.965-1.285,1.725,1.725,0,0,1,.513-1.523l.25-.239c1.14-1.087,2.375-2.373,2.606-3.885.766-4.995,3.908-8.012,6.341-7.944,1.842.052,3.1,1.676,3.354,4.345.157.3,1.648.643,2.364.805,1.447.328,2.7.611,3.157,1.447a1.35,1.35,0,0,1,.076,1.133c-.243.683-.452,1.242-.625,1.7a11.343,11.343,0,0,0-.508,1.51c.109.07.336.177.54.273.295.139.654.308,1.094.549a3,3,0,0,1,.974.215,3.225,3.225,0,0,1,1.851,2.084,4.4,4.4,0,0,1-.158,2.965,4.356,4.356,0,0,1-2,2.252l.34,6.735a5.942,5.942,0,0,0,3.979,5.326l2.5.876a.73.73,0,0,1,.48.582.73.73,0,0,1-.293.7A23.549,23.549,0,0,1,935.083-805.361Zm-9.355-3.921c8.719,4.825,16.789,1.378,19.813-.3l-1.05-.369a7.394,7.394,0,0,1-4.953-6.628l-.365-7.242a.729.729,0,0,1,.493-.727,2.838,2.838,0,0,0,1.635-1.641,2.937,2.937,0,0,0,.118-1.977,1.793,1.793,0,0,0-1.008-1.171,1.54,1.54,0,0,0-.617-.112.8.8,0,0,1-.365-.094c-.467-.264-.851-.444-1.159-.589-1.813-.854-1.573-1.495-.776-3.616.168-.447.372-.989.607-1.65a7.388,7.388,0,0,0-2.172-.695c-1.655-.375-3.366-.763-3.494-2.087-.183-1.895-.891-3-1.942-3.027-1.558-.052-4.186,2.32-4.859,6.707-.3,1.966-1.728,3.467-3.042,4.719l-.249.239h0a.262.262,0,0,0-.079.236.26.26,0,0,0,.149.2l1.354.642a.73.73,0,0,1,.415.708c-.151,2.216-.094,7.466,3.671,8.359a5.345,5.345,0,0,0,1.968.061.73.73,0,0,1,.568.162.731.731,0,0,1,.262.53l.059,1.416a8.588,8.588,0,0,1-4.65,7.777Zm-3.889-20.786h0Z" transform="translate(-920.8 842.665)"/>
          </g>
          <path id="Path_1702" data-name="Path 1702" d="M938.785-798.023a.729.729,0,0,1-.714-.583.73.73,0,0,1,.568-.861,8.8,8.8,0,0,0,5.794-4.139.73.73,0,0,1,.981-.318.73.73,0,0,1,.318.981,10.2,10.2,0,0,1-6.8,4.906A.728.728,0,0,1,938.785-798.023Z" transform="translate(-927.52 832.041)"/>
        </g>
      </g>
    </g>
    <g id="Group_900" data-name="Group 900" transform="translate(417.853 -1038.726)">
      <g id="Group_898" data-name="Group 898">
        <path id="Path_1703" data-name="Path 1703" d="M504.454-902.074l24.97,16.4c1.829,1.2,4.088.994,5.045-.463l1.576-2.4c.957-1.457.25-3.613-1.579-4.814l-24.97-16.4Z" transform="translate(-491.628 972.468)" fill="#5479f7"/>
        <ellipse id="Ellipse_73" data-name="Ellipse 73" cx="7.371" cy="12.059" rx="7.371" ry="12.059" transform="matrix(0.809, -0.587, 0.587, 0.809, 48.381, 17.76)"/>
        <path id="Path_1704" data-name="Path 1704" d="M478.5-919.642l6.888,9.493c1.061,1.462,3.788,1.293,6.09-.378L480.75-925.314C478.447-923.643,477.44-921.1,478.5-919.642Z" transform="translate(-478.079 980.463)"/>
        <g id="Group_897" data-name="Group 897" transform="translate(0.419 2.408)">
          <path id="Path_1705" data-name="Path 1705" d="M521.1-1032.274,517.4-1029.6l-36.964,50.438L491.17-964.37l59.418-19.49,3.692-2.679Z" transform="translate(-479.712 1033.004)" fill="#fff"/>
          <path id="Path_1706" data-name="Path 1706" d="M490.4-964.412a.729.729,0,0,1-.59-.3L479.08-979.5a.729.729,0,0,1,0-.859l36.964-50.438a.727.727,0,0,1,.16-.159l3.692-2.679a.73.73,0,0,1,.543-.13.732.732,0,0,1,.476.292L554.1-987.738a.73.73,0,0,1-.162,1.019l-3.692,2.678a.72.72,0,0,1-.2.1l-59.417,19.491A.737.737,0,0,1,490.4-964.412Zm-9.826-15.515L490.677-966l58.8-19.289,3.009-2.183-32.326-44.554-3.009,2.183Z" transform="translate(-478.941 1033.775)"/>
        </g>
        <path id="Path_1707" data-name="Path 1707" d="M490.143-964.425a.973.973,0,0,1-.787-.4l-10.729-14.788a.973.973,0,0,1,0-1.146l36.964-50.438a.964.964,0,0,1,.213-.213l3.692-2.678a.972.972,0,0,1,.724-.174.976.976,0,0,1,.635.39l33.182,45.735a.973.973,0,0,1-.216,1.359l-3.692,2.678a.97.97,0,0,1-.268.137l-59.417,19.49A.98.98,0,0,1,490.143-964.425Zm-9.526-15.757,9.9,13.64,58.6-19.222,2.781-2.017-32.04-44.161-2.781,2.018Z" transform="translate(-478.265 1036.439)"/>
        <path id="Path_1708" data-name="Path 1708" d="M594.233-988.316l-3.081,2.236a2.729,2.729,0,0,1-3.994-.9,222.5,222.5,0,0,0-32.6-44.918,2.728,2.728,0,0,1,.387-4.073l3.08-2.234a2.728,2.728,0,0,1,3.572.319A205.826,205.826,0,0,1,595.043-991.8,2.728,2.728,0,0,1,594.233-988.316Z" transform="translate(-516.99 1038.726)" fill="#5479f7"/>
        <path id="Path_1709" data-name="Path 1709" d="M616.371-947.55a2.218,2.218,0,0,1-1.937-1.145c-2.579-4.7-5.373-9.366-8.3-13.882a.73.73,0,0,1,.215-1.009.73.73,0,0,1,1.009.215c2.951,4.546,5.763,9.247,8.359,13.973a.748.748,0,0,0,.814.372.727.727,0,0,0,.268-.123l1.263-.916a.729.729,0,0,1,1.019.162.73.73,0,0,1-.162,1.019l-1.263.917a2.18,2.18,0,0,1-.8.365A2.161,2.161,0,0,1,616.371-947.55Z" transform="translate(-543.802 1000.185)" fill="#fff"/>
        <path id="Path_1710" data-name="Path 1710" d="M598.613-974.219a.728.728,0,0,1-.607-.324c-1.449-2.168-2.959-4.344-4.489-6.466a.729.729,0,0,1,.165-1.018.728.728,0,0,1,1.018.165c1.539,2.136,3.06,4.326,4.518,6.509a.728.728,0,0,1-.2,1.011A.723.723,0,0,1,598.613-974.219Z" transform="translate(-537.311 1009.669)" fill="#fff"/>
      </g>
      <g id="Group_899" data-name="Group 899" transform="translate(59.49 0.419)">
        <path id="Path_1711" data-name="Path 1711" d="M601.48-1026.165l-1.024-6.166a2.834,2.834,0,0,1,1.54-3l5.115-2.528Z" transform="translate(-600.417 1037.863)" fill="#99b9ff"/>
        <path id="Path_1712" data-name="Path 1712" d="M622.287-1033.851l-.688,5.471-1.255-.283a3.333,3.333,0,0,0-3.786,1.917l-2.255,5.163,2.252-1.677a3.8,3.8,0,0,1,4.452-.06l1.142.8a2.524,2.524,0,0,0,3.664-.847l4.077-7.412Z" transform="translate(-607.55 1035.802)" fill="#99b9ff"/>
        <path id="Path_1713" data-name="Path 1713" d="M632.162-1000.347l-9.757-1.12.313.485a4.072,4.072,0,0,0,1.831,1.54l6.564,2.78a.858.858,0,0,0,1.155-.542l.616-2.043A.857.857,0,0,0,632.162-1000.347Z" transform="translate(-611.713 1019.166)" fill="#99b9ff"/>
      </g>
    </g>
    <g id="Group_905" data-name="Group 905" transform="translate(669.775 -1019.419)">
      <g id="Group_902" data-name="Group 902" transform="translate(0 0)">
        <g id="Group_901" data-name="Group 901" transform="translate(0)">
          <circle id="Ellipse_74" data-name="Ellipse 74" cx="21.812" cy="21.812" r="21.812" transform="translate(0 30.847) rotate(-45)" fill="#fff"/>
          <path id="Path_1714" data-name="Path 1714" d="M1035.739-936.859a22.376,22.376,0,0,1-15.044-5.78,22.394,22.394,0,0,1-7.439-15.567,22.568,22.568,0,0,1,21.314-23.706,22.565,22.565,0,0,1,23.706,21.314,22.567,22.567,0,0,1-21.314,23.705C1036.553-936.87,1036.145-936.859,1035.739-936.859Zm.04-43.626q-.563,0-1.131.03a21.107,21.107,0,0,0-19.935,22.172,20.944,20.944,0,0,0,6.957,14.559,20.941,20.941,0,0,0,15.214,5.376,21.107,21.107,0,0,0,19.935-22.172A21.11,21.11,0,0,0,1035.779-980.484Z" transform="translate(-1004.919 990.248)"/>
        </g>
        <circle id="Ellipse_75" data-name="Ellipse 75" cx="19.711" cy="19.711" r="19.711" transform="translate(7.836 15.115) rotate(-10.641)" fill="#caddff"/>
        <circle id="Ellipse_76" data-name="Ellipse 76" cx="17.435" cy="17.435" r="17.435" transform="matrix(0.829, -0.559, 0.559, 0.829, 6.644, 26.139)" fill="#fff"/>
        <path id="Path_1715" data-name="Path 1715" d="M1039.785-936.642a18.581,18.581,0,0,1-12.491-4.8,18.594,18.594,0,0,1-6.176-12.925,18.592,18.592,0,0,1,4.772-13.507,18.6,18.6,0,0,1,12.925-6.176,18.712,18.712,0,0,1,15.935,7.416.73.73,0,0,1-.142,1.022.729.729,0,0,1-1.022-.142,17.258,17.258,0,0,0-14.694-6.839,17.144,17.144,0,0,0-11.917,5.695,17.143,17.143,0,0,0-4.4,12.453,17.144,17.144,0,0,0,5.694,11.918,17.14,17.14,0,0,0,12.453,4.4,17.277,17.277,0,0,0,16.318-18.148.729.729,0,0,1,.69-.767.732.732,0,0,1,.767.69,18.737,18.737,0,0,1-17.7,19.682Q1040.291-936.642,1039.785-936.642Z" transform="translate(-1008.961 986.206)"/>
        <path id="Path_1716" data-name="Path 1716" d="M1052.756-936.172l-.128-2.415a10.25,10.25,0,0,1-4.38-.864l.6-3.015a8.989,8.989,0,0,0,4.28.894c1.449-.077,2.411-.689,2.357-1.706-.052-.966-.9-1.533-2.812-2.069-2.769-.771-4.693-1.943-4.824-4.41-.119-2.237,1.364-4.075,4.057-4.754l-.129-2.416,2.492-.132.119,2.237a9.165,9.165,0,0,1,3.731.643l-.585,2.912a8.443,8.443,0,0,0-3.707-.67c-1.652.088-2.148.828-2.111,1.54.045.839.963,1.326,3.168,2.024,3.082.907,4.377,2.241,4.5,4.529.12,2.263-1.379,4.28-4.276,4.944l.138,2.593Z" transform="translate(-1022.706 977.464)" fill="#5479f7"/>
      </g>
      <path id="Path_1717" data-name="Path 1717" d="M1182.845-765.128l-.939-3.433-3.88.177a14.764,14.764,0,0,0-1.247-2.143l2.055-3.294-2.529-2.5-3.274,2.095a14.942,14.942,0,0,0-2.15-1.226l.134-3.886-3.441-.9-1.786,3.447a14.749,14.749,0,0,0-2.478.018l-1.825-3.432-3.431.94.176,3.884a14.775,14.775,0,0,0-2.141,1.248L1152.8-776.2l-2.5,2.531,2.094,3.276a14.945,14.945,0,0,0-1.226,2.152l-3.883-.134-.9,3.443,3.445,1.787a14.746,14.746,0,0,0,.018,2.48l-3.429,1.827.94,3.433,3.88-.177a14.813,14.813,0,0,0,1.247,2.143l-2.055,3.293,2.529,2.5,3.274-2.1a14.935,14.935,0,0,0,2.15,1.227l-.134,3.886,3.441.9,1.786-3.448a14.718,14.718,0,0,0,2.478-.018l1.825,3.432,3.431-.94-.177-3.883a14.779,14.779,0,0,0,2.142-1.248l3.292,2.056,2.5-2.531-2.093-3.276a15,15,0,0,0,1.226-2.152l3.883.134.9-3.443-3.445-1.787a14.721,14.721,0,0,0-.017-2.48Zm-15.8,11.984a9.156,9.156,0,0,1-11.249-6.418,9.164,9.164,0,0,1,6.413-11.258,9.156,9.156,0,0,1,11.25,6.418A9.164,9.164,0,0,1,1167.047-753.144Z" transform="translate(-1073.324 886.63)" fill="#5479f7"/>
      <g id="Group_904" data-name="Group 904" transform="translate(36.798 39.967)">
        <g id="Group_903" data-name="Group 903" transform="translate(0 0)">
          <ellipse id="Ellipse_77" data-name="Ellipse 77" cx="21.128" cy="21.007" rx="21.128" ry="21.007" transform="translate(0 30.785) rotate(-46.764)" fill="#5479f7"/>
          <rect id="Rectangle_1454" data-name="Rectangle 1454" width="4.029" height="20.372" rx="2.014" transform="translate(35.208 19.38) rotate(-2.204)" fill="#fff"/>
          <rect id="Rectangle_1455" data-name="Rectangle 1455" width="4.029" height="14.451" rx="2.014" transform="translate(27.6 25.597) rotate(-2.202)" fill="#fff"/>
          <rect id="Rectangle_1456" data-name="Rectangle 1456" width="4.029" height="6.891" rx="2.014" transform="translate(20.056 33.454) rotate(-2.204)" fill="#fff"/>
        </g>
      </g>
    </g>
    <g id="Group_907" data-name="Group 907" transform="translate(360.845 -967.027)">
      <g id="Group_906" data-name="Group 906" transform="translate(0 0)">
        <circle id="Ellipse_78" data-name="Ellipse 78" cx="33.789" cy="33.789" r="33.789" transform="translate(0 47.785) rotate(-45)" fill="#99b9ff"/>
        <circle id="Ellipse_79" data-name="Ellipse 79" cx="27.139" cy="27.139" r="27.139" transform="translate(19.444 73.667) rotate(-87.403)" fill="#fff"/>
        <circle id="Ellipse_80" data-name="Ellipse 80" cx="20.876" cy="20.876" r="20.876" transform="translate(22.671 63.307) rotate(-76.718)" fill="#99b9ff"/>
        <circle id="Ellipse_81" data-name="Ellipse 81" cx="13.48" cy="13.48" r="13.48" transform="translate(34.305 34.305)" fill="#fff"/>
        <circle id="Ellipse_82" data-name="Ellipse 82" cx="7.361" cy="7.361" r="7.361" transform="translate(40.424 40.424)" fill="#5479f7"/>
      </g>
      <path id="Path_1718" data-name="Path 1718" d="M482.6-739.376a.73.73,0,0,1-.684-.475.73.73,0,0,1,.429-.939,33.094,33.094,0,0,0,14.49-10.609.729.729,0,0,1,1.024-.123.729.729,0,0,1,.124,1.024,34.558,34.558,0,0,1-15.128,11.075A.722.722,0,0,1,482.6-739.376Z" transform="translate(-423.02 819.563)" fill="#5479f7"/>
      <path id="Path_1719" data-name="Path 1719" d="M394.938-839.59a.726.726,0,0,1-.3-.064.729.729,0,0,1-.366-.964,34.519,34.519,0,0,1,17.607-17.466.729.729,0,0,1,.961.374.729.729,0,0,1-.374.961A33.062,33.062,0,0,0,395.6-840.02.73.73,0,0,1,394.938-839.59Z" transform="translate(-377.985 874.259)" fill="#5479f7"/>
      <path id="Path_1720" data-name="Path 1720" d="M416.349-786.847a.729.729,0,0,1-.7-.513,21.618,21.618,0,0,1-.972-6.425.73.73,0,0,1,.729-.729.729.729,0,0,1,.729.729,20.148,20.148,0,0,0,.906,5.991.73.73,0,0,1-.48.913A.734.734,0,0,1,416.349-786.847Z" transform="translate(-388.502 841.57)" fill="#5479f7"/>
      <path id="Path_1721" data-name="Path 1721" d="M492.822-814.281a.73.73,0,0,1-.714-.583,20.2,20.2,0,0,0-6.923-11.486.73.73,0,0,1-.1-1.027.73.73,0,0,1,1.027-.1,21.667,21.667,0,0,1,7.423,12.318.729.729,0,0,1-.568.861A.726.726,0,0,1,492.822-814.281Z" transform="translate(-424.586 858.589)" fill="#5479f7"/>
      <path id="Path_1722" data-name="Path 1722" d="M415.41-815.11a.73.73,0,0,1-.729-.729,21.63,21.63,0,0,1,21.606-21.606,21.611,21.611,0,0,1,6.59,1.023.729.729,0,0,1,.472.917.73.73,0,0,1-.917.473,20.146,20.146,0,0,0-6.146-.954,20.17,20.17,0,0,0-20.147,20.147A.729.729,0,0,1,415.41-815.11Z" transform="translate(-388.502 863.624)" fill="#5479f7"/>
    </g>
    <g id="Group_912" data-name="Group 912" transform="translate(383.852 -1029.425)">
      <g id="Group_908" data-name="Group 908" transform="translate(325.942 228.485)">
        <path id="Path_1723" data-name="Path 1723" d="M1088.306-447.2a.726.726,0,0,1-.517-.215.729.729,0,0,1,0-1.031c21.977-21.852,32.446-42.991,37.358-56.876,5.322-15.044,5.45-25.051,5.45-25.151a.732.732,0,0,1,.734-.724.729.729,0,0,1,.724.733c0,.413-.121,10.3-5.508,25.554-4.958,14.046-15.53,35.423-37.731,57.5A.728.728,0,0,1,1088.306-447.2Z" transform="translate(-1083.135 540.209)"/>
        <path id="Path_1724" data-name="Path 1724" d="M1079.172-440.175a.725.725,0,0,1-.547-.246.729.729,0,0,1,.063-1.029c32.229-28.516,46.193-56.258,52.231-74.51,6.527-19.726,5.449-32.845,5.437-32.975a.729.729,0,0,1,.661-.792.731.731,0,0,1,.792.661c.012.133,1.116,13.554-5.5,33.564-6.1,18.422-20.177,46.413-52.649,75.144A.729.729,0,0,1,1079.172-440.175Z" transform="translate(-1078.442 549.73)"/>
      </g>
      <g id="Group_909" data-name="Group 909" transform="translate(0 183.164)">
        <path id="Path_1725" data-name="Path 1725" d="M458.965-503.077a.727.727,0,0,1-.576-.281c-16.358-21.018-26.471-49.388-32.075-69.487A311.271,311.271,0,0,1,417.99-611.8a.73.73,0,0,1,.63-.817.73.73,0,0,1,.816.63c.087.674,9.065,67.857,40.1,107.736a.729.729,0,0,1-.127,1.024A.726.726,0,0,1,458.965-503.077Z" transform="translate(-413.206 627.363)"/>
        <path id="Path_1726" data-name="Path 1726" d="M452.156-462.833a.726.726,0,0,1-.539-.238c-26.7-29.262-40.343-88.047-40.478-88.638a.73.73,0,0,1,.549-.874.731.731,0,0,1,.874.549c.134.587,13.7,59,40.133,87.979a.73.73,0,0,1-.047,1.03A.726.726,0,0,1,452.156-462.833Z" transform="translate(-409.68 596.526)"/>
        <path id="Path_1727" data-name="Path 1727" d="M408.887-631.342a.73.73,0,0,1-.484-.184.73.73,0,0,1-.23-.7l2.141-10.13a.729.729,0,0,1,.537-.557.728.728,0,0,1,.736.24l6.122,7.321a.731.731,0,0,1,.143.665.73.73,0,0,1-.468.494l-8.263,2.809A.722.722,0,0,1,408.887-631.342Zm2.544-9.24-1.566,7.408,6.042-2.055Z" transform="translate(-408.158 642.931)"/>
      </g>
      <g id="Group_910" data-name="Group 910" transform="translate(263.389 0)">
        <path id="Path_1728" data-name="Path 1728" d="M963.449-1014.368a.729.729,0,0,1-.729-.729v-3.772a.729.729,0,0,1,.729-.729.729.729,0,0,1,.729.729v3.772A.729.729,0,0,1,963.449-1014.368Z" transform="translate(-956.44 1019.599)"/>
        <path id="Path_1729" data-name="Path 1729" d="M963.449-996.3a.729.729,0,0,1-.729-.729v-3.772a.729.729,0,0,1,.729-.729.73.73,0,0,1,.729.729v3.772A.73.73,0,0,1,963.449-996.3Z" transform="translate(-956.44 1010.315)"/>
        <path id="Path_1730" data-name="Path 1730" d="M954.307-1005.226h-3.772a.729.729,0,0,1-.729-.729.73.73,0,0,1,.729-.729h3.772a.73.73,0,0,1,.729.729A.729.729,0,0,1,954.307-1005.226Z" transform="translate(-949.805 1012.965)"/>
        <path id="Path_1731" data-name="Path 1731" d="M972.379-1005.226h-3.772a.729.729,0,0,1-.729-.729.729.729,0,0,1,.729-.729h3.772a.729.729,0,0,1,.729.729A.729.729,0,0,1,972.379-1005.226Z" transform="translate(-959.089 1012.965)"/>
      </g>
      <g id="Group_911" data-name="Group 911" transform="translate(374.271 192.584)">
        <path id="Path_1732" data-name="Path 1732" d="M1191.471-618.329a.73.73,0,0,1-.729-.729v-3.773a.73.73,0,0,1,.729-.729.729.729,0,0,1,.729.729v3.773A.729.729,0,0,1,1191.471-618.329Z" transform="translate(-1184.462 623.56)"/>
        <path id="Path_1733" data-name="Path 1733" d="M1191.471-600.257a.73.73,0,0,1-.729-.729v-3.773a.73.73,0,0,1,.729-.729.729.729,0,0,1,.729.729v3.773A.729.729,0,0,1,1191.471-600.257Z" transform="translate(-1184.462 614.276)"/>
        <path id="Path_1734" data-name="Path 1734" d="M1182.33-609.186h-3.772a.729.729,0,0,1-.729-.729.729.729,0,0,1,.729-.729h3.772a.73.73,0,0,1,.729.729A.73.73,0,0,1,1182.33-609.186Z" transform="translate(-1177.828 616.925)"/>
        <path id="Path_1735" data-name="Path 1735" d="M1200.4-609.186h-3.773a.73.73,0,0,1-.729-.729.73.73,0,0,1,.729-.729h3.773a.73.73,0,0,1,.729.729A.73.73,0,0,1,1200.4-609.186Z" transform="translate(-1187.112 616.925)"/>
      </g>
    </g>
    <g id="Group_918" data-name="Group 918" transform="translate(529.003 -1037.07)">
      <g id="Group_916" data-name="Group 916" transform="translate(35.02 28.021)">
        <path id="Path_1736" data-name="Path 1736" d="M782.54-943.029a3.9,3.9,0,0,1-3.869-3.937l.236-26.86a3.9,3.9,0,0,1,3.937-3.869l74.045.65a3.9,3.9,0,0,1,3.869,3.937l-.235,26.86a3.9,3.9,0,0,1-3.938,3.869l-14.3-.125-5.027,9.089-5.126-9.178Z" transform="translate(-778.671 977.695)" fill="#fff"/>
        <path id="Path_1737" data-name="Path 1737" d="M841.978-942.507l14.607.128a3.9,3.9,0,0,0,3.938-3.869l.235-26.86a3.9,3.9,0,0,0-3.869-3.937l-74.045-.65a3.9,3.9,0,0,0-3.937,3.869l-.236,26.86a3.9,3.9,0,0,0,3.869,3.937l49.595.435,5.082,9.48Z" transform="translate(-778.671 977.695)" fill="#99b9ff"/>
        <g id="Group_913" data-name="Group 913" transform="translate(10.155 21.212)">
          <path id="Path_1738" data-name="Path 1738" d="M859.9-932.057l-58.847-.516Z" transform="translate(-800.325 933.302)" fill="#fff"/>
          <path id="Path_1739" data-name="Path 1739" d="M859.131-932.1h-.007l-58.847-.516a.729.729,0,0,1-.723-.736.73.73,0,0,1,.729-.723h.006l58.848.516a.729.729,0,0,1,.723.736A.729.729,0,0,1,859.131-932.1Z" transform="translate(-799.554 934.073)"/>
        </g>
        <g id="Group_914" data-name="Group 914" transform="translate(10.224 13.348)">
          <path id="Path_1740" data-name="Path 1740" d="M813.5-948.637l-12.3-.108Z" transform="translate(-800.467 949.475)" fill="#fff"/>
          <path id="Path_1741" data-name="Path 1741" d="M812.731-948.679h-.007l-12.3-.108a.729.729,0,0,1-.723-.736.73.73,0,0,1,.729-.723h.007l12.3.108a.729.729,0,0,1,.723.736A.729.729,0,0,1,812.731-948.679Z" transform="translate(-799.696 950.246)"/>
        </g>
        <g id="Group_915" data-name="Group 915" transform="translate(30.393 13.525)">
          <path id="Path_1742" data-name="Path 1742" d="M881.351-948.043l-38.679-.339Z" transform="translate(-841.943 949.111)" fill="#fff"/>
          <path id="Path_1743" data-name="Path 1743" d="M880.581-948.083h-.007l-38.679-.339a.73.73,0,0,1-.723-.736.729.729,0,0,1,.729-.723h.007l38.679.339a.729.729,0,0,1,.723.736A.729.729,0,0,1,880.581-948.083Z" transform="translate(-841.172 949.881)"/>
        </g>
      </g>
      <g id="Group_917" data-name="Group 917" transform="translate(0 0)">
        <path id="Path_1744" data-name="Path 1744" d="M784.589-1000.356a3.9,3.9,0,0,0,3.919-3.888l.107-26.861a3.9,3.9,0,0,0-3.887-3.919l-74.047-.3a3.9,3.9,0,0,0-3.919,3.887l-.108,26.861a3.9,3.9,0,0,0,3.888,3.919l14.836.059,4.02,7.384,5.138-7.347Z" transform="translate(-706.654 1035.32)" fill="#fff"/>
        <path id="Path_1745" data-name="Path 1745" d="M734.993-1000.554l49.6.2a3.9,3.9,0,0,0,3.919-3.888l.107-26.861a3.9,3.9,0,0,0-3.887-3.919l-74.047-.3a3.9,3.9,0,0,0-3.919,3.887l-.108,26.861a3.9,3.9,0,0,0,3.888,3.919l14.607.058,4.249,7.385Z" transform="translate(-706.654 1035.32)" fill="#5479f7"/>
        <path id="Path_1746" data-name="Path 1746" d="M789.89-990.058h0l-58.849-.236a.729.729,0,0,1-.726-.732.716.716,0,0,1,.732-.727l58.849.236a.729.729,0,0,1,.726.732A.729.729,0,0,1,789.89-990.058Z" transform="translate(-718.808 1012.939)" fill="#fff"/>
        <path id="Path_1747" data-name="Path 1747" d="M839.127-1006.034h0l-12.3-.05a.729.729,0,0,1-.726-.732.726.726,0,0,1,.732-.726l12.3.05a.729.729,0,0,1,.726.732A.729.729,0,0,1,839.127-1006.034Z" transform="translate(-768.013 1021.05)" fill="#fff"/>
        <path id="Path_1748" data-name="Path 1748" d="M769.786-1006.312h0l-38.68-.155a.729.729,0,0,1-.727-.732.729.729,0,0,1,.729-.726h0l38.68.155a.73.73,0,0,1,.727.732A.729.729,0,0,1,769.786-1006.312Z" transform="translate(-718.841 1021.247)" fill="#fff"/>
      </g>
    </g>
  </g>
</svg>
